<svg width="255" height="246" viewBox="0 0 255 246" fill="none" xmlns="http://www.w3.org/2000/svg">
<circle cx="205" cy="221" r="25" fill="white"/>
<path d="M200.41 214C199.954 214 199.564 214.163 199.238 214.488C198.913 214.801 198.75 215.191 198.75 215.66C198.75 216.116 198.913 216.507 199.238 216.832C199.564 217.158 199.948 217.32 200.391 217.32C200.846 217.32 201.237 217.158 201.562 216.832C201.888 216.507 202.051 216.116 202.051 215.66C202.051 215.204 201.888 214.814 201.562 214.488C201.25 214.163 200.866 214 200.41 214ZM208.457 218.375C207.819 218.375 207.266 218.525 206.797 218.824C206.419 219.072 206.12 219.404 205.898 219.82H205.859V218.57H203.125V227.75H205.977V223.199C205.977 222.704 206.003 222.327 206.055 222.066C206.133 221.676 206.276 221.383 206.484 221.188C206.732 220.966 207.083 220.855 207.539 220.855C207.995 220.855 208.34 220.986 208.574 221.246C208.77 221.454 208.9 221.767 208.965 222.184C209.004 222.431 209.023 222.796 209.023 223.277V227.75H211.875V222.711C211.875 221.786 211.79 221.044 211.621 220.484C211.426 219.807 211.094 219.293 210.625 218.941C210.104 218.564 209.382 218.375 208.457 218.375ZM198.984 218.57V227.75H201.836V218.57H198.984Z" fill="#0A0A0B"/>
<circle cx="145" cy="221" r="25" fill="white"/>
<path d="M142.168 214.625C141.439 214.625 140.762 214.807 140.137 215.172C139.525 215.536 139.036 216.031 138.672 216.656C138.307 217.268 138.125 217.939 138.125 218.668V224.332C138.125 225.061 138.307 225.738 138.672 226.363C139.036 226.975 139.525 227.464 140.137 227.828C140.762 228.193 141.439 228.375 142.168 228.375H147.832C148.561 228.375 149.232 228.193 149.844 227.828C150.469 227.464 150.964 226.975 151.328 226.363C151.693 225.738 151.875 225.061 151.875 224.332V218.668C151.875 217.939 151.693 217.268 151.328 216.656C150.964 216.031 150.469 215.536 149.844 215.172C149.232 214.807 148.561 214.625 147.832 214.625H142.168ZM142.168 215.875H147.832C148.34 215.875 148.809 215.999 149.238 216.246C149.668 216.493 150.007 216.832 150.254 217.262C150.501 217.691 150.625 218.16 150.625 218.668V224.332C150.625 224.84 150.501 225.309 150.254 225.738C150.007 226.168 149.668 226.507 149.238 226.754C148.809 227.001 148.34 227.125 147.832 227.125H142.168C141.66 227.125 141.191 227.001 140.762 226.754C140.332 226.507 139.993 226.168 139.746 225.738C139.499 225.309 139.375 224.84 139.375 224.332V218.668C139.375 218.16 139.499 217.691 139.746 217.262C139.993 216.832 140.332 216.493 140.762 216.246C141.191 215.999 141.66 215.875 142.168 215.875ZM148.691 217.242C148.535 217.242 148.398 217.301 148.281 217.418C148.177 217.522 148.125 217.652 148.125 217.809C148.125 217.965 148.177 218.102 148.281 218.219C148.398 218.323 148.535 218.375 148.691 218.375C148.848 218.375 148.978 218.323 149.082 218.219C149.199 218.102 149.258 217.965 149.258 217.809C149.258 217.652 149.199 217.522 149.082 217.418C148.978 217.301 148.848 217.242 148.691 217.242ZM145 217.75C144.323 217.75 143.698 217.919 143.125 218.258C142.552 218.596 142.096 219.052 141.758 219.625C141.419 220.198 141.25 220.823 141.25 221.5C141.25 222.177 141.419 222.802 141.758 223.375C142.096 223.948 142.552 224.404 143.125 224.742C143.698 225.081 144.323 225.25 145 225.25C145.677 225.25 146.302 225.081 146.875 224.742C147.448 224.404 147.904 223.948 148.242 223.375C148.581 222.802 148.75 222.177 148.75 221.5C148.75 220.823 148.581 220.198 148.242 219.625C147.904 219.052 147.448 218.596 146.875 218.258C146.302 217.919 145.677 217.75 145 217.75ZM145 219C145.456 219 145.872 219.111 146.25 219.332C146.641 219.553 146.947 219.859 147.168 220.25C147.389 220.628 147.5 221.044 147.5 221.5C147.5 221.956 147.389 222.379 147.168 222.77C146.947 223.147 146.641 223.447 146.25 223.668C145.872 223.889 145.456 224 145 224C144.544 224 144.121 223.889 143.73 223.668C143.353 223.447 143.053 223.147 142.832 222.77C142.611 222.379 142.5 221.956 142.5 221.5C142.5 221.044 142.611 220.628 142.832 220.25C143.053 219.859 143.353 219.553 143.73 219.332C144.121 219.111 144.544 219 145 219Z" fill="#0A0A0B"/>
<circle cx="85" cy="221" r="25" fill="white"/>
<path d="M92.5 216.852C91.9401 217.099 91.3542 217.262 90.7422 217.34C91.0547 217.145 91.3281 216.904 91.5625 216.617C91.7969 216.318 91.9727 215.986 92.0898 215.621C91.4779 215.986 90.8268 216.24 90.1367 216.383C89.8503 216.07 89.5117 215.829 89.1211 215.66C88.7305 215.491 88.3203 215.406 87.8906 215.406C87.3307 215.406 86.8164 215.543 86.3477 215.816C85.8789 216.09 85.5013 216.467 85.2148 216.949C84.9414 217.418 84.8047 217.926 84.8047 218.473C84.8047 218.72 84.8307 218.954 84.8828 219.176C83.6328 219.124 82.4479 218.805 81.3281 218.219C80.2474 217.672 79.3164 216.923 78.5352 215.973C78.2617 216.441 78.125 216.956 78.125 217.516C78.125 218.036 78.2487 218.525 78.4961 218.98C78.7435 219.436 79.0755 219.801 79.4922 220.074C78.9974 220.061 78.5352 219.931 78.1055 219.684V219.723C78.1055 220.465 78.3398 221.122 78.8086 221.695C79.2773 222.255 79.8633 222.607 80.5664 222.75C80.306 222.815 80.0391 222.848 79.7656 222.848C79.5703 222.848 79.375 222.835 79.1797 222.809C79.375 223.421 79.7331 223.928 80.2539 224.332C80.7878 224.723 81.3867 224.924 82.0508 224.938C81.5169 225.354 80.9245 225.68 80.2734 225.914C79.6224 226.148 78.9453 226.266 78.2422 226.266C77.9948 226.253 77.7474 226.233 77.5 226.207C78.1901 226.65 78.9323 226.988 79.7266 227.223C80.5339 227.47 81.3607 227.594 82.207 227.594C83.5742 227.594 84.8307 227.327 85.9766 226.793C87.0182 226.311 87.9297 225.628 88.7109 224.742C89.4401 223.922 90.0065 222.984 90.4102 221.93C90.7878 220.901 90.9766 219.872 90.9766 218.844L90.957 218.434C91.569 218.004 92.0833 217.477 92.5 216.852Z" fill="#0A0A0B"/>
<circle cx="25" cy="221" r="25" fill="white"/>
<path d="M27.0312 212.75C25.7682 212.75 24.8112 213.089 24.1602 213.766C23.4701 214.482 23.125 215.562 23.125 217.008V219.625H20V222.75H23.125V230.25H26.25V222.75H28.75L29.375 219.625H26.25V217.535C26.25 216.962 26.3542 216.546 26.5625 216.285C26.7839 216.012 27.1484 215.875 27.6562 215.875H29.375V212.887C28.737 212.796 27.9557 212.75 27.0312 212.75Z" fill="#0A0A0B"/>
<path d="M2.82031 79.5459V83.999H1.32031V72.624H5.51562C6.76042 72.624 7.73438 72.9417 8.4375 73.5771C9.14583 74.2126 9.5 75.0537 9.5 76.1006C9.5 77.2048 9.15365 78.0563 8.46094 78.6553C7.77344 79.249 6.78646 79.5459 5.5 79.5459H2.82031ZM2.82031 78.3193H5.51562C6.31771 78.3193 6.93229 78.1318 7.35938 77.7568C7.78646 77.3766 8 76.8298 8 76.1162C8 75.4391 7.78646 74.8975 7.35938 74.4912C6.93229 74.085 6.34635 73.874 5.60156 73.8584H2.82031V78.3193ZM15.2734 76.8428C15.0547 76.8063 14.8177 76.7881 14.5625 76.7881C13.6146 76.7881 12.9714 77.1917 12.6328 77.999V83.999H11.1875V75.5459H12.5938L12.6172 76.5225C13.0911 75.7673 13.763 75.3896 14.6328 75.3896C14.9141 75.3896 15.1276 75.4261 15.2734 75.499V76.8428ZM21.5156 83.999C21.4323 83.8324 21.3646 83.5355 21.3125 83.1084C20.6406 83.8063 19.8385 84.1553 18.9062 84.1553C18.0729 84.1553 17.388 83.9209 16.8516 83.4521C16.3203 82.9782 16.0547 82.3792 16.0547 81.6553C16.0547 80.7751 16.388 80.0928 17.0547 79.6084C17.7266 79.1188 18.6693 78.874 19.8828 78.874H21.2891V78.21C21.2891 77.7048 21.138 77.3037 20.8359 77.0068C20.5339 76.7048 20.0885 76.5537 19.5 76.5537C18.9844 76.5537 18.5521 76.6839 18.2031 76.9443C17.8542 77.2048 17.6797 77.5199 17.6797 77.8896H16.2266C16.2266 77.4678 16.375 77.0615 16.6719 76.6709C16.974 76.2751 17.3802 75.9626 17.8906 75.7334C18.4062 75.5042 18.9714 75.3896 19.5859 75.3896C20.5599 75.3896 21.3229 75.6344 21.875 76.124C22.4271 76.6084 22.7135 77.2777 22.7344 78.1318V82.0225C22.7344 82.7985 22.8333 83.4157 23.0312 83.874V83.999H21.5156ZM19.1172 82.8975C19.5703 82.8975 20 82.7803 20.4062 82.5459C20.8125 82.3115 21.1068 82.0068 21.2891 81.6318V79.8975H20.1562C18.3854 79.8975 17.5 80.4157 17.5 81.4521C17.5 81.9053 17.651 82.2594 17.9531 82.5146C18.2552 82.7699 18.6432 82.8975 19.1172 82.8975ZM28.5078 84.1553C27.362 84.1553 26.4297 83.7803 25.7109 83.0303C24.9922 82.2751 24.6328 81.2673 24.6328 80.0068V79.7412C24.6328 78.9027 24.7917 78.1553 25.1094 77.499C25.4323 76.8376 25.8802 76.3219 26.4531 75.9521C27.0312 75.5771 27.6562 75.3896 28.3281 75.3896C29.4271 75.3896 30.2812 75.7516 30.8906 76.4756C31.5 77.1995 31.8047 78.236 31.8047 79.585V80.1865H26.0781C26.099 81.0199 26.3411 81.6943 26.8047 82.21C27.2734 82.7204 27.8672 82.9756 28.5859 82.9756C29.0964 82.9756 29.5286 82.8714 29.8828 82.6631C30.237 82.4548 30.5469 82.1787 30.8125 81.835L31.6953 82.5225C30.987 83.611 29.9245 84.1553 28.5078 84.1553ZM28.3281 76.5771C27.7448 76.5771 27.2552 76.7907 26.8594 77.2178C26.4635 77.6396 26.2188 78.2334 26.125 78.999H30.3594V78.8896C30.3177 78.1553 30.1198 77.5876 29.7656 77.1865C29.4115 76.7803 28.9323 76.5771 28.3281 76.5771ZM38.4062 81.7568C38.4062 81.3662 38.2578 81.0641 37.9609 80.8506C37.6693 80.6318 37.1562 80.4443 36.4219 80.2881C35.6927 80.1318 35.112 79.9443 34.6797 79.7256C34.2526 79.5068 33.9349 79.2464 33.7266 78.9443C33.5234 78.6423 33.4219 78.2829 33.4219 77.8662C33.4219 77.1735 33.7135 76.5876 34.2969 76.1084C34.8854 75.6292 35.6354 75.3896 36.5469 75.3896C37.5052 75.3896 38.2812 75.637 38.875 76.1318C39.474 76.6266 39.7734 77.2594 39.7734 78.0303H38.3203C38.3203 77.6344 38.151 77.2933 37.8125 77.0068C37.4792 76.7204 37.0573 76.5771 36.5469 76.5771C36.0208 76.5771 35.6094 76.6917 35.3125 76.9209C35.0156 77.1501 34.8672 77.4495 34.8672 77.8193C34.8672 78.1683 35.0052 78.4313 35.2812 78.6084C35.5573 78.7855 36.0547 78.9548 36.7734 79.1162C37.4974 79.2777 38.0833 79.4704 38.5312 79.6943C38.9792 79.9183 39.3099 80.1891 39.5234 80.5068C39.7422 80.8193 39.8516 81.2021 39.8516 81.6553C39.8516 82.4105 39.5495 83.0173 38.9453 83.4756C38.3411 83.9287 37.5573 84.1553 36.5938 84.1553C35.9167 84.1553 35.3177 84.0355 34.7969 83.7959C34.276 83.5563 33.8672 83.223 33.5703 82.7959C33.2786 82.3636 33.1328 81.8975 33.1328 81.3975H34.5781C34.6042 81.8818 34.7969 82.2673 35.1562 82.5537C35.5208 82.835 36 82.9756 36.5938 82.9756C37.1406 82.9756 37.5781 82.8662 37.9062 82.6475C38.2396 82.4235 38.4062 82.1266 38.4062 81.7568ZM45.2422 84.1553C44.0964 84.1553 43.1641 83.7803 42.4453 83.0303C41.7266 82.2751 41.3672 81.2673 41.3672 80.0068V79.7412C41.3672 78.9027 41.526 78.1553 41.8438 77.499C42.1667 76.8376 42.6146 76.3219 43.1875 75.9521C43.7656 75.5771 44.3906 75.3896 45.0625 75.3896C46.1615 75.3896 47.0156 75.7516 47.625 76.4756C48.2344 77.1995 48.5391 78.236 48.5391 79.585V80.1865H42.8125C42.8333 81.0199 43.0755 81.6943 43.5391 82.21C44.0078 82.7204 44.6016 82.9756 45.3203 82.9756C45.8307 82.9756 46.263 82.8714 46.6172 82.6631C46.9714 82.4548 47.2812 82.1787 47.5469 81.835L48.4297 82.5225C47.7214 83.611 46.6589 84.1553 45.2422 84.1553ZM45.0625 76.5771C44.4792 76.5771 43.9896 76.7907 43.5938 77.2178C43.1979 77.6396 42.9531 78.2334 42.8594 78.999H47.0938V78.8896C47.0521 78.1553 46.8542 77.5876 46.5 77.1865C46.1458 76.7803 45.6667 76.5771 45.0625 76.5771ZM51.5859 75.5459L51.6328 76.6084C52.2786 75.7959 53.1224 75.3896 54.1641 75.3896C55.9505 75.3896 56.8516 76.3975 56.8672 78.4131V83.999H55.4219V78.4053C55.4167 77.7959 55.276 77.3454 55 77.0537C54.7292 76.762 54.3047 76.6162 53.7266 76.6162C53.2578 76.6162 52.8464 76.7412 52.4922 76.9912C52.138 77.2412 51.862 77.5693 51.6641 77.9756V83.999H50.2188V75.5459H51.5859ZM61.0078 73.499V75.5459H62.5859V76.6631H61.0078V81.9053C61.0078 82.2438 61.0781 82.499 61.2188 82.6709C61.3594 82.8376 61.599 82.9209 61.9375 82.9209C62.1042 82.9209 62.3333 82.8896 62.625 82.8271V83.999C62.2448 84.1032 61.875 84.1553 61.5156 84.1553C60.8698 84.1553 60.3828 83.96 60.0547 83.5693C59.7266 83.1787 59.5625 82.624 59.5625 81.9053V76.6631H58.0234V75.5459H59.5625V73.499H61.0078ZM71.7578 84.1553C70.612 84.1553 69.6797 83.7803 68.9609 83.0303C68.2422 82.2751 67.8828 81.2673 67.8828 80.0068V79.7412C67.8828 78.9027 68.0417 78.1553 68.3594 77.499C68.6823 76.8376 69.1302 76.3219 69.7031 75.9521C70.2812 75.5771 70.9062 75.3896 71.5781 75.3896C72.6771 75.3896 73.5312 75.7516 74.1406 76.4756C74.75 77.1995 75.0547 78.236 75.0547 79.585V80.1865H69.3281C69.349 81.0199 69.5911 81.6943 70.0547 82.21C70.5234 82.7204 71.1172 82.9756 71.8359 82.9756C72.3464 82.9756 72.7786 82.8714 73.1328 82.6631C73.487 82.4548 73.7969 82.1787 74.0625 81.835L74.9453 82.5225C74.237 83.611 73.1745 84.1553 71.7578 84.1553ZM71.5781 76.5771C70.9948 76.5771 70.5052 76.7907 70.1094 77.2178C69.7135 77.6396 69.4688 78.2334 69.375 78.999H73.6094V78.8896C73.5677 78.1553 73.3698 77.5876 73.0156 77.1865C72.6615 76.7803 72.1823 76.5771 71.5781 76.5771ZM78.3047 83.999H76.8594V71.999H78.3047V83.999ZM84.1328 84.1553C82.987 84.1553 82.0547 83.7803 81.3359 83.0303C80.6172 82.2751 80.2578 81.2673 80.2578 80.0068V79.7412C80.2578 78.9027 80.4167 78.1553 80.7344 77.499C81.0573 76.8376 81.5052 76.3219 82.0781 75.9521C82.6562 75.5771 83.2812 75.3896 83.9531 75.3896C85.0521 75.3896 85.9062 75.7516 86.5156 76.4756C87.125 77.1995 87.4297 78.236 87.4297 79.585V80.1865H81.7031C81.724 81.0199 81.9661 81.6943 82.4297 82.21C82.8984 82.7204 83.4922 82.9756 84.2109 82.9756C84.7214 82.9756 85.1536 82.8714 85.5078 82.6631C85.862 82.4548 86.1719 82.1787 86.4375 81.835L87.3203 82.5225C86.612 83.611 85.5495 84.1553 84.1328 84.1553ZM83.9531 76.5771C83.3698 76.5771 82.8802 76.7907 82.4844 77.2178C82.0885 77.6396 81.8438 78.2334 81.75 78.999H85.9844V78.8896C85.9427 78.1553 85.7448 77.5876 85.3906 77.1865C85.0365 76.7803 84.5573 76.5771 83.9531 76.5771ZM90.6797 83.999H89.2344V75.5459H90.6797V83.999ZM89.1172 73.3037C89.1172 73.0693 89.1875 72.8714 89.3281 72.71C89.474 72.5485 89.6875 72.4678 89.9688 72.4678C90.25 72.4678 90.4635 72.5485 90.6094 72.71C90.7552 72.8714 90.8281 73.0693 90.8281 73.3037C90.8281 73.5381 90.7552 73.7334 90.6094 73.8896C90.4635 74.0459 90.25 74.124 89.9688 74.124C89.6875 74.124 89.474 74.0459 89.3281 73.8896C89.1875 73.7334 89.1172 73.5381 89.1172 73.3037ZM93.7109 83.999V76.6631H92.375V75.5459H93.7109V74.6787C93.7109 73.7725 93.9531 73.0719 94.4375 72.5771C94.9219 72.0824 95.6068 71.835 96.4922 71.835C96.8255 71.835 97.1562 71.8792 97.4844 71.9678L97.4062 73.1396C97.1615 73.0928 96.901 73.0693 96.625 73.0693C96.1562 73.0693 95.7943 73.2074 95.5391 73.4834C95.2839 73.7542 95.1562 74.1449 95.1562 74.6553V75.5459H96.9609V76.6631H95.1562V83.999H93.7109ZM101.883 84.1553C100.737 84.1553 99.8047 83.7803 99.0859 83.0303C98.3672 82.2751 98.0078 81.2673 98.0078 80.0068V79.7412C98.0078 78.9027 98.1667 78.1553 98.4844 77.499C98.8073 76.8376 99.2552 76.3219 99.8281 75.9521C100.406 75.5771 101.031 75.3896 101.703 75.3896C102.802 75.3896 103.656 75.7516 104.266 76.4756C104.875 77.1995 105.18 78.236 105.18 79.585V80.1865H99.4531C99.474 81.0199 99.7161 81.6943 100.18 82.21C100.648 82.7204 101.242 82.9756 101.961 82.9756C102.471 82.9756 102.904 82.8714 103.258 82.6631C103.612 82.4548 103.922 82.1787 104.188 81.835L105.07 82.5225C104.362 83.611 103.299 84.1553 101.883 84.1553ZM101.703 76.5771C101.12 76.5771 100.63 76.7907 100.234 77.2178C99.8385 77.6396 99.5938 78.2334 99.5 78.999H103.734V78.8896C103.693 78.1553 103.495 77.5876 103.141 77.1865C102.786 76.7803 102.307 76.5771 101.703 76.5771ZM108.227 75.5459L108.273 76.6084C108.919 75.7959 109.763 75.3896 110.805 75.3896C112.591 75.3896 113.492 76.3975 113.508 78.4131V83.999H112.062V78.4053C112.057 77.7959 111.917 77.3454 111.641 77.0537C111.37 76.762 110.945 76.6162 110.367 76.6162C109.898 76.6162 109.487 76.7412 109.133 76.9912C108.779 77.2412 108.503 77.5693 108.305 77.9756V83.999H106.859V75.5459H108.227ZM115.336 79.7021C115.336 78.4053 115.643 77.3636 116.258 76.5771C116.872 75.7855 117.677 75.3896 118.672 75.3896C119.661 75.3896 120.445 75.7282 121.023 76.4053V71.999H122.469V83.999H121.141L121.07 83.0928C120.492 83.8011 119.688 84.1553 118.656 84.1553C117.677 84.1553 116.878 83.7542 116.258 82.9521C115.643 82.1501 115.336 81.1032 115.336 79.8115V79.7021ZM116.781 79.8662C116.781 80.8245 116.979 81.5745 117.375 82.1162C117.771 82.6579 118.318 82.9287 119.016 82.9287C119.932 82.9287 120.602 82.5173 121.023 81.6943V77.8115C120.591 77.0146 119.927 76.6162 119.031 76.6162C118.323 76.6162 117.771 76.8896 117.375 77.4365C116.979 77.9834 116.781 78.7933 116.781 79.8662ZM130.258 83.999H128.812V71.999H130.258V83.999ZM132.195 79.6943C132.195 78.8662 132.357 78.1214 132.68 77.46C133.008 76.7985 133.461 76.2881 134.039 75.9287C134.622 75.5693 135.286 75.3896 136.031 75.3896C137.182 75.3896 138.112 75.7881 138.82 76.585C139.534 77.3818 139.891 78.4417 139.891 79.7646V79.8662C139.891 80.6891 139.732 81.4287 139.414 82.085C139.102 82.736 138.651 83.2438 138.062 83.6084C137.479 83.973 136.807 84.1553 136.047 84.1553C134.901 84.1553 133.971 83.7568 133.258 82.96C132.549 82.1631 132.195 81.1084 132.195 79.7959V79.6943ZM133.648 79.8662C133.648 80.8037 133.865 81.5563 134.297 82.124C134.734 82.6917 135.318 82.9756 136.047 82.9756C136.781 82.9756 137.365 82.6891 137.797 82.1162C138.229 81.5381 138.445 80.7308 138.445 79.6943C138.445 78.7673 138.224 78.0173 137.781 77.4443C137.344 76.8662 136.76 76.5771 136.031 76.5771C135.318 76.5771 134.742 76.861 134.305 77.4287C133.867 77.9964 133.648 78.8089 133.648 79.8662ZM148.859 79.8662C148.859 81.1579 148.562 82.1969 147.969 82.9834C147.375 83.7646 146.578 84.1553 145.578 84.1553C144.51 84.1553 143.685 83.7777 143.102 83.0225L143.031 83.999H141.703V71.999H143.148V76.4756C143.732 75.7516 144.536 75.3896 145.562 75.3896C146.589 75.3896 147.393 75.7777 147.977 76.5537C148.565 77.3298 148.859 78.3923 148.859 79.7412V79.8662ZM147.414 79.7021C147.414 78.7178 147.224 77.9574 146.844 77.4209C146.464 76.8844 145.917 76.6162 145.203 76.6162C144.25 76.6162 143.565 77.0589 143.148 77.9443V81.6006C143.591 82.486 144.281 82.9287 145.219 82.9287C145.911 82.9287 146.451 82.6605 146.836 82.124C147.221 81.5876 147.414 80.7803 147.414 79.7021ZM150.305 79.6943C150.305 78.8662 150.466 78.1214 150.789 77.46C151.117 76.7985 151.57 76.2881 152.148 75.9287C152.732 75.5693 153.396 75.3896 154.141 75.3896C155.292 75.3896 156.221 75.7881 156.93 76.585C157.643 77.3818 158 78.4417 158 79.7646V79.8662C158 80.6891 157.841 81.4287 157.523 82.085C157.211 82.736 156.76 83.2438 156.172 83.6084C155.589 83.973 154.917 84.1553 154.156 84.1553C153.01 84.1553 152.081 83.7568 151.367 82.96C150.659 82.1631 150.305 81.1084 150.305 79.7959V79.6943ZM151.758 79.8662C151.758 80.8037 151.974 81.5563 152.406 82.124C152.844 82.6917 153.427 82.9756 154.156 82.9756C154.891 82.9756 155.474 82.6891 155.906 82.1162C156.339 81.5381 156.555 80.7308 156.555 79.6943C156.555 78.7673 156.333 78.0173 155.891 77.4443C155.453 76.8662 154.87 76.5771 154.141 76.5771C153.427 76.5771 152.852 76.861 152.414 77.4287C151.977 77.9964 151.758 78.8089 151.758 79.8662ZM163.898 76.8428C163.68 76.8063 163.443 76.7881 163.188 76.7881C162.24 76.7881 161.596 77.1917 161.258 77.999V83.999H159.812V75.5459H161.219L161.242 76.5225C161.716 75.7673 162.388 75.3896 163.258 75.3896C163.539 75.3896 163.753 75.4261 163.898 75.499V76.8428ZM167.586 73.499V75.5459H169.164V76.6631H167.586V81.9053C167.586 82.2438 167.656 82.499 167.797 82.6709C167.938 82.8376 168.177 82.9209 168.516 82.9209C168.682 82.9209 168.911 82.8896 169.203 82.8271V83.999C168.823 84.1032 168.453 84.1553 168.094 84.1553C167.448 84.1553 166.961 83.96 166.633 83.5693C166.305 83.1787 166.141 82.624 166.141 81.9053V76.6631H164.602V75.5459H166.141V73.499H167.586ZM172.43 83.999H170.984V75.5459H172.43V83.999ZM170.867 73.3037C170.867 73.0693 170.938 72.8714 171.078 72.71C171.224 72.5485 171.438 72.4678 171.719 72.4678C172 72.4678 172.214 72.5485 172.359 72.71C172.505 72.8714 172.578 73.0693 172.578 73.3037C172.578 73.5381 172.505 73.7334 172.359 73.8896C172.214 74.0459 172 74.124 171.719 74.124C171.438 74.124 171.224 74.0459 171.078 73.8896C170.938 73.7334 170.867 73.5381 170.867 73.3037ZM179.672 81.7568C179.672 81.3662 179.523 81.0641 179.227 80.8506C178.935 80.6318 178.422 80.4443 177.688 80.2881C176.958 80.1318 176.378 79.9443 175.945 79.7256C175.518 79.5068 175.201 79.2464 174.992 78.9443C174.789 78.6423 174.688 78.2829 174.688 77.8662C174.688 77.1735 174.979 76.5876 175.562 76.1084C176.151 75.6292 176.901 75.3896 177.812 75.3896C178.771 75.3896 179.547 75.637 180.141 76.1318C180.74 76.6266 181.039 77.2594 181.039 78.0303H179.586C179.586 77.6344 179.417 77.2933 179.078 77.0068C178.745 76.7204 178.323 76.5771 177.812 76.5771C177.286 76.5771 176.875 76.6917 176.578 76.9209C176.281 77.1501 176.133 77.4495 176.133 77.8193C176.133 78.1683 176.271 78.4313 176.547 78.6084C176.823 78.7855 177.32 78.9548 178.039 79.1162C178.763 79.2777 179.349 79.4704 179.797 79.6943C180.245 79.9183 180.576 80.1891 180.789 80.5068C181.008 80.8193 181.117 81.2021 181.117 81.6553C181.117 82.4105 180.815 83.0173 180.211 83.4756C179.607 83.9287 178.823 84.1553 177.859 84.1553C177.182 84.1553 176.583 84.0355 176.062 83.7959C175.542 83.5563 175.133 83.223 174.836 82.7959C174.544 82.3636 174.398 81.8975 174.398 81.3975H175.844C175.87 81.8818 176.062 82.2673 176.422 82.5537C176.786 82.835 177.266 82.9756 177.859 82.9756C178.406 82.9756 178.844 82.8662 179.172 82.6475C179.505 82.4235 179.672 82.1266 179.672 81.7568ZM189.758 82.0381L191.852 75.5459H193.328L190.297 83.999H189.195L186.133 75.5459H187.609L189.758 82.0381ZM198.117 84.1553C196.971 84.1553 196.039 83.7803 195.32 83.0303C194.602 82.2751 194.242 81.2673 194.242 80.0068V79.7412C194.242 78.9027 194.401 78.1553 194.719 77.499C195.042 76.8376 195.49 76.3219 196.062 75.9521C196.641 75.5771 197.266 75.3896 197.938 75.3896C199.036 75.3896 199.891 75.7516 200.5 76.4756C201.109 77.1995 201.414 78.236 201.414 79.585V80.1865H195.688C195.708 81.0199 195.951 81.6943 196.414 82.21C196.883 82.7204 197.477 82.9756 198.195 82.9756C198.706 82.9756 199.138 82.8714 199.492 82.6631C199.846 82.4548 200.156 82.1787 200.422 81.835L201.305 82.5225C200.596 83.611 199.534 84.1553 198.117 84.1553ZM197.938 76.5771C197.354 76.5771 196.865 76.7907 196.469 77.2178C196.073 77.6396 195.828 78.2334 195.734 78.999H199.969V78.8896C199.927 78.1553 199.729 77.5876 199.375 77.1865C199.021 76.7803 198.542 76.5771 197.938 76.5771ZM204.539 76.5693C205.18 75.7829 206.013 75.3896 207.039 75.3896C208.826 75.3896 209.727 76.3975 209.742 78.4131V83.999H208.297V78.4053C208.292 77.7959 208.151 77.3454 207.875 77.0537C207.604 76.762 207.18 76.6162 206.602 76.6162C206.133 76.6162 205.721 76.7412 205.367 76.9912C205.013 77.2412 204.737 77.5693 204.539 77.9756V83.999H203.094V71.999H204.539V76.5693ZM213.477 83.999H212.031V75.5459H213.477V83.999ZM211.914 73.3037C211.914 73.0693 211.984 72.8714 212.125 72.71C212.271 72.5485 212.484 72.4678 212.766 72.4678C213.047 72.4678 213.26 72.5485 213.406 72.71C213.552 72.8714 213.625 73.0693 213.625 73.3037C213.625 73.5381 213.552 73.7334 213.406 73.8896C213.26 74.0459 213.047 74.124 212.766 74.124C212.484 74.124 212.271 74.0459 212.125 73.8896C211.984 73.7334 211.914 73.5381 211.914 73.3037ZM219.188 82.9756C219.703 82.9756 220.154 82.8193 220.539 82.5068C220.924 82.1943 221.138 81.8037 221.18 81.335H222.547C222.521 81.8193 222.354 82.2803 222.047 82.7178C221.74 83.1553 221.328 83.5042 220.812 83.7646C220.302 84.0251 219.76 84.1553 219.188 84.1553C218.036 84.1553 217.12 83.7725 216.438 83.0068C215.76 82.236 215.422 81.1839 215.422 79.8506V79.6084C215.422 78.7855 215.573 78.0537 215.875 77.4131C216.177 76.7725 216.609 76.2751 217.172 75.9209C217.74 75.5667 218.409 75.3896 219.18 75.3896C220.128 75.3896 220.914 75.6735 221.539 76.2412C222.169 76.8089 222.505 77.5459 222.547 78.4521H221.18C221.138 77.9053 220.93 77.4574 220.555 77.1084C220.185 76.7542 219.727 76.5771 219.18 76.5771C218.445 76.5771 217.875 76.8428 217.469 77.374C217.068 77.9001 216.867 78.6631 216.867 79.6631V79.9365C216.867 80.9105 217.068 81.6605 217.469 82.1865C217.87 82.7126 218.443 82.9756 219.188 82.9756ZM229.391 83.1631C228.828 83.8245 228.003 84.1553 226.914 84.1553C226.013 84.1553 225.326 83.8949 224.852 83.374C224.383 82.848 224.146 82.0719 224.141 81.0459V75.5459H225.586V81.0068C225.586 82.2881 226.107 82.9287 227.148 82.9287C228.253 82.9287 228.987 82.5173 229.352 81.6943V75.5459H230.797V83.999H229.422L229.391 83.1631ZM234.57 83.999H233.125V71.999H234.57V83.999ZM242.109 83.999C242.026 83.8324 241.958 83.5355 241.906 83.1084C241.234 83.8063 240.432 84.1553 239.5 84.1553C238.667 84.1553 237.982 83.9209 237.445 83.4521C236.914 82.9782 236.648 82.3792 236.648 81.6553C236.648 80.7751 236.982 80.0928 237.648 79.6084C238.32 79.1188 239.263 78.874 240.477 78.874H241.883V78.21C241.883 77.7048 241.732 77.3037 241.43 77.0068C241.128 76.7048 240.682 76.5537 240.094 76.5537C239.578 76.5537 239.146 76.6839 238.797 76.9443C238.448 77.2048 238.273 77.5199 238.273 77.8896H236.82C236.82 77.4678 236.969 77.0615 237.266 76.6709C237.568 76.2751 237.974 75.9626 238.484 75.7334C239 75.5042 239.565 75.3896 240.18 75.3896C241.154 75.3896 241.917 75.6344 242.469 76.124C243.021 76.6084 243.307 77.2777 243.328 78.1318V82.0225C243.328 82.7985 243.427 83.4157 243.625 83.874V83.999H242.109ZM239.711 82.8975C240.164 82.8975 240.594 82.7803 241 82.5459C241.406 82.3115 241.701 82.0068 241.883 81.6318V79.8975H240.75C238.979 79.8975 238.094 80.4157 238.094 81.4521C238.094 81.9053 238.245 82.2594 238.547 82.5146C238.849 82.7699 239.237 82.8975 239.711 82.8975ZM245.625 83.2412C245.625 82.9912 245.698 82.7829 245.844 82.6162C245.995 82.4495 246.219 82.3662 246.516 82.3662C246.812 82.3662 247.036 82.4495 247.188 82.6162C247.344 82.7829 247.422 82.9912 247.422 83.2412C247.422 83.4808 247.344 83.6813 247.188 83.8428C247.036 84.0042 246.812 84.085 246.516 84.085C246.219 84.085 245.995 84.0042 245.844 83.8428C245.698 83.6813 245.625 83.4808 245.625 83.2412ZM10.0625 109.999H8.55469L2.82812 101.233V109.999H1.32031V98.624H2.82812L8.57031 107.429V98.624H10.0625V109.999ZM17.7188 109.163C17.1562 109.825 16.3307 110.155 15.2422 110.155C14.3411 110.155 13.6536 109.895 13.1797 109.374C12.7109 108.848 12.474 108.072 12.4688 107.046V101.546H13.9141V107.007C13.9141 108.288 14.4349 108.929 15.4766 108.929C16.5807 108.929 17.3151 108.517 17.6797 107.694V101.546H19.125V109.999H17.75L17.7188 109.163ZM22.6953 101.546L22.7422 102.608C23.388 101.796 24.2318 101.39 25.2734 101.39C27.0599 101.39 27.9609 102.397 27.9766 104.413V109.999H26.5312V104.405C26.526 103.796 26.3854 103.345 26.1094 103.054C25.8385 102.762 25.4141 102.616 24.8359 102.616C24.3672 102.616 23.9557 102.741 23.6016 102.991C23.2474 103.241 22.9714 103.569 22.7734 103.976V109.999H21.3281V101.546H22.6953ZM33.5469 108.976C34.0625 108.976 34.513 108.819 34.8984 108.507C35.2839 108.194 35.4974 107.804 35.5391 107.335H36.9062C36.8802 107.819 36.7135 108.28 36.4062 108.718C36.099 109.155 35.6875 109.504 35.1719 109.765C34.6615 110.025 34.1198 110.155 33.5469 110.155C32.3958 110.155 31.4792 109.772 30.7969 109.007C30.1198 108.236 29.7812 107.184 29.7812 105.851V105.608C29.7812 104.785 29.9323 104.054 30.2344 103.413C30.5365 102.772 30.9688 102.275 31.5312 101.921C32.099 101.567 32.7682 101.39 33.5391 101.39C34.487 101.39 35.2734 101.674 35.8984 102.241C36.5286 102.809 36.8646 103.546 36.9062 104.452H35.5391C35.4974 103.905 35.2891 103.457 34.9141 103.108C34.5443 102.754 34.0859 102.577 33.5391 102.577C32.8047 102.577 32.2344 102.843 31.8281 103.374C31.4271 103.9 31.2266 104.663 31.2266 105.663V105.937C31.2266 106.91 31.4271 107.66 31.8281 108.187C32.2292 108.713 32.8021 108.976 33.5469 108.976ZM47.7188 109.999C47.6354 109.832 47.5677 109.535 47.5156 109.108C46.8438 109.806 46.0417 110.155 45.1094 110.155C44.276 110.155 43.5911 109.921 43.0547 109.452C42.5234 108.978 42.2578 108.379 42.2578 107.655C42.2578 106.775 42.5911 106.093 43.2578 105.608C43.9297 105.119 44.8724 104.874 46.0859 104.874H47.4922V104.21C47.4922 103.705 47.3411 103.304 47.0391 103.007C46.737 102.705 46.2917 102.554 45.7031 102.554C45.1875 102.554 44.7552 102.684 44.4062 102.944C44.0573 103.205 43.8828 103.52 43.8828 103.89H42.4297C42.4297 103.468 42.5781 103.062 42.875 102.671C43.1771 102.275 43.5833 101.963 44.0938 101.733C44.6094 101.504 45.1745 101.39 45.7891 101.39C46.763 101.39 47.526 101.634 48.0781 102.124C48.6302 102.608 48.9167 103.278 48.9375 104.132V108.022C48.9375 108.799 49.0365 109.416 49.2344 109.874V109.999H47.7188ZM45.3203 108.897C45.7734 108.897 46.2031 108.78 46.6094 108.546C47.0156 108.312 47.3099 108.007 47.4922 107.632V105.897H46.3594C44.5885 105.897 43.7031 106.416 43.7031 107.452C43.7031 107.905 43.8542 108.259 44.1562 108.515C44.4583 108.77 44.8464 108.897 45.3203 108.897ZM56.6641 101.546V110.976C56.6641 112.601 55.9271 113.413 54.4531 113.413C54.1354 113.413 53.8411 113.366 53.5703 113.272V112.116C53.737 112.158 53.9557 112.179 54.2266 112.179C54.5495 112.179 54.7943 112.09 54.9609 111.913C55.1328 111.741 55.2188 111.439 55.2188 111.007V101.546H56.6641ZM55.0703 99.3037C55.0703 99.0745 55.1406 98.8792 55.2812 98.7178C55.4271 98.5511 55.638 98.4678 55.9141 98.4678C56.1953 98.4678 56.4089 98.5485 56.5547 98.71C56.7005 98.8714 56.7734 99.0693 56.7734 99.3037C56.7734 99.5381 56.7005 99.7334 56.5547 99.8896C56.4089 100.046 56.1953 100.124 55.9141 100.124C55.6328 100.124 55.4219 100.046 55.2812 99.8896C55.1406 99.7334 55.0703 99.5381 55.0703 99.3037ZM64.2188 109.163C63.6562 109.825 62.8307 110.155 61.7422 110.155C60.8411 110.155 60.1536 109.895 59.6797 109.374C59.2109 108.848 58.974 108.072 58.9688 107.046V101.546H60.4141V107.007C60.4141 108.288 60.9349 108.929 61.9766 108.929C63.0807 108.929 63.8151 108.517 64.1797 107.694V101.546H65.625V109.999H64.25L64.2188 109.163ZM72.75 107.757C72.75 107.366 72.6016 107.064 72.3047 106.851C72.013 106.632 71.5 106.444 70.7656 106.288C70.0365 106.132 69.4557 105.944 69.0234 105.726C68.5964 105.507 68.2786 105.246 68.0703 104.944C67.8672 104.642 67.7656 104.283 67.7656 103.866C67.7656 103.174 68.0573 102.588 68.6406 102.108C69.2292 101.629 69.9792 101.39 70.8906 101.39C71.849 101.39 72.625 101.637 73.2188 102.132C73.8177 102.627 74.1172 103.259 74.1172 104.03H72.6641C72.6641 103.634 72.4948 103.293 72.1562 103.007C71.8229 102.72 71.401 102.577 70.8906 102.577C70.3646 102.577 69.9531 102.692 69.6562 102.921C69.3594 103.15 69.2109 103.45 69.2109 103.819C69.2109 104.168 69.349 104.431 69.625 104.608C69.901 104.785 70.3984 104.955 71.1172 105.116C71.8411 105.278 72.4271 105.47 72.875 105.694C73.3229 105.918 73.6536 106.189 73.8672 106.507C74.0859 106.819 74.1953 107.202 74.1953 107.655C74.1953 108.41 73.8932 109.017 73.2891 109.476C72.6849 109.929 71.901 110.155 70.9375 110.155C70.2604 110.155 69.6615 110.035 69.1406 109.796C68.6198 109.556 68.2109 109.223 67.9141 108.796C67.6224 108.364 67.4766 107.897 67.4766 107.397H68.9219C68.9479 107.882 69.1406 108.267 69.5 108.554C69.8646 108.835 70.3438 108.976 70.9375 108.976C71.4844 108.976 71.9219 108.866 72.25 108.647C72.5833 108.424 72.75 108.127 72.75 107.757ZM78.0391 99.499V101.546H79.6172V102.663H78.0391V107.905C78.0391 108.244 78.1094 108.499 78.25 108.671C78.3906 108.838 78.6302 108.921 78.9688 108.921C79.1354 108.921 79.3646 108.89 79.6562 108.827V109.999C79.276 110.103 78.9062 110.155 78.5469 110.155C77.901 110.155 77.4141 109.96 77.0859 109.569C76.7578 109.179 76.5938 108.624 76.5938 107.905V102.663H75.0547V101.546H76.5938V99.499H78.0391ZM80.7734 105.694C80.7734 104.866 80.9349 104.121 81.2578 103.46C81.5859 102.799 82.0391 102.288 82.6172 101.929C83.2005 101.569 83.8646 101.39 84.6094 101.39C85.7604 101.39 86.6901 101.788 87.3984 102.585C88.112 103.382 88.4688 104.442 88.4688 105.765V105.866C88.4688 106.689 88.3099 107.429 87.9922 108.085C87.6797 108.736 87.2292 109.244 86.6406 109.608C86.0573 109.973 85.3854 110.155 84.625 110.155C83.4792 110.155 82.5495 109.757 81.8359 108.96C81.1276 108.163 80.7734 107.108 80.7734 105.796V105.694ZM82.2266 105.866C82.2266 106.804 82.4427 107.556 82.875 108.124C83.3125 108.692 83.8958 108.976 84.625 108.976C85.3594 108.976 85.9427 108.689 86.375 108.116C86.8073 107.538 87.0234 106.731 87.0234 105.694C87.0234 104.767 86.8021 104.017 86.3594 103.444C85.9219 102.866 85.3385 102.577 84.6094 102.577C83.8958 102.577 83.3203 102.861 82.8828 103.429C82.4453 103.996 82.2266 104.809 82.2266 105.866ZM94.9609 109.999V102.663H93.625V101.546H94.9609V100.679C94.9609 99.7725 95.2031 99.0719 95.6875 98.5771C96.1719 98.0824 96.8568 97.835 97.7422 97.835C98.0755 97.835 98.4062 97.8792 98.7344 97.9678L98.6562 99.1396C98.4115 99.0928 98.151 99.0693 97.875 99.0693C97.4062 99.0693 97.0443 99.2074 96.7891 99.4834C96.5339 99.7542 96.4062 100.145 96.4062 100.655V101.546H98.2109V102.663H96.4062V109.999H94.9609ZM105.031 109.999C104.948 109.832 104.88 109.535 104.828 109.108C104.156 109.806 103.354 110.155 102.422 110.155C101.589 110.155 100.904 109.921 100.367 109.452C99.8359 108.978 99.5703 108.379 99.5703 107.655C99.5703 106.775 99.9036 106.093 100.57 105.608C101.242 105.119 102.185 104.874 103.398 104.874H104.805V104.21C104.805 103.705 104.654 103.304 104.352 103.007C104.049 102.705 103.604 102.554 103.016 102.554C102.5 102.554 102.068 102.684 101.719 102.944C101.37 103.205 101.195 103.52 101.195 103.89H99.7422C99.7422 103.468 99.8906 103.062 100.188 102.671C100.49 102.275 100.896 101.963 101.406 101.733C101.922 101.504 102.487 101.39 103.102 101.39C104.076 101.39 104.839 101.634 105.391 102.124C105.943 102.608 106.229 103.278 106.25 104.132V108.022C106.25 108.799 106.349 109.416 106.547 109.874V109.999H105.031ZM102.633 108.897C103.086 108.897 103.516 108.78 103.922 108.546C104.328 108.312 104.622 108.007 104.805 107.632V105.897H103.672C101.901 105.897 101.016 106.416 101.016 107.452C101.016 107.905 101.167 108.259 101.469 108.515C101.771 108.77 102.159 108.897 102.633 108.897ZM111.906 108.976C112.422 108.976 112.872 108.819 113.258 108.507C113.643 108.194 113.857 107.804 113.898 107.335H115.266C115.24 107.819 115.073 108.28 114.766 108.718C114.458 109.155 114.047 109.504 113.531 109.765C113.021 110.025 112.479 110.155 111.906 110.155C110.755 110.155 109.839 109.772 109.156 109.007C108.479 108.236 108.141 107.184 108.141 105.851V105.608C108.141 104.785 108.292 104.054 108.594 103.413C108.896 102.772 109.328 102.275 109.891 101.921C110.458 101.567 111.128 101.39 111.898 101.39C112.846 101.39 113.633 101.674 114.258 102.241C114.888 102.809 115.224 103.546 115.266 104.452H113.898C113.857 103.905 113.648 103.457 113.273 103.108C112.904 102.754 112.445 102.577 111.898 102.577C111.164 102.577 110.594 102.843 110.188 103.374C109.786 103.9 109.586 104.663 109.586 105.663V105.937C109.586 106.91 109.786 107.66 110.188 108.187C110.589 108.713 111.161 108.976 111.906 108.976ZM118.461 109.999H117.016V101.546H118.461V109.999ZM116.898 99.3037C116.898 99.0693 116.969 98.8714 117.109 98.71C117.255 98.5485 117.469 98.4678 117.75 98.4678C118.031 98.4678 118.245 98.5485 118.391 98.71C118.536 98.8714 118.609 99.0693 118.609 99.3037C118.609 99.5381 118.536 99.7334 118.391 99.8896C118.245 100.046 118.031 100.124 117.75 100.124C117.469 100.124 117.255 100.046 117.109 99.8896C116.969 99.7334 116.898 99.5381 116.898 99.3037ZM122.352 109.999H120.906V97.999H122.352V109.999ZM126.242 109.999H124.797V101.546H126.242V109.999ZM124.68 99.3037C124.68 99.0693 124.75 98.8714 124.891 98.71C125.036 98.5485 125.25 98.4678 125.531 98.4678C125.812 98.4678 126.026 98.5485 126.172 98.71C126.318 98.8714 126.391 99.0693 126.391 99.3037C126.391 99.5381 126.318 99.7334 126.172 99.8896C126.026 100.046 125.812 100.124 125.531 100.124C125.25 100.124 125.036 100.046 124.891 99.8896C124.75 99.7334 124.68 99.5381 124.68 99.3037ZM133.484 107.757C133.484 107.366 133.336 107.064 133.039 106.851C132.747 106.632 132.234 106.444 131.5 106.288C130.771 106.132 130.19 105.944 129.758 105.726C129.331 105.507 129.013 105.246 128.805 104.944C128.602 104.642 128.5 104.283 128.5 103.866C128.5 103.174 128.792 102.588 129.375 102.108C129.964 101.629 130.714 101.39 131.625 101.39C132.583 101.39 133.359 101.637 133.953 102.132C134.552 102.627 134.852 103.259 134.852 104.03H133.398C133.398 103.634 133.229 103.293 132.891 103.007C132.557 102.72 132.135 102.577 131.625 102.577C131.099 102.577 130.688 102.692 130.391 102.921C130.094 103.15 129.945 103.45 129.945 103.819C129.945 104.168 130.083 104.431 130.359 104.608C130.635 104.785 131.133 104.955 131.852 105.116C132.576 105.278 133.161 105.47 133.609 105.694C134.057 105.918 134.388 106.189 134.602 106.507C134.82 106.819 134.93 107.202 134.93 107.655C134.93 108.41 134.628 109.017 134.023 109.476C133.419 109.929 132.635 110.155 131.672 110.155C130.995 110.155 130.396 110.035 129.875 109.796C129.354 109.556 128.945 109.223 128.648 108.796C128.357 108.364 128.211 107.897 128.211 107.397H129.656C129.682 107.882 129.875 108.267 130.234 108.554C130.599 108.835 131.078 108.976 131.672 108.976C132.219 108.976 132.656 108.866 132.984 108.647C133.318 108.424 133.484 108.127 133.484 107.757ZM138.383 109.999H136.938V101.546H138.383V109.999ZM136.82 99.3037C136.82 99.0693 136.891 98.8714 137.031 98.71C137.177 98.5485 137.391 98.4678 137.672 98.4678C137.953 98.4678 138.167 98.5485 138.312 98.71C138.458 98.8714 138.531 99.0693 138.531 99.3037C138.531 99.5381 138.458 99.7334 138.312 99.8896C138.167 100.046 137.953 100.124 137.672 100.124C137.391 100.124 137.177 100.046 137.031 99.8896C136.891 99.7334 136.82 99.5381 136.82 99.3037ZM145.625 107.757C145.625 107.366 145.477 107.064 145.18 106.851C144.888 106.632 144.375 106.444 143.641 106.288C142.911 106.132 142.331 105.944 141.898 105.726C141.471 105.507 141.154 105.246 140.945 104.944C140.742 104.642 140.641 104.283 140.641 103.866C140.641 103.174 140.932 102.588 141.516 102.108C142.104 101.629 142.854 101.39 143.766 101.39C144.724 101.39 145.5 101.637 146.094 102.132C146.693 102.627 146.992 103.259 146.992 104.03H145.539C145.539 103.634 145.37 103.293 145.031 103.007C144.698 102.72 144.276 102.577 143.766 102.577C143.24 102.577 142.828 102.692 142.531 102.921C142.234 103.15 142.086 103.45 142.086 103.819C142.086 104.168 142.224 104.431 142.5 104.608C142.776 104.785 143.273 104.955 143.992 105.116C144.716 105.278 145.302 105.47 145.75 105.694C146.198 105.918 146.529 106.189 146.742 106.507C146.961 106.819 147.07 107.202 147.07 107.655C147.07 108.41 146.768 109.017 146.164 109.476C145.56 109.929 144.776 110.155 143.812 110.155C143.135 110.155 142.536 110.035 142.016 109.796C141.495 109.556 141.086 109.223 140.789 108.796C140.497 108.364 140.352 107.897 140.352 107.397H141.797C141.823 107.882 142.016 108.267 142.375 108.554C142.74 108.835 143.219 108.976 143.812 108.976C144.359 108.976 144.797 108.866 145.125 108.647C145.458 108.424 145.625 108.127 145.625 107.757ZM148.906 112.265L148.086 111.702C148.576 111.02 148.831 110.317 148.852 109.593V108.288H150.266V109.421C150.266 109.947 150.135 110.473 149.875 110.999C149.62 111.525 149.297 111.947 148.906 112.265ZM158.023 99.499V101.546H159.602V102.663H158.023V107.905C158.023 108.244 158.094 108.499 158.234 108.671C158.375 108.838 158.615 108.921 158.953 108.921C159.12 108.921 159.349 108.89 159.641 108.827V109.999C159.26 110.103 158.891 110.155 158.531 110.155C157.885 110.155 157.398 109.96 157.07 109.569C156.742 109.179 156.578 108.624 156.578 107.905V102.663H155.039V101.546H156.578V99.499H158.023ZM165.383 102.843C165.164 102.806 164.927 102.788 164.672 102.788C163.724 102.788 163.081 103.192 162.742 103.999V109.999H161.297V101.546H162.703L162.727 102.522C163.201 101.767 163.872 101.39 164.742 101.39C165.023 101.39 165.237 101.426 165.383 101.499V102.843ZM168.289 109.999H166.844V101.546H168.289V109.999ZM166.727 99.3037C166.727 99.0693 166.797 98.8714 166.938 98.71C167.083 98.5485 167.297 98.4678 167.578 98.4678C167.859 98.4678 168.073 98.5485 168.219 98.71C168.365 98.8714 168.438 99.0693 168.438 99.3037C168.438 99.5381 168.365 99.7334 168.219 99.8896C168.073 100.046 167.859 100.124 167.578 100.124C167.297 100.124 167.083 100.046 166.938 99.8896C166.797 99.7334 166.727 99.5381 166.727 99.3037ZM175.531 107.757C175.531 107.366 175.383 107.064 175.086 106.851C174.794 106.632 174.281 106.444 173.547 106.288C172.818 106.132 172.237 105.944 171.805 105.726C171.378 105.507 171.06 105.246 170.852 104.944C170.648 104.642 170.547 104.283 170.547 103.866C170.547 103.174 170.839 102.588 171.422 102.108C172.01 101.629 172.76 101.39 173.672 101.39C174.63 101.39 175.406 101.637 176 102.132C176.599 102.627 176.898 103.259 176.898 104.03H175.445C175.445 103.634 175.276 103.293 174.938 103.007C174.604 102.72 174.182 102.577 173.672 102.577C173.146 102.577 172.734 102.692 172.438 102.921C172.141 103.15 171.992 103.45 171.992 103.819C171.992 104.168 172.13 104.431 172.406 104.608C172.682 104.785 173.18 104.955 173.898 105.116C174.622 105.278 175.208 105.47 175.656 105.694C176.104 105.918 176.435 106.189 176.648 106.507C176.867 106.819 176.977 107.202 176.977 107.655C176.977 108.41 176.674 109.017 176.07 109.476C175.466 109.929 174.682 110.155 173.719 110.155C173.042 110.155 172.443 110.035 171.922 109.796C171.401 109.556 170.992 109.223 170.695 108.796C170.404 108.364 170.258 107.897 170.258 107.397H171.703C171.729 107.882 171.922 108.267 172.281 108.554C172.646 108.835 173.125 108.976 173.719 108.976C174.266 108.976 174.703 108.866 175.031 108.647C175.365 108.424 175.531 108.127 175.531 107.757ZM180.82 99.499V101.546H182.398V102.663H180.82V107.905C180.82 108.244 180.891 108.499 181.031 108.671C181.172 108.838 181.411 108.921 181.75 108.921C181.917 108.921 182.146 108.89 182.438 108.827V109.999C182.057 110.103 181.688 110.155 181.328 110.155C180.682 110.155 180.195 109.96 179.867 109.569C179.539 109.179 179.375 108.624 179.375 107.905V102.663H177.836V101.546H179.375V99.499H180.82ZM185.664 109.999H184.219V101.546H185.664V109.999ZM184.102 99.3037C184.102 99.0693 184.172 98.8714 184.312 98.71C184.458 98.5485 184.672 98.4678 184.953 98.4678C185.234 98.4678 185.448 98.5485 185.594 98.71C185.74 98.8714 185.812 99.0693 185.812 99.3037C185.812 99.5381 185.74 99.7334 185.594 99.8896C185.448 100.046 185.234 100.124 184.953 100.124C184.672 100.124 184.458 100.046 184.312 99.8896C184.172 99.7334 184.102 99.5381 184.102 99.3037ZM187.633 105.702C187.633 104.374 187.938 103.325 188.547 102.554C189.156 101.778 189.974 101.39 191 101.39C192 101.39 192.789 101.726 193.367 102.397L193.43 101.546H194.758V113.249H193.312V109.218C192.729 109.843 191.953 110.155 190.984 110.155C189.964 110.155 189.148 109.759 188.539 108.968C187.935 108.171 187.633 107.116 187.633 105.804V105.702ZM189.078 105.866C189.078 106.835 189.281 107.595 189.688 108.147C190.099 108.7 190.651 108.976 191.344 108.976C192.203 108.976 192.859 108.595 193.312 107.835V103.694C192.854 102.95 192.203 102.577 191.359 102.577C190.661 102.577 190.107 102.856 189.695 103.413C189.284 103.965 189.078 104.783 189.078 105.866ZM202.297 109.163C201.734 109.825 200.909 110.155 199.82 110.155C198.919 110.155 198.232 109.895 197.758 109.374C197.289 108.848 197.052 108.072 197.047 107.046V101.546H198.492V107.007C198.492 108.288 199.013 108.929 200.055 108.929C201.159 108.929 201.893 108.517 202.258 107.694V101.546H203.703V109.999H202.328L202.297 109.163ZM209.414 110.155C208.268 110.155 207.336 109.78 206.617 109.03C205.898 108.275 205.539 107.267 205.539 106.007V105.741C205.539 104.903 205.698 104.155 206.016 103.499C206.339 102.838 206.786 102.322 207.359 101.952C207.938 101.577 208.562 101.39 209.234 101.39C210.333 101.39 211.188 101.752 211.797 102.476C212.406 103.2 212.711 104.236 212.711 105.585V106.187H206.984C207.005 107.02 207.247 107.694 207.711 108.21C208.18 108.72 208.773 108.976 209.492 108.976C210.003 108.976 210.435 108.871 210.789 108.663C211.143 108.455 211.453 108.179 211.719 107.835L212.602 108.522C211.893 109.611 210.831 110.155 209.414 110.155ZM209.234 102.577C208.651 102.577 208.161 102.791 207.766 103.218C207.37 103.64 207.125 104.233 207.031 104.999H211.266V104.89C211.224 104.155 211.026 103.588 210.672 103.187C210.318 102.78 209.839 102.577 209.234 102.577ZM2.66406 135.999H1.21875V127.546H2.66406V135.999ZM1.10156 125.304C1.10156 125.069 1.17188 124.871 1.3125 124.71C1.45833 124.549 1.67188 124.468 1.95312 124.468C2.23438 124.468 2.44792 124.549 2.59375 124.71C2.73958 124.871 2.8125 125.069 2.8125 125.304C2.8125 125.538 2.73958 125.733 2.59375 125.89C2.44792 126.046 2.23438 126.124 1.95312 126.124C1.67188 126.124 1.45833 126.046 1.3125 125.89C1.17188 125.733 1.10156 125.538 1.10156 125.304ZM12.125 131.866C12.125 133.153 11.8307 134.189 11.2422 134.976C10.6536 135.762 9.85677 136.155 8.85156 136.155C7.82552 136.155 7.01823 135.83 6.42969 135.179V139.249H4.98438V127.546H6.30469L6.375 128.483C6.96354 127.754 7.78125 127.39 8.82812 127.39C9.84375 127.39 10.6458 127.772 11.2344 128.538C11.8281 129.304 12.125 130.369 12.125 131.733V131.866ZM10.6797 131.702C10.6797 130.749 10.4766 129.996 10.0703 129.444C9.66406 128.892 9.10677 128.616 8.39844 128.616C7.52344 128.616 6.86719 129.004 6.42969 129.78V133.819C6.86198 134.59 7.52344 134.976 8.41406 134.976C9.10677 134.976 9.65625 134.702 10.0625 134.155C10.474 133.603 10.6797 132.785 10.6797 131.702ZM18.8906 133.757C18.8906 133.366 18.7422 133.064 18.4453 132.851C18.1536 132.632 17.6406 132.444 16.9062 132.288C16.1771 132.132 15.5964 131.944 15.1641 131.726C14.737 131.507 14.4193 131.246 14.2109 130.944C14.0078 130.642 13.9062 130.283 13.9062 129.866C13.9062 129.174 14.1979 128.588 14.7812 128.108C15.3698 127.629 16.1198 127.39 17.0312 127.39C17.9896 127.39 18.7656 127.637 19.3594 128.132C19.9583 128.627 20.2578 129.259 20.2578 130.03H18.8047C18.8047 129.634 18.6354 129.293 18.2969 129.007C17.9635 128.72 17.5417 128.577 17.0312 128.577C16.5052 128.577 16.0938 128.692 15.7969 128.921C15.5 129.15 15.3516 129.45 15.3516 129.819C15.3516 130.168 15.4896 130.431 15.7656 130.608C16.0417 130.785 16.5391 130.955 17.2578 131.116C17.9818 131.278 18.5677 131.47 19.0156 131.694C19.4635 131.918 19.7943 132.189 20.0078 132.507C20.2266 132.819 20.3359 133.202 20.3359 133.655C20.3359 134.41 20.0339 135.017 19.4297 135.476C18.8255 135.929 18.0417 136.155 17.0781 136.155C16.401 136.155 15.8021 136.035 15.2812 135.796C14.7604 135.556 14.3516 135.223 14.0547 134.796C13.763 134.364 13.6172 133.897 13.6172 133.397H15.0625C15.0885 133.882 15.2812 134.267 15.6406 134.554C16.0052 134.835 16.4844 134.976 17.0781 134.976C17.625 134.976 18.0625 134.866 18.3906 134.647C18.724 134.424 18.8906 134.127 18.8906 133.757ZM27.4375 135.163C26.875 135.825 26.0495 136.155 24.9609 136.155C24.0599 136.155 23.3724 135.895 22.8984 135.374C22.4297 134.848 22.1927 134.072 22.1875 133.046V127.546H23.6328V133.007C23.6328 134.288 24.1536 134.929 25.1953 134.929C26.2995 134.929 27.0339 134.517 27.3984 133.694V127.546H28.8438V135.999H27.4688L27.4375 135.163ZM32.4062 127.546L32.4453 128.483C33.0651 127.754 33.901 127.39 34.9531 127.39C36.1354 127.39 36.9401 127.843 37.3672 128.749C37.6484 128.343 38.013 128.015 38.4609 127.765C38.9141 127.515 39.4479 127.39 40.0625 127.39C41.9167 127.39 42.8594 128.371 42.8906 130.335V135.999H41.4453V130.421C41.4453 129.817 41.3073 129.366 41.0312 129.069C40.7552 128.767 40.2917 128.616 39.6406 128.616C39.1042 128.616 38.6589 128.778 38.3047 129.101C37.9505 129.418 37.7448 129.848 37.6875 130.39V135.999H36.2344V130.46C36.2344 129.231 35.6328 128.616 34.4297 128.616C33.4818 128.616 32.8333 129.02 32.4844 129.827V135.999H31.0391V127.546H32.4062ZM50.4141 127.546L50.4609 128.608C51.1068 127.796 51.9505 127.39 52.9922 127.39C54.7786 127.39 55.6797 128.397 55.6953 130.413V135.999H54.25V130.405C54.2448 129.796 54.1042 129.345 53.8281 129.054C53.5573 128.762 53.1328 128.616 52.5547 128.616C52.0859 128.616 51.6745 128.741 51.3203 128.991C50.9661 129.241 50.6901 129.569 50.4922 129.976V135.999H49.0469V127.546H50.4141ZM57.4922 131.694C57.4922 130.866 57.6536 130.121 57.9766 129.46C58.3047 128.799 58.7578 128.288 59.3359 127.929C59.9193 127.569 60.5833 127.39 61.3281 127.39C62.4792 127.39 63.4089 127.788 64.1172 128.585C64.8307 129.382 65.1875 130.442 65.1875 131.765V131.866C65.1875 132.689 65.0286 133.429 64.7109 134.085C64.3984 134.736 63.9479 135.244 63.3594 135.608C62.776 135.973 62.1042 136.155 61.3438 136.155C60.1979 136.155 59.2682 135.757 58.5547 134.96C57.8464 134.163 57.4922 133.108 57.4922 131.796V131.694ZM58.9453 131.866C58.9453 132.804 59.1615 133.556 59.5938 134.124C60.0312 134.692 60.6146 134.976 61.3438 134.976C62.0781 134.976 62.6615 134.689 63.0938 134.116C63.526 133.538 63.7422 132.731 63.7422 131.694C63.7422 130.767 63.5208 130.017 63.0781 129.444C62.6406 128.866 62.0573 128.577 61.3281 128.577C60.6146 128.577 60.0391 128.861 59.6016 129.429C59.1641 129.996 58.9453 130.809 58.9453 131.866ZM68.3672 127.546L68.4141 128.608C69.0599 127.796 69.9036 127.39 70.9453 127.39C72.7318 127.39 73.6328 128.397 73.6484 130.413V135.999H72.2031V130.405C72.1979 129.796 72.0573 129.345 71.7812 129.054C71.5104 128.762 71.0859 128.616 70.5078 128.616C70.0391 128.616 69.6276 128.741 69.2734 128.991C68.9193 129.241 68.6432 129.569 68.4453 129.976V135.999H67V127.546H68.3672ZM75.7812 138.265L74.9609 137.702C75.4505 137.02 75.7057 136.317 75.7266 135.593V134.288H77.1406V135.421C77.1406 135.947 77.0104 136.473 76.75 136.999C76.4948 137.525 76.1719 137.947 75.7812 138.265ZM83.6484 135.999V128.663H82.3125V127.546H83.6484V126.679C83.6484 125.772 83.8906 125.072 84.375 124.577C84.8594 124.082 85.5443 123.835 86.4297 123.835C86.763 123.835 87.0938 123.879 87.4219 123.968L87.3438 125.14C87.099 125.093 86.8385 125.069 86.5625 125.069C86.0938 125.069 85.7318 125.207 85.4766 125.483C85.2214 125.754 85.0938 126.145 85.0938 126.655V127.546H86.8984V128.663H85.0938V135.999H83.6484ZM92.5859 128.843C92.3672 128.806 92.1302 128.788 91.875 128.788C90.9271 128.788 90.2839 129.192 89.9453 129.999V135.999H88.5V127.546H89.9062L89.9297 128.522C90.4036 127.767 91.0755 127.39 91.9453 127.39C92.2266 127.39 92.4401 127.426 92.5859 127.499V128.843ZM95.4922 135.999H94.0469V127.546H95.4922V135.999ZM93.9297 125.304C93.9297 125.069 94 124.871 94.1406 124.71C94.2865 124.549 94.5 124.468 94.7812 124.468C95.0625 124.468 95.276 124.549 95.4219 124.71C95.5677 124.871 95.6406 125.069 95.6406 125.304C95.6406 125.538 95.5677 125.733 95.4219 125.89C95.276 126.046 95.0625 126.124 94.7812 126.124C94.5 126.124 94.2865 126.046 94.1406 125.89C94 125.733 93.9297 125.538 93.9297 125.304ZM99.1797 127.546L99.2266 128.608C99.8724 127.796 100.716 127.39 101.758 127.39C103.544 127.39 104.445 128.397 104.461 130.413V135.999H103.016V130.405C103.01 129.796 102.87 129.345 102.594 129.054C102.323 128.762 101.898 128.616 101.32 128.616C100.852 128.616 100.44 128.741 100.086 128.991C99.7318 129.241 99.4557 129.569 99.2578 129.976V135.999H97.8125V127.546H99.1797ZM106.297 131.702C106.297 130.384 106.602 129.338 107.211 128.562C107.82 127.78 108.628 127.39 109.633 127.39C110.664 127.39 111.469 127.754 112.047 128.483L112.117 127.546H113.438V135.796C113.438 136.89 113.112 137.752 112.461 138.382C111.815 139.012 110.945 139.327 109.852 139.327C109.242 139.327 108.646 139.197 108.062 138.937C107.479 138.676 107.034 138.319 106.727 137.866L107.477 136.999C108.096 137.765 108.854 138.147 109.75 138.147C110.453 138.147 111 137.95 111.391 137.554C111.786 137.158 111.984 136.601 111.984 135.882V135.155C111.406 135.822 110.617 136.155 109.617 136.155C108.628 136.155 107.826 135.757 107.211 134.96C106.602 134.163 106.297 133.077 106.297 131.702ZM107.75 131.866C107.75 132.819 107.945 133.569 108.336 134.116C108.727 134.658 109.273 134.929 109.977 134.929C110.888 134.929 111.557 134.515 111.984 133.687V129.827C111.542 129.02 110.878 128.616 109.992 128.616C109.289 128.616 108.74 128.89 108.344 129.437C107.948 129.983 107.75 130.793 107.75 131.866ZM117.195 135.999H115.75V127.546H117.195V135.999ZM115.633 125.304C115.633 125.069 115.703 124.871 115.844 124.71C115.99 124.549 116.203 124.468 116.484 124.468C116.766 124.468 116.979 124.549 117.125 124.71C117.271 124.871 117.344 125.069 117.344 125.304C117.344 125.538 117.271 125.733 117.125 125.89C116.979 126.046 116.766 126.124 116.484 126.124C116.203 126.124 115.99 126.046 115.844 125.89C115.703 125.733 115.633 125.538 115.633 125.304ZM121.086 135.999H119.641V123.999H121.086V135.999ZM124.977 135.999H123.531V123.999H124.977V135.999ZM132.516 135.999C132.432 135.832 132.365 135.535 132.312 135.108C131.641 135.806 130.839 136.155 129.906 136.155C129.073 136.155 128.388 135.921 127.852 135.452C127.32 134.978 127.055 134.379 127.055 133.655C127.055 132.775 127.388 132.093 128.055 131.608C128.727 131.119 129.669 130.874 130.883 130.874H132.289V130.21C132.289 129.705 132.138 129.304 131.836 129.007C131.534 128.705 131.089 128.554 130.5 128.554C129.984 128.554 129.552 128.684 129.203 128.944C128.854 129.205 128.68 129.52 128.68 129.89H127.227C127.227 129.468 127.375 129.062 127.672 128.671C127.974 128.275 128.38 127.963 128.891 127.733C129.406 127.504 129.971 127.39 130.586 127.39C131.56 127.39 132.323 127.634 132.875 128.124C133.427 128.608 133.714 129.278 133.734 130.132V134.022C133.734 134.799 133.833 135.416 134.031 135.874V135.999H132.516ZM130.117 134.897C130.57 134.897 131 134.78 131.406 134.546C131.812 134.312 132.107 134.007 132.289 133.632V131.897H131.156C129.385 131.897 128.5 132.416 128.5 133.452C128.5 133.905 128.651 134.259 128.953 134.515C129.255 134.77 129.643 134.897 130.117 134.897ZM141.328 127.546L141.367 128.483C141.987 127.754 142.823 127.39 143.875 127.39C145.057 127.39 145.862 127.843 146.289 128.749C146.57 128.343 146.935 128.015 147.383 127.765C147.836 127.515 148.37 127.39 148.984 127.39C150.839 127.39 151.781 128.371 151.812 130.335V135.999H150.367V130.421C150.367 129.817 150.229 129.366 149.953 129.069C149.677 128.767 149.214 128.616 148.562 128.616C148.026 128.616 147.581 128.778 147.227 129.101C146.872 129.418 146.667 129.848 146.609 130.39V135.999H145.156V130.46C145.156 129.231 144.555 128.616 143.352 128.616C142.404 128.616 141.755 129.02 141.406 129.827V135.999H139.961V127.546H141.328ZM159.219 135.999C159.135 135.832 159.068 135.535 159.016 135.108C158.344 135.806 157.542 136.155 156.609 136.155C155.776 136.155 155.091 135.921 154.555 135.452C154.023 134.978 153.758 134.379 153.758 133.655C153.758 132.775 154.091 132.093 154.758 131.608C155.43 131.119 156.372 130.874 157.586 130.874H158.992V130.21C158.992 129.705 158.841 129.304 158.539 129.007C158.237 128.705 157.792 128.554 157.203 128.554C156.688 128.554 156.255 128.684 155.906 128.944C155.557 129.205 155.383 129.52 155.383 129.89H153.93C153.93 129.468 154.078 129.062 154.375 128.671C154.677 128.275 155.083 127.963 155.594 127.733C156.109 127.504 156.674 127.39 157.289 127.39C158.263 127.39 159.026 127.634 159.578 128.124C160.13 128.608 160.417 129.278 160.438 130.132V134.022C160.438 134.799 160.536 135.416 160.734 135.874V135.999H159.219ZM156.82 134.897C157.273 134.897 157.703 134.78 158.109 134.546C158.516 134.312 158.81 134.007 158.992 133.632V131.897H157.859C156.089 131.897 155.203 132.416 155.203 133.452C155.203 133.905 155.354 134.259 155.656 134.515C155.958 134.77 156.346 134.897 156.82 134.897ZM167.625 133.757C167.625 133.366 167.477 133.064 167.18 132.851C166.888 132.632 166.375 132.444 165.641 132.288C164.911 132.132 164.331 131.944 163.898 131.726C163.471 131.507 163.154 131.246 162.945 130.944C162.742 130.642 162.641 130.283 162.641 129.866C162.641 129.174 162.932 128.588 163.516 128.108C164.104 127.629 164.854 127.39 165.766 127.39C166.724 127.39 167.5 127.637 168.094 128.132C168.693 128.627 168.992 129.259 168.992 130.03H167.539C167.539 129.634 167.37 129.293 167.031 129.007C166.698 128.72 166.276 128.577 165.766 128.577C165.24 128.577 164.828 128.692 164.531 128.921C164.234 129.15 164.086 129.45 164.086 129.819C164.086 130.168 164.224 130.431 164.5 130.608C164.776 130.785 165.273 130.955 165.992 131.116C166.716 131.278 167.302 131.47 167.75 131.694C168.198 131.918 168.529 132.189 168.742 132.507C168.961 132.819 169.07 133.202 169.07 133.655C169.07 134.41 168.768 135.017 168.164 135.476C167.56 135.929 166.776 136.155 165.812 136.155C165.135 136.155 164.536 136.035 164.016 135.796C163.495 135.556 163.086 135.223 162.789 134.796C162.497 134.364 162.352 133.897 162.352 133.397H163.797C163.823 133.882 164.016 134.267 164.375 134.554C164.74 134.835 165.219 134.976 165.812 134.976C166.359 134.976 166.797 134.866 167.125 134.647C167.458 134.424 167.625 134.127 167.625 133.757ZM175.875 133.757C175.875 133.366 175.727 133.064 175.43 132.851C175.138 132.632 174.625 132.444 173.891 132.288C173.161 132.132 172.581 131.944 172.148 131.726C171.721 131.507 171.404 131.246 171.195 130.944C170.992 130.642 170.891 130.283 170.891 129.866C170.891 129.174 171.182 128.588 171.766 128.108C172.354 127.629 173.104 127.39 174.016 127.39C174.974 127.39 175.75 127.637 176.344 128.132C176.943 128.627 177.242 129.259 177.242 130.03H175.789C175.789 129.634 175.62 129.293 175.281 129.007C174.948 128.72 174.526 128.577 174.016 128.577C173.49 128.577 173.078 128.692 172.781 128.921C172.484 129.15 172.336 129.45 172.336 129.819C172.336 130.168 172.474 130.431 172.75 130.608C173.026 130.785 173.523 130.955 174.242 131.116C174.966 131.278 175.552 131.47 176 131.694C176.448 131.918 176.779 132.189 176.992 132.507C177.211 132.819 177.32 133.202 177.32 133.655C177.32 134.41 177.018 135.017 176.414 135.476C175.81 135.929 175.026 136.155 174.062 136.155C173.385 136.155 172.786 136.035 172.266 135.796C171.745 135.556 171.336 135.223 171.039 134.796C170.747 134.364 170.602 133.897 170.602 133.397H172.047C172.073 133.882 172.266 134.267 172.625 134.554C172.99 134.835 173.469 134.976 174.062 134.976C174.609 134.976 175.047 134.866 175.375 134.647C175.708 134.424 175.875 134.127 175.875 133.757ZM184.422 135.999C184.339 135.832 184.271 135.535 184.219 135.108C183.547 135.806 182.745 136.155 181.812 136.155C180.979 136.155 180.294 135.921 179.758 135.452C179.227 134.978 178.961 134.379 178.961 133.655C178.961 132.775 179.294 132.093 179.961 131.608C180.633 131.119 181.576 130.874 182.789 130.874H184.195V130.21C184.195 129.705 184.044 129.304 183.742 129.007C183.44 128.705 182.995 128.554 182.406 128.554C181.891 128.554 181.458 128.684 181.109 128.944C180.76 129.205 180.586 129.52 180.586 129.89H179.133C179.133 129.468 179.281 129.062 179.578 128.671C179.88 128.275 180.286 127.963 180.797 127.733C181.312 127.504 181.878 127.39 182.492 127.39C183.466 127.39 184.229 127.634 184.781 128.124C185.333 128.608 185.62 129.278 185.641 130.132V134.022C185.641 134.799 185.74 135.416 185.938 135.874V135.999H184.422ZM182.023 134.897C182.477 134.897 182.906 134.78 183.312 134.546C183.719 134.312 184.013 134.007 184.195 133.632V131.897H183.062C181.292 131.897 180.406 132.416 180.406 133.452C180.406 133.905 180.557 134.259 180.859 134.515C181.161 134.77 181.549 134.897 182.023 134.897ZM187.938 135.241C187.938 134.991 188.01 134.783 188.156 134.616C188.307 134.45 188.531 134.366 188.828 134.366C189.125 134.366 189.349 134.45 189.5 134.616C189.656 134.783 189.734 134.991 189.734 135.241C189.734 135.481 189.656 135.681 189.5 135.843C189.349 136.004 189.125 136.085 188.828 136.085C188.531 136.085 188.307 136.004 188.156 135.843C188.01 135.681 187.938 135.481 187.938 135.241ZM3.25781 150.624L6.97656 159.905L10.6953 150.624H12.6406V161.999H11.1406V157.569L11.2812 152.788L7.54688 161.999H6.39844L2.67188 152.812L2.82031 157.569V161.999H1.32031V150.624H3.25781ZM20.2812 161.999C20.1979 161.832 20.1302 161.535 20.0781 161.108C19.4062 161.806 18.6042 162.155 17.6719 162.155C16.8385 162.155 16.1536 161.921 15.6172 161.452C15.0859 160.978 14.8203 160.379 14.8203 159.655C14.8203 158.775 15.1536 158.093 15.8203 157.608C16.4922 157.119 17.4349 156.874 18.6484 156.874H20.0547V156.21C20.0547 155.705 19.9036 155.304 19.6016 155.007C19.2995 154.705 18.8542 154.554 18.2656 154.554C17.75 154.554 17.3177 154.684 16.9688 154.944C16.6198 155.205 16.4453 155.52 16.4453 155.89H14.9922C14.9922 155.468 15.1406 155.062 15.4375 154.671C15.7396 154.275 16.1458 153.963 16.6562 153.733C17.1719 153.504 17.737 153.39 18.3516 153.39C19.3255 153.39 20.0885 153.634 20.6406 154.124C21.1927 154.608 21.4792 155.278 21.5 156.132V160.022C21.5 160.799 21.599 161.416 21.7969 161.874V161.999H20.2812ZM17.8828 160.897C18.3359 160.897 18.7656 160.78 19.1719 160.546C19.5781 160.312 19.8724 160.007 20.0547 159.632V157.897H18.9219C17.151 157.897 16.2656 158.416 16.2656 159.452C16.2656 159.905 16.4167 160.259 16.7188 160.515C17.0208 160.77 17.4089 160.897 17.8828 160.897ZM27.2734 162.155C26.1276 162.155 25.1953 161.78 24.4766 161.03C23.7578 160.275 23.3984 159.267 23.3984 158.007V157.741C23.3984 156.903 23.5573 156.155 23.875 155.499C24.1979 154.838 24.6458 154.322 25.2188 153.952C25.7969 153.577 26.4219 153.39 27.0938 153.39C28.1927 153.39 29.0469 153.752 29.6562 154.476C30.2656 155.2 30.5703 156.236 30.5703 157.585V158.187H24.8438C24.8646 159.02 25.1068 159.694 25.5703 160.21C26.0391 160.72 26.6328 160.976 27.3516 160.976C27.862 160.976 28.2943 160.871 28.6484 160.663C29.0026 160.455 29.3125 160.179 29.5781 159.835L30.4609 160.522C29.7526 161.611 28.6901 162.155 27.2734 162.155ZM27.0938 154.577C26.5104 154.577 26.0208 154.791 25.625 155.218C25.2292 155.64 24.9844 156.233 24.8906 156.999H29.125V156.89C29.0833 156.155 28.8854 155.588 28.5312 155.187C28.1771 154.78 27.6979 154.577 27.0938 154.577ZM35.6406 160.976C36.1562 160.976 36.6068 160.819 36.9922 160.507C37.3776 160.194 37.5911 159.804 37.6328 159.335H39C38.974 159.819 38.8073 160.28 38.5 160.718C38.1927 161.155 37.7812 161.504 37.2656 161.765C36.7552 162.025 36.2135 162.155 35.6406 162.155C34.4896 162.155 33.5729 161.772 32.8906 161.007C32.2135 160.236 31.875 159.184 31.875 157.851V157.608C31.875 156.785 32.026 156.054 32.3281 155.413C32.6302 154.772 33.0625 154.275 33.625 153.921C34.1927 153.567 34.862 153.39 35.6328 153.39C36.5807 153.39 37.3672 153.674 37.9922 154.241C38.6224 154.809 38.9583 155.546 39 156.452H37.6328C37.5911 155.905 37.3828 155.457 37.0078 155.108C36.638 154.754 36.1797 154.577 35.6328 154.577C34.8984 154.577 34.3281 154.843 33.9219 155.374C33.5208 155.9 33.3203 156.663 33.3203 157.663V157.937C33.3203 158.91 33.5208 159.66 33.9219 160.187C34.3229 160.713 34.8958 160.976 35.6406 160.976ZM44.1328 162.155C42.987 162.155 42.0547 161.78 41.3359 161.03C40.6172 160.275 40.2578 159.267 40.2578 158.007V157.741C40.2578 156.903 40.4167 156.155 40.7344 155.499C41.0573 154.838 41.5052 154.322 42.0781 153.952C42.6562 153.577 43.2812 153.39 43.9531 153.39C45.0521 153.39 45.9062 153.752 46.5156 154.476C47.125 155.2 47.4297 156.236 47.4297 157.585V158.187H41.7031C41.724 159.02 41.9661 159.694 42.4297 160.21C42.8984 160.72 43.4922 160.976 44.2109 160.976C44.7214 160.976 45.1536 160.871 45.5078 160.663C45.862 160.455 46.1719 160.179 46.4375 159.835L47.3203 160.522C46.612 161.611 45.5495 162.155 44.1328 162.155ZM43.9531 154.577C43.3698 154.577 42.8802 154.791 42.4844 155.218C42.0885 155.64 41.8438 156.233 41.75 156.999H45.9844V156.89C45.9427 156.155 45.7448 155.588 45.3906 155.187C45.0365 154.78 44.5573 154.577 43.9531 154.577ZM50.4766 153.546L50.5234 154.608C51.1693 153.796 52.013 153.39 53.0547 153.39C54.8411 153.39 55.7422 154.397 55.7578 156.413V161.999H54.3125V156.405C54.3073 155.796 54.1667 155.345 53.8906 155.054C53.6198 154.762 53.1953 154.616 52.6172 154.616C52.1484 154.616 51.737 154.741 51.3828 154.991C51.0286 155.241 50.7526 155.569 50.5547 155.976V161.999H49.1094V153.546H50.4766ZM63.1562 161.999C63.0729 161.832 63.0052 161.535 62.9531 161.108C62.2812 161.806 61.4792 162.155 60.5469 162.155C59.7135 162.155 59.0286 161.921 58.4922 161.452C57.9609 160.978 57.6953 160.379 57.6953 159.655C57.6953 158.775 58.0286 158.093 58.6953 157.608C59.3672 157.119 60.3099 156.874 61.5234 156.874H62.9297V156.21C62.9297 155.705 62.7786 155.304 62.4766 155.007C62.1745 154.705 61.7292 154.554 61.1406 154.554C60.625 154.554 60.1927 154.684 59.8438 154.944C59.4948 155.205 59.3203 155.52 59.3203 155.89H57.8672C57.8672 155.468 58.0156 155.062 58.3125 154.671C58.6146 154.275 59.0208 153.963 59.5312 153.733C60.0469 153.504 60.612 153.39 61.2266 153.39C62.2005 153.39 62.9635 153.634 63.5156 154.124C64.0677 154.608 64.3542 155.278 64.375 156.132V160.022C64.375 160.799 64.474 161.416 64.6719 161.874V161.999H63.1562ZM60.7578 160.897C61.2109 160.897 61.6406 160.78 62.0469 160.546C62.4531 160.312 62.7474 160.007 62.9297 159.632V157.897H61.7969C60.026 157.897 59.1406 158.416 59.1406 159.452C59.1406 159.905 59.2917 160.259 59.5938 160.515C59.8958 160.77 60.2839 160.897 60.7578 160.897ZM71.5625 159.757C71.5625 159.366 71.4141 159.064 71.1172 158.851C70.8255 158.632 70.3125 158.444 69.5781 158.288C68.849 158.132 68.2682 157.944 67.8359 157.726C67.4089 157.507 67.0911 157.246 66.8828 156.944C66.6797 156.642 66.5781 156.283 66.5781 155.866C66.5781 155.174 66.8698 154.588 67.4531 154.108C68.0417 153.629 68.7917 153.39 69.7031 153.39C70.6615 153.39 71.4375 153.637 72.0312 154.132C72.6302 154.627 72.9297 155.259 72.9297 156.03H71.4766C71.4766 155.634 71.3073 155.293 70.9688 155.007C70.6354 154.72 70.2135 154.577 69.7031 154.577C69.1771 154.577 68.7656 154.692 68.4688 154.921C68.1719 155.15 68.0234 155.45 68.0234 155.819C68.0234 156.168 68.1615 156.431 68.4375 156.608C68.7135 156.785 69.2109 156.955 69.9297 157.116C70.6536 157.278 71.2396 157.47 71.6875 157.694C72.1354 157.918 72.4661 158.189 72.6797 158.507C72.8984 158.819 73.0078 159.202 73.0078 159.655C73.0078 160.41 72.7057 161.017 72.1016 161.476C71.4974 161.929 70.7135 162.155 69.75 162.155C69.0729 162.155 68.474 162.035 67.9531 161.796C67.4323 161.556 67.0234 161.223 66.7266 160.796C66.4349 160.364 66.2891 159.897 66.2891 159.397H67.7344C67.7604 159.882 67.9531 160.267 68.3125 160.554C68.6771 160.835 69.1562 160.976 69.75 160.976C70.2969 160.976 70.7344 160.866 71.0625 160.647C71.3958 160.424 71.5625 160.127 71.5625 159.757Z" fill="#353B44"/>
<path d="M64.7051 12.207V17.3633C64.7051 17.9492 64.6855 18.5107 64.6465 19.0479C64.6074 19.5752 64.5586 20.0732 64.5 20.542H64.7051C65.1348 19.8682 65.6963 19.2969 66.3896 18.8281C67.083 18.3496 67.9912 18.1104 69.1143 18.1104C70.8428 18.1104 72.2539 18.8428 73.3477 20.3076C74.4512 21.7725 75.0029 23.8916 75.0029 26.665C75.0029 28.5498 74.749 30.1367 74.2412 31.4258C73.7334 32.7051 73.0205 33.6719 72.1025 34.3262C71.1943 34.9707 70.1396 35.293 68.9385 35.293C67.7666 35.293 66.873 35.0928 66.2578 34.6924C65.6523 34.2822 65.1348 33.8428 64.7051 33.374H64.3535L63.4453 35H58.9775V12.207H64.7051ZM67.0195 22.6074C66.4922 22.6074 66.0576 22.7295 65.7158 22.9736C65.374 23.2178 65.1201 23.5986 64.9541 24.1162C64.7881 24.624 64.7051 25.2734 64.7051 26.0645V26.8701C64.7051 28.1592 64.876 29.1162 65.2178 29.7412C65.5693 30.3662 66.1895 30.6787 67.0781 30.6787C67.752 30.6787 68.2695 30.332 68.6309 29.6387C68.9922 28.9453 69.1729 27.9346 69.1729 26.6064C69.1729 25.2783 68.9971 24.2822 68.6455 23.6182C68.2939 22.9443 67.752 22.6074 67.0195 22.6074ZM84.041 18.4033V35H78.3135V18.4033H84.041ZM81.1992 11.7236C82.0195 11.7236 82.7324 11.8945 83.3379 12.2363C83.9531 12.5781 84.2607 13.2568 84.2607 14.2725C84.2607 15.2588 83.9531 15.9277 83.3379 16.2793C82.7324 16.6211 82.0195 16.792 81.1992 16.792C80.3594 16.792 79.6416 16.6211 79.0459 16.2793C78.46 15.9277 78.167 15.2588 78.167 14.2725C78.167 13.2568 78.46 12.5781 79.0459 12.2363C79.6416 11.8945 80.3594 11.7236 81.1992 11.7236ZM103.89 26.665C103.89 28.0518 103.699 29.2822 103.318 30.3564C102.938 31.4307 102.386 32.334 101.663 33.0664C100.94 33.7988 100.066 34.3555 99.041 34.7363C98.0156 35.1074 96.8584 35.293 95.5693 35.293C94.3682 35.293 93.2646 35.1074 92.2588 34.7363C91.2627 34.3555 90.3936 33.7988 89.6514 33.0664C88.9092 32.334 88.333 31.4307 87.9229 30.3564C87.5225 29.2822 87.3223 28.0518 87.3223 26.665C87.3223 24.8291 87.6543 23.2764 88.3184 22.0068C88.9922 20.7373 89.9492 19.7705 91.1895 19.1064C92.4395 18.4424 93.9287 18.1104 95.6572 18.1104C97.249 18.1104 98.665 18.4424 99.9053 19.1064C101.146 19.7705 102.117 20.7373 102.82 22.0068C103.533 23.2764 103.89 24.8291 103.89 26.665ZM93.1377 26.665C93.1377 27.6123 93.2207 28.4131 93.3867 29.0674C93.5527 29.7119 93.8164 30.2051 94.1777 30.5469C94.5488 30.8789 95.0322 31.0449 95.6279 31.0449C96.2236 31.0449 96.6973 30.8789 97.0488 30.5469C97.4004 30.2051 97.6543 29.7119 97.8105 29.0674C97.9766 28.4131 98.0596 27.6123 98.0596 26.665C98.0596 25.7178 97.9766 24.9268 97.8105 24.292C97.6543 23.6572 97.3955 23.1787 97.0342 22.8564C96.6826 22.5342 96.2041 22.373 95.5986 22.373C94.7295 22.373 94.0996 22.7344 93.709 23.457C93.3281 24.1797 93.1377 25.249 93.1377 26.665ZM111.521 35L105.193 18.4033H111.17L113.982 28.2178C114.012 28.3057 114.061 28.5303 114.129 28.8916C114.207 29.2529 114.246 29.5898 114.246 29.9023H114.349C114.349 29.5703 114.383 29.2529 114.451 28.9502C114.52 28.6475 114.573 28.4131 114.612 28.2471L117.557 18.4033H123.519L117.19 35H111.521ZM132.981 18.1104C134.593 18.1104 135.984 18.3936 137.156 18.96C138.328 19.5166 139.231 20.3564 139.866 21.4795C140.501 22.6025 140.818 24.0088 140.818 25.6982V28.2471H130.579C130.628 29.1162 130.95 29.8291 131.546 30.3857C132.151 30.9424 133.04 31.2207 134.212 31.2207C135.247 31.2207 136.194 31.1182 137.054 30.9131C137.923 30.708 138.816 30.3906 139.734 29.9609V34.0771C138.934 34.4971 138.06 34.8047 137.112 35C136.165 35.1953 134.969 35.293 133.523 35.293C131.854 35.293 130.359 34.9951 129.041 34.3994C127.723 33.8037 126.683 32.8809 125.921 31.6309C125.169 30.3809 124.793 28.7744 124.793 26.8115C124.793 24.8193 125.135 23.1836 125.818 21.9043C126.502 20.6152 127.459 19.6631 128.689 19.0479C129.92 18.4229 131.351 18.1104 132.981 18.1104ZM133.187 22.0068C132.513 22.0068 131.946 22.2217 131.487 22.6514C131.038 23.0713 130.774 23.7354 130.696 24.6436H135.618C135.608 24.1553 135.511 23.7109 135.325 23.3105C135.14 22.9102 134.866 22.5928 134.505 22.3584C134.153 22.124 133.714 22.0068 133.187 22.0068ZM154.441 18.1104C156.15 18.1104 157.547 18.5938 158.631 19.5605C159.715 20.5273 160.257 22.0752 160.257 24.2041V35H154.529V25.9473C154.529 24.8438 154.368 24.0137 154.046 23.457C153.733 22.8906 153.226 22.6074 152.522 22.6074C151.438 22.6074 150.711 23.0518 150.34 23.9404C149.969 24.8193 149.783 26.084 149.783 27.7344V35H144.056V18.4033H148.377L149.153 20.6006H149.373C149.725 20.0732 150.145 19.624 150.633 19.2529C151.121 18.8818 151.683 18.5986 152.317 18.4033C152.952 18.208 153.66 18.1104 154.441 18.1104Z" fill="#0A0A0B"/>
<path d="M22.7654 1.00105C20.354 0.977976 18.0465 1.33564 15.8543 2.00482L15.6697 17.1883H15.7851C17.5388 14.2231 20.6655 12.3194 24.9806 12.3656C31.6262 12.4464 36.2644 18.0421 36.1144 26.1761C35.999 35.7523 29.9071 40.4481 23.9307 40.3789C20.054 40.3327 16.9735 38.7982 15.0236 35.2331H14.8621L14.5852 39.6636L10.374 39.6174C10.5009 37.7945 10.6509 35.0831 10.674 32.6948L11.0085 4.18543C4.50134 8.06207 0.0939733 15.1115 0.00167253 23.234C-0.148316 35.66 9.80864 45.8477 22.2346 45.9977C34.6606 46.1477 44.8483 36.1907 44.9983 23.7647C45.1483 11.3387 35.1914 1.15104 22.7654 1.00105Z" fill="#FE8C12"/>
<path d="M22.9846 36.4907C28.0843 36.5484 31.1763 32.4295 31.2456 26.2799C31.3148 20.9034 28.5919 16.2768 23.3884 16.2191C20.0656 16.1845 16.9389 18.4113 15.9005 22.1149C15.7852 22.6687 15.6121 23.3263 15.6006 24.1109L15.5429 28.9336C15.5313 29.5451 15.6352 30.1566 15.739 30.7104C16.6389 34.0909 19.4426 36.4561 22.9846 36.4907Z" fill="#FE8C12"/>
<path d="M10.3743 39.6057L14.5855 39.6519L14.8624 35.2215H15.0239C16.9738 38.7866 20.0543 40.3211 23.9309 40.3672C29.9074 40.4365 35.9993 35.7522 36.1146 26.1644C36.2646 18.0304 31.6265 12.4347 24.9809 12.3539C20.6658 12.3078 17.5391 14.1999 15.7854 17.1766H15.67L15.8546 1.99316C14.1355 2.52389 12.5203 3.2623 11.0088 4.16223L10.6742 32.6716C10.6512 35.0715 10.5012 37.7828 10.3743 39.6057ZM15.6008 24.1107C15.6123 23.3377 15.7854 22.6685 15.9008 22.1147C16.9392 18.4112 20.0659 16.1844 23.3887 16.219C28.5921 16.2767 31.3035 20.9148 31.2458 26.2798C31.1766 32.4293 28.0729 36.5483 22.9849 36.4906C19.4428 36.4444 16.6392 34.0908 15.7392 30.6987C15.6354 30.1449 15.5316 29.5334 15.5431 28.9219L15.6008 24.1107Z" fill="white"/>
</svg>
