<svg width="654" height="408" viewBox="0 0 654 408" fill="none" xmlns="http://www.w3.org/2000/svg">
<mask id="mask0_1219_1096" style="mask-type:alpha" maskUnits="userSpaceOnUse" x="0" y="0" width="654" height="408">
<rect width="654" height="408" fill="white"/>
</mask>
<g mask="url(#mask0_1219_1096)">
<rect width="654" height="408" fill="white"/>
<g opacity="0.1">
<path d="M537.886 208.005C525.293 207.885 513.243 209.753 501.795 213.247L500.831 292.539H501.433C510.592 277.054 526.92 267.113 549.454 267.354C584.159 267.775 608.38 296.998 607.597 339.475C606.995 389.484 575.182 414.007 543.971 413.645C523.727 413.404 507.639 405.391 497.457 386.773H496.613L495.167 409.91L473.175 409.669C473.838 400.149 474.621 385.99 474.742 373.517L476.489 224.635C442.507 244.88 419.491 281.694 419.009 324.111C418.225 389.002 470.223 442.205 535.114 442.988C600.006 443.771 653.208 391.774 653.991 326.883C654.775 261.991 602.777 208.789 537.886 208.005Z" fill="#FE8C12"/>
<path d="M539.031 393.339C565.662 393.64 581.81 372.13 582.171 340.016C582.533 311.939 568.313 287.778 541.139 287.476C523.787 287.296 507.459 298.924 502.036 318.265C501.433 321.157 500.53 324.592 500.469 328.689L500.168 353.874C500.108 357.067 500.65 360.261 501.192 363.153C505.892 380.807 520.533 393.158 539.031 393.339Z" fill="#FE8C12"/>
<path d="M473.177 409.608L495.169 409.849L496.615 386.712H497.458C507.641 405.33 523.728 413.343 543.973 413.584C575.183 413.946 606.996 389.484 607.599 339.414C608.382 296.937 584.161 267.715 549.456 267.293C526.921 267.052 510.593 276.933 501.435 292.478H500.832L501.796 213.187C492.819 215.958 484.384 219.814 476.491 224.514L474.743 373.396C474.623 385.929 473.84 400.088 473.177 409.608ZM500.471 328.689C500.531 324.653 501.435 321.158 502.037 318.266C507.46 298.925 523.788 287.296 541.141 287.477C568.315 287.778 582.474 312 582.173 340.017C581.811 372.131 565.603 393.641 539.032 393.34C520.535 393.099 505.894 380.807 501.194 363.093C500.652 360.201 500.109 357.008 500.17 353.815L500.471 328.689Z" fill="white"/>
</g>
</g>
</svg>
