<svg width="199" height="60" viewBox="0 0 199 60" fill="none" xmlns="http://www.w3.org/2000/svg">
<rect width="199" height="60" rx="2" fill="#FE8C12"/>
<path d="M43.7656 24.5781C44.8021 24.5781 45.6562 24.7031 46.3281 24.9531C47.0052 25.2031 47.5078 25.5807 47.8359 26.0859C48.1641 26.5911 48.3281 27.2292 48.3281 28C48.3281 28.5208 48.2292 28.9766 48.0312 29.3672C47.8333 29.7578 47.5729 30.0885 47.25 30.3594C46.9271 30.6302 46.5781 30.8516 46.2031 31.0234L49.5625 36H46.875L44.1484 31.6172H42.8594V36H40.4375V24.5781H43.7656ZM43.5938 26.5625H42.8594V29.6484H43.6406C44.4427 29.6484 45.0156 29.5156 45.3594 29.25C45.7083 28.9792 45.8828 28.5833 45.8828 28.0625C45.8828 27.5208 45.6953 27.1354 45.3203 26.9062C44.9505 26.6771 44.375 26.5625 43.5938 26.5625ZM57.5781 36H51V24.5781H57.5781V26.5625H53.4219V29.0703H57.2891V31.0547H53.4219V34H57.5781V36ZM66.9609 36L66.1328 33.2812H61.9688L61.1406 36H58.5312L62.5625 24.5312H65.5234L69.5703 36H66.9609ZM65.5547 31.25L64.7266 28.5938C64.6745 28.4167 64.6042 28.1901 64.5156 27.9141C64.4323 27.6328 64.3464 27.349 64.2578 27.0625C64.1745 26.7708 64.1068 26.5182 64.0547 26.3047C64.0026 26.5182 63.9297 26.7839 63.8359 27.1016C63.7474 27.4141 63.6615 27.7109 63.5781 27.9922C63.4948 28.2734 63.4349 28.474 63.3984 28.5938L62.5781 31.25H65.5547ZM80.4922 30.1797C80.4922 31.4661 80.2448 32.5417 79.75 33.4062C79.2604 34.2656 78.5495 34.9141 77.6172 35.3516C76.6849 35.7839 75.5625 36 74.25 36H71.0156V24.5781H74.6016C75.7995 24.5781 76.8385 24.7917 77.7188 25.2188C78.599 25.6406 79.2812 26.2682 79.7656 27.1016C80.25 27.9297 80.4922 28.9557 80.4922 30.1797ZM77.9766 30.2422C77.9766 29.3984 77.8516 28.7057 77.6016 28.1641C77.3568 27.6172 76.9922 27.2135 76.5078 26.9531C76.0286 26.6927 75.4349 26.5625 74.7266 26.5625H73.4375V34H74.4766C75.6589 34 76.5365 33.6849 77.1094 33.0547C77.6875 32.4245 77.9766 31.487 77.9766 30.2422ZM91.8516 36L89.1016 27.0391H89.0312C89.0417 27.2526 89.0573 27.5755 89.0781 28.0078C89.1042 28.4349 89.1276 28.8906 89.1484 29.375C89.1693 29.8594 89.1797 30.2969 89.1797 30.6875V36H87.0156V24.5781H90.3125L93.0156 33.3125H93.0625L95.9297 24.5781H99.2266V36H96.9688V30.5938C96.9688 30.2344 96.974 29.8203 96.9844 29.3516C97 28.8828 97.0182 28.4375 97.0391 28.0156C97.0599 27.5885 97.0755 27.2682 97.0859 27.0547H97.0156L94.0703 36H91.8516ZM112.477 30.2734C112.477 31.1536 112.367 31.9557 112.148 32.6797C111.93 33.3984 111.596 34.0182 111.148 34.5391C110.706 35.0599 110.143 35.4609 109.461 35.7422C108.779 36.0182 107.971 36.1562 107.039 36.1562C106.107 36.1562 105.299 36.0182 104.617 35.7422C103.935 35.4609 103.37 35.0599 102.922 34.5391C102.479 34.0182 102.148 33.3958 101.93 32.6719C101.711 31.9479 101.602 31.1432 101.602 30.2578C101.602 29.0755 101.794 28.0469 102.18 27.1719C102.57 26.2917 103.169 25.6094 103.977 25.125C104.784 24.6406 105.81 24.3984 107.055 24.3984C108.294 24.3984 109.312 24.6406 110.109 25.125C110.911 25.6094 111.505 26.2917 111.891 27.1719C112.281 28.0521 112.477 29.0859 112.477 30.2734ZM104.141 30.2734C104.141 31.0703 104.24 31.7578 104.438 32.3359C104.641 32.9089 104.956 33.3516 105.383 33.6641C105.81 33.9714 106.362 34.125 107.039 34.125C107.727 34.125 108.284 33.9714 108.711 33.6641C109.138 33.3516 109.448 32.9089 109.641 32.3359C109.839 31.7578 109.938 31.0703 109.938 30.2734C109.938 29.0755 109.714 28.1328 109.266 27.4453C108.818 26.7578 108.081 26.4141 107.055 26.4141C106.372 26.4141 105.815 26.5703 105.383 26.8828C104.956 27.1901 104.641 27.6328 104.438 28.2109C104.24 28.7839 104.141 29.4714 104.141 30.2734ZM118.172 24.5781C119.208 24.5781 120.062 24.7031 120.734 24.9531C121.411 25.2031 121.914 25.5807 122.242 26.0859C122.57 26.5911 122.734 27.2292 122.734 28C122.734 28.5208 122.635 28.9766 122.438 29.3672C122.24 29.7578 121.979 30.0885 121.656 30.3594C121.333 30.6302 120.984 30.8516 120.609 31.0234L123.969 36H121.281L118.555 31.6172H117.266V36H114.844V24.5781H118.172ZM118 26.5625H117.266V29.6484H118.047C118.849 29.6484 119.422 29.5156 119.766 29.25C120.115 28.9792 120.289 28.5833 120.289 28.0625C120.289 27.5208 120.102 27.1354 119.727 26.9062C119.357 26.6771 118.781 26.5625 118 26.5625ZM131.984 36H125.406V24.5781H131.984V26.5625H127.828V29.0703H131.695V31.0547H127.828V34H131.984V36Z" fill="white"/>
<path fill-rule="evenodd" clip-rule="evenodd" d="M154.22 25.2093C154.36 25.0753 154.551 25 154.75 25C154.949 25 155.14 25.0753 155.28 25.2093L159.78 29.4989C159.921 29.6329 160 29.8147 160 30.0043C160 30.1939 159.921 30.3757 159.78 30.5098L155.28 34.7993C155.139 34.9295 154.949 35.0016 154.753 35C154.556 34.9983 154.368 34.9232 154.229 34.7906C154.09 34.6581 154.011 34.4787 154.009 34.2913C154.008 34.1038 154.083 33.9232 154.22 33.7884L157.44 30.7192H148.75C148.551 30.7192 148.36 30.6439 148.22 30.5098C148.079 30.3758 148 30.1939 148 30.0043C148 29.8147 148.079 29.6329 148.22 29.4988C148.36 29.3647 148.551 29.2894 148.75 29.2894H157.44L154.22 26.2202C154.079 26.0862 154 25.9043 154 25.7148C154 25.5252 154.079 25.3434 154.22 25.2093Z" fill="white"/>
</svg>
