<svg width="207" height="60" viewBox="0 0 207 60" fill="none" xmlns="http://www.w3.org/2000/svg">
<rect width="207" height="60" rx="2" fill="#FE8C12"/>
<path d="M50.8047 30.2734C50.8047 31.1224 50.7031 31.901 50.5 32.6094C50.3021 33.3125 49.9948 33.9219 49.5781 34.4375C49.1615 34.9531 48.6328 35.3568 47.9922 35.6484L50.7422 38.7188H47.6406L45.5469 36.1562C45.5104 36.1562 45.4792 36.1562 45.4531 36.1562C45.4271 36.1562 45.3984 36.1562 45.3672 36.1562C44.4349 36.1562 43.6276 36.0182 42.9453 35.7422C42.263 35.4609 41.6979 35.0599 41.25 34.5391C40.8073 34.0182 40.4766 33.3958 40.2578 32.6719C40.0391 31.9479 39.9297 31.1432 39.9297 30.2578C39.9297 29.0755 40.1224 28.0469 40.5078 27.1719C40.8984 26.2917 41.4974 25.6094 42.3047 25.125C43.112 24.6406 44.138 24.3984 45.3828 24.3984C46.6224 24.3984 47.6406 24.6406 48.4375 25.125C49.2396 25.6094 49.8333 26.2917 50.2188 27.1719C50.6094 28.0521 50.8047 29.0859 50.8047 30.2734ZM42.4688 30.2734C42.4688 31.0703 42.5677 31.7578 42.7656 32.3359C42.9688 32.9089 43.2839 33.3516 43.7109 33.6641C44.138 33.9714 44.6901 34.125 45.3672 34.125C46.0547 34.125 46.612 33.9714 47.0391 33.6641C47.4661 33.3516 47.776 32.9089 47.9688 32.3359C48.1667 31.7578 48.2656 31.0703 48.2656 30.2734C48.2656 29.0755 48.0417 28.1328 47.5938 27.4453C47.1458 26.7578 46.4089 26.4141 45.3828 26.4141C44.7005 26.4141 44.1432 26.5703 43.7109 26.8828C43.2839 27.1901 42.9688 27.6328 42.7656 28.2109C42.5677 28.7839 42.4688 29.4714 42.4688 30.2734ZM62.4688 24.5781V31.9688C62.4688 32.7552 62.2943 33.4661 61.9453 34.1016C61.6016 34.7318 61.0781 35.2318 60.375 35.6016C59.6771 35.9714 58.7969 36.1562 57.7344 36.1562C56.224 36.1562 55.0729 35.7708 54.2812 35C53.4896 34.2292 53.0938 33.2083 53.0938 31.9375V24.5781H55.5078V31.5703C55.5078 32.513 55.7005 33.1745 56.0859 33.5547C56.4714 33.9349 57.0417 34.125 57.7969 34.125C58.3281 34.125 58.7578 34.0339 59.0859 33.8516C59.4193 33.6693 59.6641 33.388 59.8203 33.0078C59.9766 32.6276 60.0547 32.1432 60.0547 31.5547V24.5781H62.4688ZM75.6328 30.2734C75.6328 31.1536 75.5234 31.9557 75.3047 32.6797C75.0859 33.3984 74.7526 34.0182 74.3047 34.5391C73.862 35.0599 73.2995 35.4609 72.6172 35.7422C71.9349 36.0182 71.1276 36.1562 70.1953 36.1562C69.263 36.1562 68.4557 36.0182 67.7734 35.7422C67.0911 35.4609 66.526 35.0599 66.0781 34.5391C65.6354 34.0182 65.3047 33.3958 65.0859 32.6719C64.8672 31.9479 64.7578 31.1432 64.7578 30.2578C64.7578 29.0755 64.9505 28.0469 65.3359 27.1719C65.7266 26.2917 66.3255 25.6094 67.1328 25.125C67.9401 24.6406 68.9661 24.3984 70.2109 24.3984C71.4505 24.3984 72.4688 24.6406 73.2656 25.125C74.0677 25.6094 74.6615 26.2917 75.0469 27.1719C75.4375 28.0521 75.6328 29.0859 75.6328 30.2734ZM67.2969 30.2734C67.2969 31.0703 67.3958 31.7578 67.5938 32.3359C67.7969 32.9089 68.112 33.3516 68.5391 33.6641C68.9661 33.9714 69.5182 34.125 70.1953 34.125C70.8828 34.125 71.4401 33.9714 71.8672 33.6641C72.2943 33.3516 72.6042 32.9089 72.7969 32.3359C72.9948 31.7578 73.0938 31.0703 73.0938 30.2734C73.0938 29.0755 72.8698 28.1328 72.4219 27.4453C71.974 26.7578 71.237 26.4141 70.2109 26.4141C69.5286 26.4141 68.9714 26.5703 68.5391 26.8828C68.112 27.1901 67.7969 27.6328 67.5938 28.2109C67.3958 28.7839 67.2969 29.4714 67.2969 30.2734ZM82.4062 36H79.9844V26.5938H76.8828V24.5781H85.5078V26.5938H82.4062V36ZM93.8438 36H87.2656V24.5781H93.8438V26.5625H89.6875V29.0703H93.5547V31.0547H89.6875V34H93.8438V36ZM110.523 36H107.445L102.477 27.3594H102.406C102.427 27.7188 102.445 28.0807 102.461 28.4453C102.477 28.8099 102.492 29.1745 102.508 29.5391C102.523 29.8984 102.539 30.2604 102.555 30.625V36H100.391V24.5781H103.445L108.406 33.1328H108.461C108.451 32.7786 108.438 32.4271 108.422 32.0781C108.406 31.7292 108.391 31.3802 108.375 31.0312C108.365 30.6823 108.354 30.3333 108.344 29.9844V24.5781H110.523V36ZM123.773 30.2734C123.773 31.1536 123.664 31.9557 123.445 32.6797C123.227 33.3984 122.893 34.0182 122.445 34.5391C122.003 35.0599 121.44 35.4609 120.758 35.7422C120.076 36.0182 119.268 36.1562 118.336 36.1562C117.404 36.1562 116.596 36.0182 115.914 35.7422C115.232 35.4609 114.667 35.0599 114.219 34.5391C113.776 34.0182 113.445 33.3958 113.227 32.6719C113.008 31.9479 112.898 31.1432 112.898 30.2578C112.898 29.0755 113.091 28.0469 113.477 27.1719C113.867 26.2917 114.466 25.6094 115.273 25.125C116.081 24.6406 117.107 24.3984 118.352 24.3984C119.591 24.3984 120.609 24.6406 121.406 25.125C122.208 25.6094 122.802 26.2917 123.188 27.1719C123.578 28.0521 123.773 29.0859 123.773 30.2734ZM115.438 30.2734C115.438 31.0703 115.536 31.7578 115.734 32.3359C115.938 32.9089 116.253 33.3516 116.68 33.6641C117.107 33.9714 117.659 34.125 118.336 34.125C119.023 34.125 119.581 33.9714 120.008 33.6641C120.435 33.3516 120.745 32.9089 120.938 32.3359C121.135 31.7578 121.234 31.0703 121.234 30.2734C121.234 29.0755 121.01 28.1328 120.562 27.4453C120.115 26.7578 119.378 26.4141 118.352 26.4141C117.669 26.4141 117.112 26.5703 116.68 26.8828C116.253 27.1901 115.938 27.6328 115.734 28.2109C115.536 28.7839 115.438 29.4714 115.438 30.2734ZM140.172 24.5781L137.266 36H134.508L132.961 30C132.93 29.8854 132.888 29.7109 132.836 29.4766C132.784 29.2422 132.729 28.987 132.672 28.7109C132.615 28.4297 132.562 28.1667 132.516 27.9219C132.474 27.6719 132.445 27.474 132.43 27.3281C132.414 27.474 132.383 27.6693 132.336 27.9141C132.294 28.1589 132.245 28.4193 132.188 28.6953C132.135 28.9714 132.083 29.2292 132.031 29.4688C131.979 29.7083 131.938 29.8906 131.906 30.0156L130.367 36H127.617L124.703 24.5781H127.086L128.547 30.8125C128.589 31 128.635 31.224 128.688 31.4844C128.745 31.7448 128.799 32.0182 128.852 32.3047C128.909 32.5859 128.958 32.8594 129 33.125C129.047 33.3854 129.081 33.612 129.102 33.8047C129.128 33.6068 129.161 33.3776 129.203 33.1172C129.245 32.8516 129.289 32.5833 129.336 32.3125C129.388 32.0365 129.44 31.7812 129.492 31.5469C129.544 31.3125 129.591 31.1224 129.633 30.9766L131.297 24.5781H133.586L135.25 30.9766C135.286 31.1172 135.328 31.3073 135.375 31.5469C135.427 31.7812 135.479 32.0365 135.531 32.3125C135.583 32.5885 135.63 32.8594 135.672 33.125C135.719 33.3854 135.753 33.612 135.773 33.8047C135.81 33.5443 135.859 33.2292 135.922 32.8594C135.99 32.4844 136.06 32.112 136.133 31.7422C136.211 31.3724 136.279 31.0625 136.336 30.8125L137.789 24.5781H140.172Z" fill="white"/>
<path fill-rule="evenodd" clip-rule="evenodd" d="M162.22 25.2093C162.36 25.0753 162.551 25 162.75 25C162.949 25 163.14 25.0753 163.28 25.2093L167.78 29.4989C167.921 29.6329 168 29.8147 168 30.0043C168 30.1939 167.921 30.3757 167.78 30.5098L163.28 34.7993C163.139 34.9295 162.949 35.0016 162.753 35C162.556 34.9983 162.368 34.9232 162.229 34.7906C162.09 34.6581 162.011 34.4787 162.009 34.2913C162.008 34.1038 162.083 33.9232 162.22 33.7884L165.44 30.7192H156.75C156.551 30.7192 156.36 30.6439 156.22 30.5098C156.079 30.3758 156 30.1939 156 30.0043C156 29.8147 156.079 29.6329 156.22 29.4988C156.36 29.3647 156.551 29.2894 156.75 29.2894H165.44L162.22 26.2202C162.079 26.0862 162 25.9043 162 25.7148C162 25.5252 162.079 25.3434 162.22 25.2093Z" fill="white"/>
</svg>
