<svg width="208" height="60" viewBox="0 0 208 60" fill="none" xmlns="http://www.w3.org/2000/svg">
<rect width="208" height="60" rx="4" fill="white"/>
<path d="M46.2891 26.4297C45.8255 26.4297 45.4141 26.5208 45.0547 26.7031C44.7005 26.8802 44.401 27.138 44.1562 27.4766C43.9167 27.8151 43.7344 28.224 43.6094 28.7031C43.4844 29.1823 43.4219 29.7214 43.4219 30.3203C43.4219 31.1276 43.5208 31.8177 43.7188 32.3906C43.9219 32.9583 44.2344 33.3932 44.6562 33.6953C45.0781 33.9922 45.6224 34.1406 46.2891 34.1406C46.7526 34.1406 47.2161 34.0885 47.6797 33.9844C48.1484 33.8802 48.6562 33.7318 49.2031 33.5391V35.5703C48.6979 35.7786 48.2005 35.9271 47.7109 36.0156C47.2214 36.1094 46.6719 36.1562 46.0625 36.1562C44.8854 36.1562 43.9167 35.9141 43.1562 35.4297C42.401 34.9401 41.8411 34.2578 41.4766 33.3828C41.112 32.5026 40.9297 31.4766 40.9297 30.3047C40.9297 29.4401 41.0469 28.6484 41.2812 27.9297C41.5156 27.2109 41.8594 26.5885 42.3125 26.0625C42.7656 25.5365 43.3255 25.1302 43.9922 24.8438C44.6589 24.5573 45.4245 24.4141 46.2891 24.4141C46.8568 24.4141 47.4245 24.487 47.9922 24.6328C48.5651 24.7734 49.112 24.9688 49.6328 25.2188L48.8516 27.1875C48.4245 26.9844 47.9948 26.8073 47.5625 26.6562C47.1302 26.5052 46.7057 26.4297 46.2891 26.4297ZM62.0078 30.2734C62.0078 31.1536 61.8984 31.9557 61.6797 32.6797C61.4609 33.3984 61.1276 34.0182 60.6797 34.5391C60.237 35.0599 59.6745 35.4609 58.9922 35.7422C58.3099 36.0182 57.5026 36.1562 56.5703 36.1562C55.638 36.1562 54.8307 36.0182 54.1484 35.7422C53.4661 35.4609 52.901 35.0599 52.4531 34.5391C52.0104 34.0182 51.6797 33.3958 51.4609 32.6719C51.2422 31.9479 51.1328 31.1432 51.1328 30.2578C51.1328 29.0755 51.3255 28.0469 51.7109 27.1719C52.1016 26.2917 52.7005 25.6094 53.5078 25.125C54.3151 24.6406 55.3411 24.3984 56.5859 24.3984C57.8255 24.3984 58.8438 24.6406 59.6406 25.125C60.4427 25.6094 61.0365 26.2917 61.4219 27.1719C61.8125 28.0521 62.0078 29.0859 62.0078 30.2734ZM53.6719 30.2734C53.6719 31.0703 53.7708 31.7578 53.9688 32.3359C54.1719 32.9089 54.487 33.3516 54.9141 33.6641C55.3411 33.9714 55.8932 34.125 56.5703 34.125C57.2578 34.125 57.8151 33.9714 58.2422 33.6641C58.6693 33.3516 58.9792 32.9089 59.1719 32.3359C59.3698 31.7578 59.4688 31.0703 59.4688 30.2734C59.4688 29.0755 59.2448 28.1328 58.7969 27.4453C58.349 26.7578 57.612 26.4141 56.5859 26.4141C55.9036 26.4141 55.3464 26.5703 54.9141 26.8828C54.487 27.1901 54.1719 27.6328 53.9688 28.2109C53.7708 28.7839 53.6719 29.4714 53.6719 30.2734ZM74.5078 36H71.4297L66.4609 27.3594H66.3906C66.4115 27.7188 66.4297 28.0807 66.4453 28.4453C66.4609 28.8099 66.4766 29.1745 66.4922 29.5391C66.5078 29.8984 66.5234 30.2604 66.5391 30.625V36H64.375V24.5781H67.4297L72.3906 33.1328H72.4453C72.4349 32.7786 72.4219 32.4271 72.4062 32.0781C72.3906 31.7292 72.375 31.3802 72.3594 31.0312C72.349 30.6823 72.3385 30.3333 72.3281 29.9844V24.5781H74.5078V36ZM81.7969 36H79.375V26.5938H76.2734V24.5781H84.8984V26.5938H81.7969V36ZM93.6484 36L92.8203 33.2812H88.6562L87.8281 36H85.2188L89.25 24.5312H92.2109L96.2578 36H93.6484ZM92.2422 31.25L91.4141 28.5938C91.362 28.4167 91.2917 28.1901 91.2031 27.9141C91.1198 27.6328 91.0339 27.349 90.9453 27.0625C90.862 26.7708 90.7943 26.5182 90.7422 26.3047C90.6901 26.5182 90.6172 26.7839 90.5234 27.1016C90.4349 27.4141 90.349 27.7109 90.2656 27.9922C90.1823 28.2734 90.1224 28.474 90.0859 28.5938L89.2656 31.25H92.2422ZM102.555 26.4297C102.091 26.4297 101.68 26.5208 101.32 26.7031C100.966 26.8802 100.667 27.138 100.422 27.4766C100.182 27.8151 100 28.224 99.875 28.7031C99.75 29.1823 99.6875 29.7214 99.6875 30.3203C99.6875 31.1276 99.7865 31.8177 99.9844 32.3906C100.188 32.9583 100.5 33.3932 100.922 33.6953C101.344 33.9922 101.888 34.1406 102.555 34.1406C103.018 34.1406 103.482 34.0885 103.945 33.9844C104.414 33.8802 104.922 33.7318 105.469 33.5391V35.5703C104.964 35.7786 104.466 35.9271 103.977 36.0156C103.487 36.1094 102.938 36.1562 102.328 36.1562C101.151 36.1562 100.182 35.9141 99.4219 35.4297C98.6667 34.9401 98.1068 34.2578 97.7422 33.3828C97.3776 32.5026 97.1953 31.4766 97.1953 30.3047C97.1953 29.4401 97.3125 28.6484 97.5469 27.9297C97.7812 27.2109 98.125 26.5885 98.5781 26.0625C99.0312 25.5365 99.5911 25.1302 100.258 24.8438C100.924 24.5573 101.69 24.4141 102.555 24.4141C103.122 24.4141 103.69 24.487 104.258 24.6328C104.831 24.7734 105.378 24.9688 105.898 25.2188L105.117 27.1875C104.69 26.9844 104.26 26.8073 103.828 26.6562C103.396 26.5052 102.971 26.4297 102.555 26.4297ZM112.312 36H109.891V26.5938H106.789V24.5781H115.414V26.5938H112.312V36ZM130.625 24.5781V31.9688C130.625 32.7552 130.451 33.4661 130.102 34.1016C129.758 34.7318 129.234 35.2318 128.531 35.6016C127.833 35.9714 126.953 36.1562 125.891 36.1562C124.38 36.1562 123.229 35.7708 122.438 35C121.646 34.2292 121.25 33.2083 121.25 31.9375V24.5781H123.664V31.5703C123.664 32.513 123.857 33.1745 124.242 33.5547C124.628 33.9349 125.198 34.125 125.953 34.125C126.484 34.125 126.914 34.0339 127.242 33.8516C127.576 33.6693 127.82 33.388 127.977 33.0078C128.133 32.6276 128.211 32.1432 128.211 31.5547V24.5781H130.625ZM140.164 32.8281C140.164 33.5052 140 34.0938 139.672 34.5938C139.344 35.0938 138.865 35.4792 138.234 35.75C137.609 36.0208 136.849 36.1562 135.953 36.1562C135.557 36.1562 135.169 36.1302 134.789 36.0781C134.414 36.026 134.052 35.9505 133.703 35.8516C133.359 35.7474 133.031 35.6198 132.719 35.4688V33.2188C133.26 33.4583 133.823 33.6745 134.406 33.8672C134.99 34.0599 135.568 34.1562 136.141 34.1562C136.536 34.1562 136.854 34.1042 137.094 34C137.339 33.8958 137.516 33.7526 137.625 33.5703C137.734 33.388 137.789 33.1797 137.789 32.9453C137.789 32.6589 137.693 32.4141 137.5 32.2109C137.307 32.0078 137.042 31.8177 136.703 31.6406C136.37 31.4635 135.992 31.2734 135.57 31.0703C135.305 30.9453 135.016 30.7943 134.703 30.6172C134.391 30.4349 134.094 30.2135 133.812 29.9531C133.531 29.6927 133.299 29.3776 133.117 29.0078C132.94 28.6328 132.852 28.1849 132.852 27.6641C132.852 26.9818 133.008 26.3984 133.32 25.9141C133.633 25.4297 134.078 25.0599 134.656 24.8047C135.24 24.5443 135.927 24.4141 136.719 24.4141C137.312 24.4141 137.878 24.4844 138.414 24.625C138.956 24.7604 139.521 24.9583 140.109 25.2188L139.328 27.1016C138.802 26.888 138.331 26.724 137.914 26.6094C137.497 26.4896 137.073 26.4297 136.641 26.4297C136.339 26.4297 136.081 26.4792 135.867 26.5781C135.654 26.6719 135.492 26.8073 135.383 26.9844C135.273 27.1562 135.219 27.3568 135.219 27.5859C135.219 27.8568 135.297 28.0859 135.453 28.2734C135.615 28.4557 135.854 28.6328 136.172 28.8047C136.495 28.9766 136.896 29.1771 137.375 29.4062C137.958 29.6823 138.456 29.9714 138.867 30.2734C139.284 30.5703 139.604 30.9219 139.828 31.3281C140.052 31.7292 140.164 32.2292 140.164 32.8281Z" fill="#0A0A0B"/>
<path fill-rule="evenodd" clip-rule="evenodd" d="M162.22 25.2093C162.36 25.0753 162.551 25 162.75 25C162.949 25 163.14 25.0753 163.28 25.2093L167.78 29.4989C167.921 29.6329 168 29.8147 168 30.0043C168 30.1939 167.921 30.3757 167.78 30.5098L163.28 34.7993C163.139 34.9295 162.949 35.0016 162.753 35C162.556 34.9983 162.368 34.9232 162.229 34.7906C162.09 34.6581 162.011 34.4787 162.009 34.2913C162.008 34.1038 162.083 33.9232 162.22 33.7884L165.44 30.7192H156.75C156.551 30.7192 156.36 30.6439 156.22 30.5098C156.079 30.3758 156 30.1939 156 30.0043C156 29.8147 156.079 29.6329 156.22 29.4988C156.36 29.3647 156.551 29.2894 156.75 29.2894H165.44L162.22 26.2202C162.079 26.0862 162 25.9043 162 25.7148C162 25.5252 162.079 25.3434 162.22 25.2093Z" fill="#0A0A0B"/>
</svg>
