<svg width="60" height="60" viewBox="0 0 60 60" fill="none" xmlns="http://www.w3.org/2000/svg">
<rect width="60" height="60" rx="30" fill="white"/>
<path fill-rule="evenodd" clip-rule="evenodd" d="M36.2409 15.0957C35.9398 15.2017 35.601 15.5188 35.4373 15.8479C35.3281 16.0674 35.3216 16.2114 35.3216 18.3966C35.3216 20.6592 35.3245 20.718 35.4488 20.9472C35.5188 21.0762 35.6644 21.2662 35.7724 21.3693C36.1073 21.6892 36.349 21.7572 37.2516 21.7855L38.0638 21.8109L38.0319 21.9654C37.9267 22.4752 37.5832 24.5713 37.5982 24.6122C37.6081 24.6392 38.6487 24.0173 39.9107 23.2301L42.2053 21.7989L42.8938 21.7982C43.2724 21.7978 43.717 21.7686 43.8818 21.7334C44.289 21.6463 44.6398 21.3701 44.8382 20.9803L45 20.6623L44.9987 18.3714C44.9975 16.2762 44.9882 16.0603 44.8895 15.8437C44.7535 15.5454 44.3133 15.1549 44.0111 15.0647C43.8442 15.0149 42.7718 14.997 40.1393 15.0004C37.0131 15.0044 36.4619 15.0178 36.2409 15.0957ZM43.9142 16.1365L44.0587 16.2804V18.3391C44.0587 20.4396 44.0472 20.558 43.8284 20.7254C43.7648 20.774 43.4542 20.7975 42.8568 20.7987L41.9786 20.8006L40.4572 21.7465C39.6205 22.2668 38.9264 22.6823 38.9148 22.67C38.9033 22.6577 38.9668 22.232 39.0562 21.7241L39.2184 20.8006H37.8998H36.5812L36.4368 20.6566L36.2924 20.5128V18.3884C36.2924 16.2879 36.2938 16.2624 36.4202 16.1282L36.5482 15.9925H40.159H43.7698L43.9142 16.1365ZM28.6732 16.499C28.0673 16.5632 26.9301 16.7791 26.3666 16.9367C24.0642 17.581 22.0535 18.7494 20.3747 20.4185C18.7061 22.0772 17.5516 24.0159 16.9123 26.2324L16.7155 26.9149L16.2873 26.2013C16.0517 25.8087 15.8362 25.4735 15.8083 25.4563C15.77 25.4327 15.1685 25.7488 15.0002 25.8809C14.9828 25.8946 16.3112 28.1449 16.6351 28.6504C16.6755 28.7132 16.9956 28.5468 18.0908 27.8935C18.863 27.433 19.503 27.05 19.5129 27.0424C19.5259 27.0325 19.1005 26.3003 19.0316 26.2142C19.0272 26.2087 18.7457 26.3728 18.4061 26.5788C18.0665 26.7849 17.7708 26.9544 17.749 26.9554C17.6859 26.9584 17.9252 26.164 18.2001 25.4582C19.6802 21.6583 22.8761 18.8338 26.8555 17.809C28.8188 17.3034 31.0875 17.3029 33.0714 17.8078L33.7041 17.9688L33.8455 17.523C33.949 17.1967 33.9683 17.0668 33.9178 17.0381C33.793 16.9672 32.8989 16.7562 32.1916 16.6306C31.6566 16.5357 31.2002 16.5036 30.2029 16.4908C29.491 16.4816 28.8026 16.4853 28.6732 16.499ZM37.2461 17.4144L37.2631 17.8982L40.1608 17.9134L43.0585 17.9286V17.4296V16.9307H40.1437H37.229L37.2461 17.4144ZM37.2461 19.3494L37.2631 19.8331L39.19 19.8486L41.1169 19.864V19.3649V18.8657H39.1729H37.229L37.2461 19.3494ZM42.1171 19.364V19.8624H42.5878H43.0585V19.364V18.8657H42.5878H42.1171V19.364ZM29.0262 19.9008C27.8227 20.0924 26.5711 20.6976 25.66 21.5286C24.8469 22.2701 24.1472 23.4443 23.8343 24.5921L23.6771 25.1689L23.6747 27.5729L23.6722 29.977L23.8252 30.3022C24.0476 30.7748 24.306 31.0359 24.7749 31.2619L25.1878 31.461L25.351 31.9666C25.4407 32.2447 25.6292 32.6749 25.7698 32.9225C26.0556 33.4255 26.7964 34.2141 27.2463 34.4939C27.4406 34.6148 27.5257 34.7066 27.5258 34.7955C27.5259 34.9424 27.67 34.9066 25.4564 35.3102C24.658 35.4557 23.8599 35.6288 23.6828 35.6949C22.7413 36.046 22.0252 36.7917 21.6664 37.795C21.578 38.0422 21.4888 38.2642 21.4683 38.2882C21.4477 38.3123 21.0416 37.9409 20.5658 37.463C19.3972 36.289 19.3866 36.4561 20.7144 35.125L21.728 34.1089L19.9348 32.3197L18.1416 30.5305L16.8421 31.8368C15.7461 32.9386 15.5136 33.2029 15.3575 33.5243C15.0681 34.1202 14.9773 34.5675 15.0071 35.2505C15.0356 35.9043 15.1597 36.3272 15.4751 36.8459C15.5984 37.0486 16.9366 38.42 19.3443 40.8111C22.7814 44.2246 23.0519 44.4792 23.4313 44.6587C24.4885 45.1589 25.7762 45.1055 26.7032 44.5231C26.8629 44.4227 27.6021 43.7869 28.3459 43.1102L29.6981 41.8798L29.3344 41.5133L28.9708 41.1469H34.1613C37.016 41.1469 39.3518 41.1266 39.3518 41.1018C39.3518 40.9447 38.1512 37.5121 37.9903 37.2091C37.7407 36.7393 37.1339 36.1307 36.6748 35.8896C36.1883 35.6341 35.8928 35.5582 34.2037 35.2546C32.2491 34.9031 32.4086 34.9441 32.4129 34.795C32.4155 34.706 32.5506 34.5707 32.8619 34.3453C33.1068 34.1678 33.4237 33.8869 33.5661 33.721L33.8251 33.4193L34.5145 33.3962C35.0713 33.3775 35.2493 33.3492 35.44 33.2494C35.7386 33.093 35.9749 32.8583 36.1365 32.5576C36.2618 32.3245 36.2629 32.2904 36.2629 28.8629C36.2629 25.7554 36.2522 25.3538 36.1573 24.9155C35.634 22.4975 33.907 20.6754 31.5289 20.032C31.1912 19.9407 30.8608 19.9074 30.1441 19.8924C29.6263 19.8816 29.1233 19.8854 29.0262 19.9008ZM30.838 20.8881C32.7627 21.2226 34.3794 22.5835 35.0026 24.3936C35.2402 25.0837 35.2912 25.4965 35.2917 26.7327L35.2922 27.8273L35.0568 27.7352C34.8273 27.6454 34.8215 27.636 34.8215 27.3588V27.0745H34.2601C32.8314 27.0745 31.4847 26.492 30.4133 25.4106L29.9765 24.9697L29.4629 25.4568C28.2948 26.5647 27.101 27.0745 25.675 27.0745H25.1136V27.3588C25.1136 27.6371 25.1086 27.6451 24.8728 27.7373L24.632 27.8316L24.6588 26.4709C24.6888 24.9536 24.7242 24.7566 25.1173 23.9174C25.825 22.4068 27.2063 21.2854 28.7659 20.9552C29.6072 20.7771 30.1064 20.761 30.838 20.8881ZM41.8591 24.1564C41.8121 24.2296 41.4281 24.8635 41.0059 25.5652L40.2382 26.8409L40.4863 26.9935C40.6228 27.0775 40.7931 27.1828 40.8647 27.2276C40.9364 27.2724 41.0165 27.3091 41.0427 27.3091C41.0689 27.3091 41.2728 27.0035 41.4958 26.63C41.7637 26.1813 41.9159 25.9775 41.9447 26.0291C41.9686 26.0719 42.0564 26.3577 42.1398 26.6641C43.1391 30.3359 42.4254 34.2814 40.2044 37.3634C40.0191 37.6206 39.8558 37.8613 39.8416 37.8983C39.8188 37.9573 40.4428 38.5067 40.5337 38.5079C40.6043 38.5088 41.2578 37.578 41.6584 36.9061C42.917 34.7951 43.5437 32.5045 43.546 30.0062C43.5472 28.6573 43.3553 27.2945 43.0015 26.1394C42.9377 25.9315 42.8927 25.7542 42.9014 25.7456C42.9149 25.7321 43.429 26.0292 44.0987 26.4373L44.286 26.5514L44.5332 26.1367C44.6691 25.9087 44.7703 25.7124 44.7578 25.7006C44.7293 25.6735 42.2114 24.1658 42.058 24.0841C41.9662 24.0351 41.9282 24.0489 41.8591 24.1564ZM30.3768 26.6806C31.1424 27.3099 32.2503 27.8093 33.2035 27.9548C33.4624 27.9944 33.7073 28.036 33.7477 28.0472C33.8041 28.0628 33.8211 28.4135 33.8204 29.55C33.8194 31.1436 33.7814 31.4458 33.5026 32.0723L33.3529 32.4085L31.6602 32.4241L29.9675 32.4396V32.9087V33.3778L31.2325 33.4071L32.4975 33.4364L32.2195 33.6287C31.8026 33.9173 31.2598 34.1552 30.7723 34.2634C30.1893 34.3926 29.291 34.3525 28.7614 34.1734C27.5691 33.7704 26.6533 32.8387 26.2499 31.6187C26.1023 31.1722 26.0936 31.0768 26.0684 29.6326C26.0395 27.9734 26.0313 28.0153 26.3858 28.0136C26.6692 28.0122 27.6299 27.7529 28.1168 27.5465C28.5694 27.3545 29.5881 26.7124 29.7854 26.4946C29.8471 26.4265 29.9206 26.3709 29.9488 26.3709C29.977 26.3709 30.1696 26.5103 30.3768 26.6806ZM25.1136 29.5474V30.3785L24.961 30.2363C24.877 30.1582 24.7711 30.023 24.7256 29.9359C24.6263 29.7457 24.6172 29.2861 24.7091 29.1082C24.7931 28.9457 25.0014 28.7163 25.065 28.7163C25.0918 28.7163 25.1136 29.0903 25.1136 29.5474ZM35.1843 29.0711C35.3902 29.4536 35.3045 29.9288 34.9741 30.2363L34.8215 30.3785V29.5402V28.702L34.949 28.7864C35.0191 28.8328 35.125 28.9609 35.1843 29.0711ZM35.2922 31.68C35.2922 32.0716 35.2756 32.139 35.1477 32.2663C35.0339 32.3798 34.9426 32.4103 34.7167 32.4103H34.4301L34.5654 32.0145C34.6399 31.7968 34.7014 31.5783 34.7023 31.5289C34.7035 31.4559 35.0474 31.2767 35.248 31.2446C35.2723 31.2407 35.2922 31.4366 35.2922 31.68ZM20.1114 34.3741L19.8465 34.6382L18.7308 33.5252L17.6152 32.4122L17.877 32.1463L18.139 31.8803L19.2577 32.9952L20.3764 34.1101L20.1114 34.3741ZM18.9702 35.5456C18.6679 35.9896 18.6289 36.5617 18.8695 37.0238C19.0459 37.3625 22.7933 41.0599 23.0813 41.1793C23.5341 41.3671 24.2386 41.267 24.556 40.9697C24.6763 40.8572 24.6801 40.8602 25.7924 41.9729L26.9081 43.0889L26.6003 43.3738C26.4311 43.5304 26.1398 43.7333 25.9531 43.8246C25.64 43.9778 25.5614 43.9906 24.9371 43.9901C23.83 43.9892 24.1424 44.2351 19.9533 40.0678C16.0307 36.1655 16.1344 36.2858 15.9799 35.4577C15.8506 34.7646 16.092 33.9957 16.6243 33.4057L16.8961 33.1044L18.0091 34.2136L19.1221 35.3227L18.9702 35.5456ZM29.9969 35.3025C30.4729 35.3002 30.8465 35.2669 31.0559 35.2081C31.2338 35.158 31.3852 35.1229 31.3922 35.1298C31.3993 35.1368 31.0812 35.4645 30.6854 35.858L29.9659 36.5734L29.2382 35.8465L28.5106 35.1196L28.886 35.2128C29.1344 35.2745 29.5104 35.3048 29.9969 35.3025ZM28.8932 36.9099L29.9381 37.9501L30.9919 36.9011L32.0457 35.8522L33.8895 36.1847C35.3827 36.454 35.8021 36.5506 36.0944 36.6923C36.4943 36.8862 36.8564 37.2066 37.0872 37.5711C37.2146 37.7722 37.9986 39.9481 37.9986 40.1006C37.9986 40.1278 35.7412 40.1501 32.9822 40.1501H27.9658L27.0552 39.2413C26.5544 38.7414 26.1217 38.3324 26.0935 38.3324C26.0653 38.3324 25.6679 38.6711 25.2103 39.0851C23.8795 40.2889 23.8322 40.326 23.6306 40.326C23.4797 40.326 23.3474 40.2262 22.8458 39.7342L22.2424 39.1425L22.4702 38.4667C22.7284 37.7006 22.9592 37.3039 23.3161 37.0124C23.7705 36.6414 24.106 36.5363 25.9099 36.2C26.8472 36.0253 27.6668 35.8794 27.7312 35.876C27.8089 35.8718 28.2002 36.22 28.8932 36.9099ZM27.9823 42.1287L27.6752 42.4387L26.5562 41.3203L25.4372 40.2019L25.7555 39.9073L26.0737 39.6128L27.1816 40.7158L28.2895 41.8187L27.9823 42.1287Z" fill="#FE8C12"/>
</svg>
