<svg width="240" height="196" viewBox="0 0 240 196" fill="none" xmlns="http://www.w3.org/2000/svg">
<path d="M41.2578 155.006H44.3682C45.6989 155.006 46.7061 155.193 47.3896 155.566C48.0732 155.94 48.415 156.596 48.415 157.535C48.415 157.913 48.3535 158.255 48.2305 158.561C48.112 158.866 47.9388 159.117 47.7109 159.312C47.4831 159.508 47.2051 159.636 46.877 159.695V159.764C47.2096 159.832 47.5104 159.951 47.7793 160.119C48.0482 160.283 48.2624 160.525 48.4219 160.844C48.5859 161.158 48.668 161.577 48.668 162.102C48.668 162.708 48.5199 163.227 48.2236 163.66C47.9274 164.093 47.5036 164.426 46.9521 164.658C46.4053 164.886 45.7536 165 44.9971 165H41.2578V155.006ZM43.377 158.964H44.6074C45.2227 158.964 45.6488 158.868 45.8857 158.677C46.1227 158.481 46.2412 158.194 46.2412 157.815C46.2412 157.433 46.0999 157.159 45.8174 156.995C45.5394 156.826 45.0973 156.742 44.4912 156.742H43.377V158.964ZM43.377 160.646V163.25H44.7578C45.3958 163.25 45.8402 163.127 46.0908 162.881C46.3415 162.635 46.4668 162.304 46.4668 161.89C46.4668 161.644 46.4121 161.427 46.3027 161.24C46.1934 161.053 46.0088 160.908 45.749 160.803C45.4938 160.698 45.1406 160.646 44.6895 160.646H43.377ZM52.585 157.357V165H50.5V157.357H52.585ZM51.5459 154.363C51.8558 154.363 52.1224 154.436 52.3457 154.582C52.569 154.723 52.6807 154.99 52.6807 155.382C52.6807 155.769 52.569 156.038 52.3457 156.188C52.1224 156.334 51.8558 156.407 51.5459 156.407C51.2314 156.407 50.9626 156.334 50.7393 156.188C50.5205 156.038 50.4111 155.769 50.4111 155.382C50.4111 154.99 50.5205 154.723 50.7393 154.582C50.9626 154.436 51.2314 154.363 51.5459 154.363ZM59.0449 157.214C59.1497 157.214 59.2705 157.221 59.4072 157.234C59.5485 157.243 59.6624 157.257 59.749 157.275L59.5918 159.23C59.5234 159.208 59.4255 159.192 59.2979 159.183C59.1748 159.169 59.0677 159.162 58.9766 159.162C58.7077 159.162 58.4456 159.196 58.1904 159.265C57.9398 159.333 57.7142 159.445 57.5137 159.6C57.3132 159.75 57.1536 159.951 57.0352 160.201C56.9212 160.447 56.8643 160.75 56.8643 161.11V165H54.7793V157.357H56.3584L56.666 158.643H56.7686C56.9189 158.383 57.1058 158.146 57.3291 157.932C57.557 157.713 57.8145 157.54 58.1016 157.412C58.3932 157.28 58.7077 157.214 59.0449 157.214ZM63.2217 154.363V159.121C63.2217 159.408 63.2103 159.695 63.1875 159.982C63.1647 160.27 63.1396 160.557 63.1123 160.844H63.1396C63.2809 160.643 63.4245 160.445 63.5703 160.249C63.7207 160.053 63.8802 159.864 64.0488 159.682L66.1885 157.357H68.54L65.5049 160.673L68.7246 165H66.3184L64.1172 161.903L63.2217 162.621V165H61.1367V154.363H63.2217ZM71.9033 154.363V156.838C71.9033 157.125 71.8942 157.41 71.876 157.692C71.8623 157.975 71.8441 158.194 71.8213 158.349H71.9033C72.1038 158.034 72.3773 157.768 72.7236 157.549C73.07 157.326 73.5189 157.214 74.0703 157.214C74.9271 157.214 75.6221 157.549 76.1553 158.219C76.6885 158.889 76.9551 159.871 76.9551 161.165C76.9551 162.035 76.832 162.767 76.5859 163.359C76.3398 163.947 75.9958 164.392 75.5537 164.692C75.1117 164.989 74.599 165.137 74.0156 165.137C73.4551 165.137 73.013 165.036 72.6895 164.836C72.3659 164.635 72.1038 164.41 71.9033 164.159H71.7598L71.4111 165H69.8184V154.363H71.9033ZM73.4004 158.882C73.0358 158.882 72.7464 158.957 72.5322 159.107C72.318 159.258 72.1608 159.483 72.0605 159.784C71.9648 160.085 71.9124 160.465 71.9033 160.926V161.151C71.9033 161.894 72.0127 162.464 72.2314 162.86C72.4502 163.252 72.849 163.448 73.4277 163.448C73.8561 163.448 74.1956 163.25 74.4463 162.854C74.7015 162.457 74.8291 161.885 74.8291 161.138C74.8291 160.39 74.7015 159.827 74.4463 159.449C74.1911 159.071 73.8424 158.882 73.4004 158.882ZM81.8291 157.214C82.5355 157.214 83.1439 157.351 83.6543 157.624C84.1647 157.893 84.5589 158.285 84.8369 158.8C85.1149 159.315 85.2539 159.944 85.2539 160.687V161.698H80.3252C80.348 162.286 80.5234 162.749 80.8516 163.086C81.1842 163.419 81.6445 163.585 82.2324 163.585C82.7201 163.585 83.1667 163.535 83.5723 163.435C83.9779 163.334 84.3949 163.184 84.8232 162.983V164.597C84.445 164.784 84.0485 164.92 83.6338 165.007C83.2236 165.093 82.7246 165.137 82.1367 165.137C81.3711 165.137 80.6921 164.995 80.0996 164.713C79.5117 164.43 79.0492 164 78.7119 163.421C78.3792 162.842 78.2129 162.113 78.2129 161.233C78.2129 160.34 78.3633 159.597 78.6641 159.005C78.9694 158.408 79.3932 157.961 79.9355 157.665C80.4779 157.364 81.109 157.214 81.8291 157.214ZM81.8428 158.697C81.4372 158.697 81.0999 158.827 80.8311 159.087C80.5667 159.347 80.4141 159.755 80.373 160.311H83.2988C83.2943 160.001 83.2373 159.725 83.1279 159.483C83.0231 159.242 82.8636 159.05 82.6494 158.909C82.4398 158.768 82.1709 158.697 81.8428 158.697ZM90.0527 165.137C89.2962 165.137 88.6514 165 88.1182 164.727C87.585 164.449 87.1794 164.02 86.9014 163.441C86.6234 162.863 86.4844 162.122 86.4844 161.22C86.4844 160.285 86.6416 159.524 86.9561 158.937C87.2751 158.344 87.7148 157.909 88.2754 157.631C88.8405 157.353 89.4945 157.214 90.2373 157.214C90.766 157.214 91.2217 157.266 91.6045 157.371C91.9919 157.471 92.3291 157.592 92.6162 157.733L92.001 159.347C91.6729 159.215 91.3675 159.107 91.085 159.025C90.8024 158.939 90.5199 158.896 90.2373 158.896C89.8727 158.896 89.5697 158.982 89.3281 159.155C89.0866 159.324 88.9066 159.579 88.7881 159.921C88.6696 160.263 88.6104 160.691 88.6104 161.206C88.6104 161.712 88.6742 162.131 88.8018 162.464C88.9294 162.797 89.1139 163.045 89.3555 163.209C89.597 163.368 89.891 163.448 90.2373 163.448C90.6702 163.448 91.0553 163.391 91.3926 163.277C91.7298 163.159 92.0579 162.995 92.377 162.785V164.569C92.0579 164.77 91.723 164.913 91.3721 165C91.0257 165.091 90.5859 165.137 90.0527 165.137ZM96.2393 154.363V159.121C96.2393 159.408 96.2279 159.695 96.2051 159.982C96.1823 160.27 96.1572 160.557 96.1299 160.844H96.1572C96.2985 160.643 96.4421 160.445 96.5879 160.249C96.7383 160.053 96.8978 159.864 97.0664 159.682L99.2061 157.357H101.558L98.5225 160.673L101.742 165H99.3359L97.1348 161.903L96.2393 162.621V165H94.1543V154.363H96.2393ZM110.882 156.626C110.476 156.626 110.116 156.706 109.802 156.865C109.492 157.02 109.23 157.246 109.016 157.542C108.806 157.838 108.646 158.196 108.537 158.615C108.428 159.035 108.373 159.506 108.373 160.03C108.373 160.737 108.46 161.34 108.633 161.842C108.811 162.339 109.084 162.719 109.453 162.983C109.822 163.243 110.299 163.373 110.882 163.373C111.287 163.373 111.693 163.327 112.099 163.236C112.509 163.145 112.953 163.015 113.432 162.847V164.624C112.99 164.806 112.554 164.936 112.126 165.014C111.698 165.096 111.217 165.137 110.684 165.137C109.654 165.137 108.806 164.925 108.141 164.501C107.48 164.073 106.99 163.476 106.671 162.71C106.352 161.94 106.192 161.042 106.192 160.017C106.192 159.26 106.295 158.567 106.5 157.938C106.705 157.31 107.006 156.765 107.402 156.305C107.799 155.844 108.289 155.489 108.872 155.238C109.455 154.988 110.125 154.862 110.882 154.862C111.379 154.862 111.875 154.926 112.372 155.054C112.873 155.177 113.352 155.348 113.808 155.566L113.124 157.289C112.75 157.111 112.374 156.956 111.996 156.824C111.618 156.692 111.246 156.626 110.882 156.626ZM122.346 161.165C122.346 161.803 122.259 162.368 122.086 162.86C121.917 163.353 121.669 163.77 121.341 164.111C121.017 164.449 120.625 164.704 120.165 164.877C119.709 165.05 119.194 165.137 118.62 165.137C118.082 165.137 117.588 165.05 117.137 164.877C116.69 164.704 116.3 164.449 115.968 164.111C115.64 163.77 115.384 163.353 115.202 162.86C115.024 162.368 114.936 161.803 114.936 161.165C114.936 160.317 115.086 159.6 115.387 159.012C115.688 158.424 116.116 157.977 116.672 157.672C117.228 157.367 117.891 157.214 118.661 157.214C119.377 157.214 120.01 157.367 120.562 157.672C121.118 157.977 121.553 158.424 121.867 159.012C122.186 159.6 122.346 160.317 122.346 161.165ZM117.062 161.165C117.062 161.666 117.116 162.088 117.226 162.43C117.335 162.771 117.506 163.029 117.738 163.202C117.971 163.375 118.274 163.462 118.647 163.462C119.017 163.462 119.315 163.375 119.543 163.202C119.775 163.029 119.944 162.771 120.049 162.43C120.158 162.088 120.213 161.666 120.213 161.165C120.213 160.659 120.158 160.24 120.049 159.907C119.944 159.57 119.775 159.317 119.543 159.148C119.311 158.98 119.007 158.896 118.634 158.896C118.082 158.896 117.681 159.085 117.431 159.463C117.185 159.841 117.062 160.409 117.062 161.165ZM131.082 157.357V165H129.482L129.202 164.022H129.093C128.929 164.282 128.724 164.494 128.478 164.658C128.231 164.822 127.96 164.943 127.664 165.021C127.368 165.098 127.06 165.137 126.741 165.137C126.194 165.137 125.718 165.041 125.312 164.85C124.907 164.654 124.59 164.351 124.362 163.94C124.139 163.53 124.027 162.997 124.027 162.341V157.357H126.112V161.821C126.112 162.368 126.21 162.781 126.406 163.059C126.602 163.337 126.914 163.476 127.343 163.476C127.767 163.476 128.099 163.38 128.341 163.188C128.582 162.993 128.751 162.708 128.847 162.334C128.947 161.956 128.997 161.495 128.997 160.953V157.357H131.082ZM137.535 157.214C137.64 157.214 137.761 157.221 137.897 157.234C138.039 157.243 138.153 157.257 138.239 157.275L138.082 159.23C138.014 159.208 137.916 159.192 137.788 159.183C137.665 159.169 137.558 159.162 137.467 159.162C137.198 159.162 136.936 159.196 136.681 159.265C136.43 159.333 136.204 159.445 136.004 159.6C135.803 159.75 135.644 159.951 135.525 160.201C135.411 160.447 135.354 160.75 135.354 161.11V165H133.27V157.357H134.849L135.156 158.643H135.259C135.409 158.383 135.596 158.146 135.819 157.932C136.047 157.713 136.305 157.54 136.592 157.412C136.883 157.28 137.198 157.214 137.535 157.214ZM142.847 163.476C143.075 163.476 143.296 163.453 143.51 163.407C143.729 163.362 143.945 163.305 144.159 163.236V164.788C143.936 164.888 143.658 164.97 143.325 165.034C142.997 165.103 142.637 165.137 142.245 165.137C141.789 165.137 141.379 165.064 141.015 164.918C140.655 164.768 140.37 164.51 140.16 164.146C139.955 163.776 139.853 163.264 139.853 162.607V158.923H138.854V158.041L140.003 157.344L140.604 155.73H141.938V157.357H144.077V158.923H141.938V162.607C141.938 162.899 142.02 163.118 142.184 163.264C142.352 163.405 142.573 163.476 142.847 163.476ZM147.652 163.373L147.755 163.53C147.673 163.858 147.566 164.212 147.434 164.59C147.306 164.968 147.165 165.346 147.01 165.725C146.859 166.103 146.707 166.463 146.552 166.805H145.048C145.139 166.436 145.228 166.048 145.314 165.643C145.401 165.237 145.481 164.838 145.554 164.446C145.631 164.054 145.693 163.697 145.738 163.373H147.652ZM153.504 155.006H156.614C157.945 155.006 158.952 155.193 159.636 155.566C160.319 155.94 160.661 156.596 160.661 157.535C160.661 157.913 160.6 158.255 160.477 158.561C160.358 158.866 160.185 159.117 159.957 159.312C159.729 159.508 159.451 159.636 159.123 159.695V159.764C159.456 159.832 159.757 159.951 160.025 160.119C160.294 160.283 160.508 160.525 160.668 160.844C160.832 161.158 160.914 161.577 160.914 162.102C160.914 162.708 160.766 163.227 160.47 163.66C160.174 164.093 159.75 164.426 159.198 164.658C158.651 164.886 158 165 157.243 165H153.504V155.006ZM155.623 158.964H156.854C157.469 158.964 157.895 158.868 158.132 158.677C158.369 158.481 158.487 158.194 158.487 157.815C158.487 157.433 158.346 157.159 158.063 156.995C157.785 156.826 157.343 156.742 156.737 156.742H155.623V158.964ZM155.623 160.646V163.25H157.004C157.642 163.25 158.086 163.127 158.337 162.881C158.588 162.635 158.713 162.304 158.713 161.89C158.713 161.644 158.658 161.427 158.549 161.24C158.439 161.053 158.255 160.908 157.995 160.803C157.74 160.698 157.387 160.646 156.936 160.646H155.623ZM164.831 157.357V165H162.746V157.357H164.831ZM163.792 154.363C164.102 154.363 164.368 154.436 164.592 154.582C164.815 154.723 164.927 154.99 164.927 155.382C164.927 155.769 164.815 156.038 164.592 156.188C164.368 156.334 164.102 156.407 163.792 156.407C163.478 156.407 163.209 156.334 162.985 156.188C162.767 156.038 162.657 155.769 162.657 155.382C162.657 154.99 162.767 154.723 162.985 154.582C163.209 154.436 163.478 154.363 163.792 154.363ZM171.291 157.214C171.396 157.214 171.517 157.221 171.653 157.234C171.795 157.243 171.909 157.257 171.995 157.275L171.838 159.23C171.77 159.208 171.672 159.192 171.544 159.183C171.421 159.169 171.314 159.162 171.223 159.162C170.954 159.162 170.692 159.196 170.437 159.265C170.186 159.333 169.96 159.445 169.76 159.6C169.559 159.75 169.4 159.951 169.281 160.201C169.167 160.447 169.11 160.75 169.11 161.11V165H167.025V157.357H168.604L168.912 158.643H169.015C169.165 158.383 169.352 158.146 169.575 157.932C169.803 157.713 170.061 157.54 170.348 157.412C170.639 157.28 170.954 157.214 171.291 157.214ZM175.468 154.363V159.121C175.468 159.408 175.456 159.695 175.434 159.982C175.411 160.27 175.386 160.557 175.358 160.844H175.386C175.527 160.643 175.671 160.445 175.816 160.249C175.967 160.053 176.126 159.864 176.295 159.682L178.435 157.357H180.786L177.751 160.673L180.971 165H178.564L176.363 161.903L175.468 162.621V165H173.383V154.363H175.468ZM184.149 154.363V156.838C184.149 157.125 184.14 157.41 184.122 157.692C184.108 157.975 184.09 158.194 184.067 158.349H184.149C184.35 158.034 184.623 157.768 184.97 157.549C185.316 157.326 185.765 157.214 186.316 157.214C187.173 157.214 187.868 157.549 188.401 158.219C188.935 158.889 189.201 159.871 189.201 161.165C189.201 162.035 189.078 162.767 188.832 163.359C188.586 163.947 188.242 164.392 187.8 164.692C187.358 164.989 186.845 165.137 186.262 165.137C185.701 165.137 185.259 165.036 184.936 164.836C184.612 164.635 184.35 164.41 184.149 164.159H184.006L183.657 165H182.064V154.363H184.149ZM185.646 158.882C185.282 158.882 184.993 158.957 184.778 159.107C184.564 159.258 184.407 159.483 184.307 159.784C184.211 160.085 184.159 160.465 184.149 160.926V161.151C184.149 161.894 184.259 162.464 184.478 162.86C184.696 163.252 185.095 163.448 185.674 163.448C186.102 163.448 186.442 163.25 186.692 162.854C186.948 162.457 187.075 161.885 187.075 161.138C187.075 160.39 186.948 159.827 186.692 159.449C186.437 159.071 186.089 158.882 185.646 158.882ZM194.075 157.214C194.782 157.214 195.39 157.351 195.9 157.624C196.411 157.893 196.805 158.285 197.083 158.8C197.361 159.315 197.5 159.944 197.5 160.687V161.698H192.571C192.594 162.286 192.77 162.749 193.098 163.086C193.43 163.419 193.891 163.585 194.479 163.585C194.966 163.585 195.413 163.535 195.818 163.435C196.224 163.334 196.641 163.184 197.069 162.983V164.597C196.691 164.784 196.295 164.92 195.88 165.007C195.47 165.093 194.971 165.137 194.383 165.137C193.617 165.137 192.938 164.995 192.346 164.713C191.758 164.43 191.295 164 190.958 163.421C190.625 162.842 190.459 162.113 190.459 161.233C190.459 160.34 190.609 159.597 190.91 159.005C191.215 158.408 191.639 157.961 192.182 157.665C192.724 157.364 193.355 157.214 194.075 157.214ZM194.089 158.697C193.683 158.697 193.346 158.827 193.077 159.087C192.813 159.347 192.66 159.755 192.619 160.311H195.545C195.54 160.001 195.483 159.725 195.374 159.483C195.269 159.242 195.11 159.05 194.896 158.909C194.686 158.768 194.417 158.697 194.089 158.697ZM202.299 165.137C201.542 165.137 200.897 165 200.364 164.727C199.831 164.449 199.425 164.02 199.147 163.441C198.869 162.863 198.73 162.122 198.73 161.22C198.73 160.285 198.888 159.524 199.202 158.937C199.521 158.344 199.961 157.909 200.521 157.631C201.087 157.353 201.741 157.214 202.483 157.214C203.012 157.214 203.468 157.266 203.851 157.371C204.238 157.471 204.575 157.592 204.862 157.733L204.247 159.347C203.919 159.215 203.614 159.107 203.331 159.025C203.049 158.939 202.766 158.896 202.483 158.896C202.119 158.896 201.816 158.982 201.574 159.155C201.333 159.324 201.153 159.579 201.034 159.921C200.916 160.263 200.856 160.691 200.856 161.206C200.856 161.712 200.92 162.131 201.048 162.464C201.175 162.797 201.36 163.045 201.602 163.209C201.843 163.368 202.137 163.448 202.483 163.448C202.916 163.448 203.301 163.391 203.639 163.277C203.976 163.159 204.304 162.995 204.623 162.785V164.569C204.304 164.77 203.969 164.913 203.618 165C203.272 165.091 202.832 165.137 202.299 165.137ZM208.485 154.363V159.121C208.485 159.408 208.474 159.695 208.451 159.982C208.428 160.27 208.403 160.557 208.376 160.844H208.403C208.545 160.643 208.688 160.445 208.834 160.249C208.984 160.053 209.144 159.864 209.312 159.682L211.452 157.357H213.804L210.769 160.673L213.988 165H211.582L209.381 161.903L208.485 162.621V165H206.4V154.363H208.485ZM221.795 155.006C222.702 155.006 223.449 155.115 224.037 155.334C224.63 155.553 225.069 155.883 225.356 156.325C225.644 156.767 225.787 157.326 225.787 158C225.787 158.456 225.701 158.854 225.527 159.196C225.354 159.538 225.126 159.827 224.844 160.064C224.561 160.301 224.256 160.495 223.928 160.646L226.867 165H224.516L222.13 161.165H221.002V165H218.883V155.006H221.795ZM221.645 156.742H221.002V159.442H221.686C222.387 159.442 222.889 159.326 223.189 159.094C223.495 158.857 223.647 158.51 223.647 158.055C223.647 157.581 223.483 157.243 223.155 157.043C222.832 156.842 222.328 156.742 221.645 156.742ZM230.381 165.137C229.529 165.137 228.834 164.804 228.296 164.139C227.763 163.469 227.496 162.487 227.496 161.192C227.496 159.884 227.767 158.896 228.31 158.226C228.852 157.551 229.561 157.214 230.436 157.214C230.8 157.214 231.121 157.264 231.399 157.364C231.677 157.465 231.917 157.599 232.117 157.768C232.322 157.936 232.495 158.125 232.637 158.335H232.705C232.678 158.189 232.644 157.975 232.603 157.692C232.566 157.405 232.548 157.111 232.548 156.811V154.363H234.64V165H233.04L232.637 164.009H232.548C232.416 164.218 232.249 164.41 232.049 164.583C231.853 164.752 231.618 164.886 231.345 164.986C231.071 165.087 230.75 165.137 230.381 165.137ZM231.112 163.476C231.682 163.476 232.083 163.307 232.315 162.97C232.552 162.628 232.678 162.115 232.691 161.432V161.206C232.691 160.463 232.577 159.896 232.35 159.504C232.122 159.107 231.698 158.909 231.078 158.909C230.618 158.909 230.258 159.107 229.998 159.504C229.738 159.9 229.608 160.472 229.608 161.22C229.608 161.967 229.738 162.53 229.998 162.908C230.262 163.286 230.634 163.476 231.112 163.476ZM238.762 163.373L238.864 163.53C238.782 163.858 238.675 164.212 238.543 164.59C238.415 164.968 238.274 165.346 238.119 165.725C237.969 166.103 237.816 166.463 237.661 166.805H236.157C236.248 166.436 236.337 166.048 236.424 165.643C236.51 165.237 236.59 164.838 236.663 164.446C236.741 164.054 236.802 163.697 236.848 163.373H238.762ZM41.2578 189V179.006H43.377V187.25H47.4307V189H41.2578ZM55.9551 185.165C55.9551 185.803 55.8685 186.368 55.6953 186.86C55.5267 187.353 55.2783 187.77 54.9502 188.111C54.6266 188.449 54.2347 188.704 53.7744 188.877C53.3187 189.05 52.8037 189.137 52.2295 189.137C51.6917 189.137 51.1973 189.05 50.7461 188.877C50.2995 188.704 49.9098 188.449 49.5771 188.111C49.249 187.77 48.9938 187.353 48.8115 186.86C48.6338 186.368 48.5449 185.803 48.5449 185.165C48.5449 184.317 48.6953 183.6 48.9961 183.012C49.2969 182.424 49.7253 181.977 50.2812 181.672C50.8372 181.367 51.5003 181.214 52.2705 181.214C52.986 181.214 53.6195 181.367 54.1709 181.672C54.7269 181.977 55.1621 182.424 55.4766 183.012C55.7956 183.6 55.9551 184.317 55.9551 185.165ZM50.6709 185.165C50.6709 185.666 50.7256 186.088 50.835 186.43C50.9443 186.771 51.1152 187.029 51.3477 187.202C51.5801 187.375 51.8831 187.462 52.2568 187.462C52.626 187.462 52.9245 187.375 53.1523 187.202C53.3848 187.029 53.5534 186.771 53.6582 186.43C53.7676 186.088 53.8223 185.666 53.8223 185.165C53.8223 184.659 53.7676 184.24 53.6582 183.907C53.5534 183.57 53.3848 183.317 53.1523 183.148C52.9199 182.98 52.6169 182.896 52.2432 182.896C51.6917 182.896 51.2907 183.085 51.04 183.463C50.7939 183.841 50.6709 184.409 50.6709 185.165ZM62.0186 181.214C62.8343 181.214 63.4906 181.437 63.9873 181.884C64.484 182.326 64.7324 183.037 64.7324 184.017V189H62.6475V184.536C62.6475 183.989 62.5472 183.577 62.3467 183.299C62.1507 183.021 61.8408 182.882 61.417 182.882C60.779 182.882 60.3438 183.098 60.1113 183.531C59.8789 183.964 59.7627 184.589 59.7627 185.404V189H57.6777V181.357H59.2705L59.5508 182.335H59.667C59.8311 182.071 60.0339 181.856 60.2754 181.692C60.5215 181.528 60.7926 181.408 61.0889 181.33C61.3896 181.253 61.6995 181.214 62.0186 181.214ZM69.2988 189.137C68.4466 189.137 67.7516 188.804 67.2139 188.139C66.6807 187.469 66.4141 186.487 66.4141 185.192C66.4141 183.884 66.6852 182.896 67.2275 182.226C67.7699 181.551 68.4785 181.214 69.3535 181.214C69.7181 181.214 70.0394 181.264 70.3174 181.364C70.5954 181.465 70.8346 181.599 71.0352 181.768C71.2402 181.936 71.4134 182.125 71.5547 182.335H71.623C71.5957 182.189 71.5615 181.975 71.5205 181.692C71.484 181.405 71.4658 181.111 71.4658 180.811V178.363H73.5576V189H71.958L71.5547 188.009H71.4658C71.3337 188.218 71.1673 188.41 70.9668 188.583C70.7708 188.752 70.5361 188.886 70.2627 188.986C69.9893 189.087 69.668 189.137 69.2988 189.137ZM70.0303 187.476C70.5999 187.476 71.001 187.307 71.2334 186.97C71.4704 186.628 71.5957 186.115 71.6094 185.432V185.206C71.6094 184.463 71.4954 183.896 71.2676 183.504C71.0397 183.107 70.6159 182.909 69.9961 182.909C69.5358 182.909 69.1758 183.107 68.916 183.504C68.6562 183.9 68.5264 184.472 68.5264 185.22C68.5264 185.967 68.6562 186.53 68.916 186.908C69.1803 187.286 69.5518 187.476 70.0303 187.476ZM82.6836 185.165C82.6836 185.803 82.597 186.368 82.4238 186.86C82.2552 187.353 82.0068 187.77 81.6787 188.111C81.3551 188.449 80.9632 188.704 80.5029 188.877C80.0472 189.05 79.5322 189.137 78.958 189.137C78.4202 189.137 77.9258 189.05 77.4746 188.877C77.028 188.704 76.6383 188.449 76.3057 188.111C75.9775 187.77 75.7223 187.353 75.54 186.86C75.3623 186.368 75.2734 185.803 75.2734 185.165C75.2734 184.317 75.4238 183.6 75.7246 183.012C76.0254 182.424 76.4538 181.977 77.0098 181.672C77.5658 181.367 78.2288 181.214 78.999 181.214C79.7145 181.214 80.348 181.367 80.8994 181.672C81.4554 181.977 81.8906 182.424 82.2051 183.012C82.5241 183.6 82.6836 184.317 82.6836 185.165ZM77.3994 185.165C77.3994 185.666 77.4541 186.088 77.5635 186.43C77.6729 186.771 77.8438 187.029 78.0762 187.202C78.3086 187.375 78.6117 187.462 78.9854 187.462C79.3545 187.462 79.653 187.375 79.8809 187.202C80.1133 187.029 80.2819 186.771 80.3867 186.43C80.4961 186.088 80.5508 185.666 80.5508 185.165C80.5508 184.659 80.4961 184.24 80.3867 183.907C80.2819 183.57 80.1133 183.317 79.8809 183.148C79.6484 182.98 79.3454 182.896 78.9717 182.896C78.4202 182.896 78.0192 183.085 77.7686 183.463C77.5225 183.841 77.3994 184.409 77.3994 185.165ZM88.7471 181.214C89.5628 181.214 90.2191 181.437 90.7158 181.884C91.2126 182.326 91.4609 183.037 91.4609 184.017V189H89.376V184.536C89.376 183.989 89.2757 183.577 89.0752 183.299C88.8792 183.021 88.5693 182.882 88.1455 182.882C87.5075 182.882 87.0723 183.098 86.8398 183.531C86.6074 183.964 86.4912 184.589 86.4912 185.404V189H84.4062V181.357H85.999L86.2793 182.335H86.3955C86.5596 182.071 86.7624 181.856 87.0039 181.692C87.25 181.528 87.5212 181.408 87.8174 181.33C88.1182 181.253 88.4281 181.214 88.7471 181.214ZM109.686 179.006L107.143 189H104.729L103.376 183.75C103.349 183.65 103.312 183.497 103.267 183.292C103.221 183.087 103.173 182.864 103.123 182.622C103.073 182.376 103.027 182.146 102.986 181.932C102.95 181.713 102.925 181.54 102.911 181.412C102.897 181.54 102.87 181.711 102.829 181.925C102.793 182.139 102.749 182.367 102.699 182.608C102.654 182.85 102.608 183.076 102.562 183.285C102.517 183.495 102.48 183.654 102.453 183.764L101.106 189H98.7002L96.1504 179.006H98.2354L99.5137 184.461C99.5501 184.625 99.5911 184.821 99.6367 185.049C99.6868 185.277 99.7347 185.516 99.7803 185.767C99.8304 186.013 99.8737 186.252 99.9102 186.484C99.9512 186.712 99.9808 186.91 99.999 187.079C100.022 186.906 100.051 186.705 100.088 186.478C100.124 186.245 100.163 186.01 100.204 185.773C100.25 185.532 100.295 185.309 100.341 185.104C100.386 184.898 100.427 184.732 100.464 184.604L101.92 179.006H103.923L105.379 184.604C105.411 184.728 105.447 184.894 105.488 185.104C105.534 185.309 105.579 185.532 105.625 185.773C105.671 186.015 105.712 186.252 105.748 186.484C105.789 186.712 105.819 186.91 105.837 187.079C105.869 186.851 105.912 186.576 105.967 186.252C106.026 185.924 106.088 185.598 106.151 185.274C106.22 184.951 106.279 184.68 106.329 184.461L107.601 179.006H109.686ZM116.843 181.241C116.843 181.701 116.747 182.1 116.556 182.438C116.364 182.775 116.104 183.05 115.776 183.265C115.453 183.479 115.088 183.636 114.683 183.736V183.777C115.485 183.878 116.093 184.124 116.508 184.516C116.927 184.908 117.137 185.432 117.137 186.088C117.137 186.671 116.993 187.193 116.706 187.653C116.424 188.114 115.986 188.476 115.394 188.74C114.801 189.005 114.038 189.137 113.104 189.137C112.552 189.137 112.037 189.091 111.559 189C111.085 188.913 110.638 188.779 110.219 188.597V186.799C110.647 187.018 111.096 187.184 111.565 187.298C112.035 187.407 112.472 187.462 112.878 187.462C113.634 187.462 114.163 187.332 114.464 187.072C114.769 186.808 114.922 186.439 114.922 185.965C114.922 185.687 114.851 185.452 114.71 185.261C114.569 185.069 114.323 184.924 113.972 184.823C113.625 184.723 113.14 184.673 112.516 184.673H111.757V183.053H112.529C113.145 183.053 113.612 182.996 113.931 182.882C114.254 182.763 114.473 182.604 114.587 182.403C114.705 182.198 114.765 181.966 114.765 181.706C114.765 181.351 114.655 181.073 114.437 180.872C114.218 180.672 113.853 180.571 113.343 180.571C113.024 180.571 112.732 180.612 112.468 180.694C112.208 180.772 111.973 180.868 111.764 180.981C111.554 181.091 111.369 181.198 111.21 181.303L110.232 179.847C110.624 179.564 111.082 179.329 111.606 179.143C112.135 178.956 112.764 178.862 113.493 178.862C114.523 178.862 115.339 179.07 115.94 179.484C116.542 179.899 116.843 180.485 116.843 181.241ZM121.826 184.755C121.826 184.181 121.867 183.613 121.949 183.053C122.036 182.488 122.184 181.957 122.394 181.46C122.603 180.959 122.897 180.517 123.275 180.134C123.654 179.746 124.134 179.443 124.718 179.225C125.301 179.001 126.007 178.89 126.837 178.89C127.033 178.89 127.261 178.899 127.521 178.917C127.785 178.931 128.004 178.956 128.177 178.992V180.681C127.994 180.64 127.799 180.608 127.589 180.585C127.384 180.558 127.179 180.544 126.974 180.544C126.144 180.544 125.502 180.676 125.046 180.94C124.595 181.205 124.276 181.572 124.089 182.041C123.907 182.506 123.799 183.048 123.768 183.668H123.856C123.984 183.445 124.144 183.246 124.335 183.073C124.531 182.9 124.768 182.763 125.046 182.663C125.324 182.558 125.65 182.506 126.023 182.506C126.607 182.506 127.113 182.631 127.541 182.882C127.969 183.128 128.3 183.486 128.532 183.955C128.765 184.424 128.881 184.996 128.881 185.671C128.881 186.391 128.742 187.011 128.464 187.53C128.186 188.05 127.792 188.449 127.281 188.727C126.775 189 126.174 189.137 125.477 189.137C124.966 189.137 124.49 189.05 124.048 188.877C123.606 188.699 123.218 188.43 122.886 188.07C122.553 187.71 122.293 187.257 122.106 186.71C121.92 186.159 121.826 185.507 121.826 184.755ZM125.436 187.448C125.85 187.448 126.188 187.307 126.447 187.024C126.707 186.742 126.837 186.3 126.837 185.698C126.837 185.211 126.723 184.828 126.495 184.55C126.272 184.267 125.932 184.126 125.477 184.126C125.167 184.126 124.893 184.197 124.656 184.338C124.424 184.475 124.244 184.65 124.116 184.864C123.989 185.074 123.925 185.29 123.925 185.514C123.925 185.746 123.957 185.976 124.021 186.204C124.084 186.432 124.18 186.639 124.308 186.826C124.435 187.013 124.592 187.163 124.779 187.277C124.971 187.391 125.189 187.448 125.436 187.448ZM130.604 179.006H133.714C135.045 179.006 136.052 179.193 136.735 179.566C137.419 179.94 137.761 180.596 137.761 181.535C137.761 181.913 137.699 182.255 137.576 182.561C137.458 182.866 137.285 183.117 137.057 183.312C136.829 183.508 136.551 183.636 136.223 183.695V183.764C136.555 183.832 136.856 183.951 137.125 184.119C137.394 184.283 137.608 184.525 137.768 184.844C137.932 185.158 138.014 185.577 138.014 186.102C138.014 186.708 137.866 187.227 137.569 187.66C137.273 188.093 136.849 188.426 136.298 188.658C135.751 188.886 135.099 189 134.343 189H130.604V179.006ZM132.723 182.964H133.953C134.568 182.964 134.994 182.868 135.231 182.677C135.468 182.481 135.587 182.194 135.587 181.815C135.587 181.433 135.446 181.159 135.163 180.995C134.885 180.826 134.443 180.742 133.837 180.742H132.723V182.964ZM132.723 184.646V187.25H134.104C134.742 187.25 135.186 187.127 135.437 186.881C135.687 186.635 135.812 186.304 135.812 185.89C135.812 185.644 135.758 185.427 135.648 185.24C135.539 185.053 135.354 184.908 135.095 184.803C134.84 184.698 134.486 184.646 134.035 184.646H132.723ZM149.081 183.989C149.081 184.732 148.992 185.413 148.814 186.033C148.641 186.648 148.372 187.182 148.008 187.633C147.643 188.084 147.181 188.437 146.62 188.692L149.026 191.379H146.312L144.48 189.137C144.449 189.137 144.421 189.137 144.398 189.137C144.376 189.137 144.351 189.137 144.323 189.137C143.507 189.137 142.801 189.016 142.204 188.774C141.607 188.528 141.113 188.177 140.721 187.722C140.333 187.266 140.044 186.721 139.853 186.088C139.661 185.454 139.565 184.75 139.565 183.976C139.565 182.941 139.734 182.041 140.071 181.275C140.413 180.505 140.937 179.908 141.644 179.484C142.35 179.061 143.248 178.849 144.337 178.849C145.422 178.849 146.312 179.061 147.01 179.484C147.712 179.908 148.231 180.505 148.568 181.275C148.91 182.046 149.081 182.95 149.081 183.989ZM141.787 183.989C141.787 184.687 141.874 185.288 142.047 185.794C142.225 186.295 142.5 186.683 142.874 186.956C143.248 187.225 143.731 187.359 144.323 187.359C144.925 187.359 145.412 187.225 145.786 186.956C146.16 186.683 146.431 186.295 146.6 185.794C146.773 185.288 146.859 184.687 146.859 183.989C146.859 182.941 146.663 182.116 146.271 181.515C145.88 180.913 145.235 180.612 144.337 180.612C143.74 180.612 143.252 180.749 142.874 181.022C142.5 181.291 142.225 181.679 142.047 182.185C141.874 182.686 141.787 183.287 141.787 183.989ZM152.93 187.373L153.032 187.53C152.95 187.858 152.843 188.212 152.711 188.59C152.583 188.968 152.442 189.346 152.287 189.725C152.137 190.103 151.984 190.463 151.829 190.805H150.325C150.416 190.436 150.505 190.048 150.592 189.643C150.678 189.237 150.758 188.838 150.831 188.446C150.909 188.054 150.97 187.697 151.016 187.373H152.93ZM166.916 179.006V185.473C166.916 186.161 166.763 186.783 166.458 187.339C166.157 187.89 165.699 188.328 165.084 188.651C164.473 188.975 163.703 189.137 162.773 189.137C161.452 189.137 160.445 188.799 159.752 188.125C159.059 187.451 158.713 186.557 158.713 185.445V179.006H160.825V185.124C160.825 185.949 160.994 186.528 161.331 186.86C161.668 187.193 162.167 187.359 162.828 187.359C163.293 187.359 163.669 187.28 163.956 187.12C164.248 186.961 164.462 186.715 164.599 186.382C164.735 186.049 164.804 185.625 164.804 185.11V179.006H166.916ZM177.402 189H174.996L172.378 184.789L171.482 185.432V189H169.363V179.006H171.482V183.579C171.624 183.383 171.763 183.187 171.899 182.991C172.036 182.795 172.175 182.599 172.316 182.403L175.023 179.006H177.375L173.889 183.429L177.402 189Z" fill="#0A0A0B"/>
<path d="M10.7292 167.596C5.05352 159.368 4 158.524 4 155.5C4 151.358 7.35785 148 11.5 148C15.6421 148 19 151.358 19 155.5C19 158.524 17.9465 159.368 12.2708 167.596C11.8983 168.135 11.1016 168.134 10.7292 167.596ZM11.5 158.625C13.2259 158.625 14.625 157.226 14.625 155.5C14.625 153.774 13.2259 152.375 11.5 152.375C9.7741 152.375 8.375 153.774 8.375 155.5C8.375 157.226 9.7741 158.625 11.5 158.625Z" fill="#FE8C12"/>
<path d="M41.2578 122V112.006H43.377V122H41.2578ZM50.0693 114.214C50.8851 114.214 51.5413 114.437 52.0381 114.884C52.5348 115.326 52.7832 116.037 52.7832 117.017V122H50.6982V117.536C50.6982 116.989 50.598 116.577 50.3975 116.299C50.2015 116.021 49.8916 115.882 49.4678 115.882C48.8298 115.882 48.3945 116.098 48.1621 116.531C47.9297 116.964 47.8135 117.589 47.8135 118.404V122H45.7285V114.357H47.3213L47.6016 115.335H47.7178C47.8818 115.071 48.0846 114.856 48.3262 114.692C48.5723 114.528 48.8434 114.408 49.1396 114.33C49.4404 114.253 49.7503 114.214 50.0693 114.214ZM59.1543 115.923H57.3496V122H55.2646V115.923H54.1162V114.918L55.2646 114.357V113.797C55.2646 113.145 55.374 112.639 55.5928 112.279C55.8161 111.915 56.1283 111.66 56.5293 111.514C56.9349 111.363 57.4134 111.288 57.9648 111.288C58.3704 111.288 58.7396 111.322 59.0723 111.391C59.4049 111.454 59.6761 111.527 59.8857 111.609L59.3525 113.141C59.193 113.09 59.0199 113.045 58.833 113.004C58.6462 112.963 58.432 112.942 58.1904 112.942C57.8988 112.942 57.6846 113.031 57.5479 113.209C57.4157 113.382 57.3496 113.605 57.3496 113.879V114.357H59.1543V115.923ZM67.3027 118.165C67.3027 118.803 67.2161 119.368 67.043 119.86C66.8743 120.353 66.626 120.77 66.2979 121.111C65.9743 121.449 65.5824 121.704 65.1221 121.877C64.6663 122.05 64.1514 122.137 63.5771 122.137C63.0394 122.137 62.5449 122.05 62.0938 121.877C61.6471 121.704 61.2575 121.449 60.9248 121.111C60.5967 120.77 60.3415 120.353 60.1592 119.86C59.9814 119.368 59.8926 118.803 59.8926 118.165C59.8926 117.317 60.043 116.6 60.3438 116.012C60.6445 115.424 61.0729 114.977 61.6289 114.672C62.1849 114.367 62.848 114.214 63.6182 114.214C64.3337 114.214 64.9671 114.367 65.5186 114.672C66.0745 114.977 66.5098 115.424 66.8242 116.012C67.1432 116.6 67.3027 117.317 67.3027 118.165ZM62.0186 118.165C62.0186 118.666 62.0732 119.088 62.1826 119.43C62.292 119.771 62.4629 120.029 62.6953 120.202C62.9277 120.375 63.2308 120.462 63.6045 120.462C63.9736 120.462 64.2721 120.375 64.5 120.202C64.7324 120.029 64.901 119.771 65.0059 119.43C65.1152 119.088 65.1699 118.666 65.1699 118.165C65.1699 117.659 65.1152 117.24 65.0059 116.907C64.901 116.57 64.7324 116.317 64.5 116.148C64.2676 115.98 63.9645 115.896 63.5908 115.896C63.0394 115.896 62.6383 116.085 62.3877 116.463C62.1416 116.841 62.0186 117.409 62.0186 118.165ZM71.1104 111.363V113.838C71.1104 114.125 71.1012 114.41 71.083 114.692C71.0693 114.975 71.0511 115.194 71.0283 115.349H71.1104C71.3109 115.034 71.5843 114.768 71.9307 114.549C72.277 114.326 72.7259 114.214 73.2773 114.214C74.1341 114.214 74.8291 114.549 75.3623 115.219C75.8955 115.889 76.1621 116.871 76.1621 118.165C76.1621 119.035 76.0391 119.767 75.793 120.359C75.5469 120.947 75.2028 121.392 74.7607 121.692C74.3187 121.989 73.806 122.137 73.2227 122.137C72.6621 122.137 72.2201 122.036 71.8965 121.836C71.5729 121.635 71.3109 121.41 71.1104 121.159H70.9668L70.6182 122H69.0254V111.363H71.1104ZM72.6074 115.882C72.2428 115.882 71.9535 115.957 71.7393 116.107C71.5251 116.258 71.3678 116.483 71.2676 116.784C71.1719 117.085 71.1195 117.465 71.1104 117.926V118.151C71.1104 118.894 71.2197 119.464 71.4385 119.86C71.6572 120.252 72.056 120.448 72.6348 120.448C73.0632 120.448 73.4027 120.25 73.6533 119.854C73.9085 119.457 74.0361 118.885 74.0361 118.138C74.0361 117.39 73.9085 116.827 73.6533 116.449C73.3981 116.071 73.0495 115.882 72.6074 115.882ZM79.9697 114.357V122H77.8848V114.357H79.9697ZM78.9307 111.363C79.2406 111.363 79.5072 111.436 79.7305 111.582C79.9538 111.723 80.0654 111.99 80.0654 112.382C80.0654 112.769 79.9538 113.038 79.7305 113.188C79.5072 113.334 79.2406 113.407 78.9307 113.407C78.6162 113.407 78.3473 113.334 78.124 113.188C77.9053 113.038 77.7959 112.769 77.7959 112.382C77.7959 111.99 77.9053 111.723 78.124 111.582C78.3473 111.436 78.6162 111.363 78.9307 111.363ZM89.1094 118.165C89.1094 118.803 89.0228 119.368 88.8496 119.86C88.681 120.353 88.4326 120.77 88.1045 121.111C87.7809 121.449 87.389 121.704 86.9287 121.877C86.473 122.05 85.958 122.137 85.3838 122.137C84.846 122.137 84.3516 122.05 83.9004 121.877C83.4538 121.704 83.0641 121.449 82.7314 121.111C82.4033 120.77 82.1481 120.353 81.9658 119.86C81.7881 119.368 81.6992 118.803 81.6992 118.165C81.6992 117.317 81.8496 116.6 82.1504 116.012C82.4512 115.424 82.8796 114.977 83.4355 114.672C83.9915 114.367 84.6546 114.214 85.4248 114.214C86.1403 114.214 86.7738 114.367 87.3252 114.672C87.8812 114.977 88.3164 115.424 88.6309 116.012C88.9499 116.6 89.1094 117.317 89.1094 118.165ZM83.8252 118.165C83.8252 118.666 83.8799 119.088 83.9893 119.43C84.0986 119.771 84.2695 120.029 84.502 120.202C84.7344 120.375 85.0374 120.462 85.4111 120.462C85.7803 120.462 86.0788 120.375 86.3066 120.202C86.5391 120.029 86.7077 119.771 86.8125 119.43C86.9219 119.088 86.9766 118.666 86.9766 118.165C86.9766 117.659 86.9219 117.24 86.8125 116.907C86.7077 116.57 86.5391 116.317 86.3066 116.148C86.0742 115.98 85.7712 115.896 85.3975 115.896C84.846 115.896 84.445 116.085 84.1943 116.463C83.9482 116.841 83.8252 117.409 83.8252 118.165ZM92.6504 122L89.7383 114.357H91.9189L93.3955 118.712C93.4775 118.967 93.5413 119.236 93.5869 119.519C93.637 119.801 93.6712 120.054 93.6895 120.277H93.7441C93.7578 120.036 93.7897 119.778 93.8398 119.505C93.8945 119.231 93.9652 118.967 94.0518 118.712L95.5215 114.357H97.7021L94.79 122H92.6504ZM101.954 114.214C102.66 114.214 103.269 114.351 103.779 114.624C104.29 114.893 104.684 115.285 104.962 115.8C105.24 116.315 105.379 116.944 105.379 117.687V118.698H100.45C100.473 119.286 100.648 119.749 100.977 120.086C101.309 120.419 101.77 120.585 102.357 120.585C102.845 120.585 103.292 120.535 103.697 120.435C104.103 120.334 104.52 120.184 104.948 119.983V121.597C104.57 121.784 104.174 121.92 103.759 122.007C103.349 122.093 102.85 122.137 102.262 122.137C101.496 122.137 100.817 121.995 100.225 121.713C99.6367 121.43 99.1742 121 98.8369 120.421C98.5042 119.842 98.3379 119.113 98.3379 118.233C98.3379 117.34 98.4883 116.597 98.7891 116.005C99.0944 115.408 99.5182 114.961 100.061 114.665C100.603 114.364 101.234 114.214 101.954 114.214ZM101.968 115.697C101.562 115.697 101.225 115.827 100.956 116.087C100.692 116.347 100.539 116.755 100.498 117.311H103.424C103.419 117.001 103.362 116.725 103.253 116.483C103.148 116.242 102.989 116.05 102.774 115.909C102.565 115.768 102.296 115.697 101.968 115.697ZM111.415 114.214C112.231 114.214 112.887 114.437 113.384 114.884C113.881 115.326 114.129 116.037 114.129 117.017V122H112.044V117.536C112.044 116.989 111.944 116.577 111.743 116.299C111.547 116.021 111.237 115.882 110.813 115.882C110.175 115.882 109.74 116.098 109.508 116.531C109.275 116.964 109.159 117.589 109.159 118.404V122H107.074V114.357H108.667L108.947 115.335H109.063C109.228 115.071 109.43 114.856 109.672 114.692C109.918 114.528 110.189 114.408 110.485 114.33C110.786 114.253 111.096 114.214 111.415 114.214ZM127.042 116.989C127.042 117.422 126.99 117.851 126.885 118.274C126.785 118.694 126.63 119.074 126.42 119.416C126.21 119.753 125.946 120.024 125.627 120.229C125.312 120.43 124.939 120.53 124.506 120.53C124.164 120.53 123.861 120.448 123.597 120.284C123.337 120.12 123.155 119.908 123.05 119.648H122.94C122.749 119.881 122.498 120.086 122.188 120.264C121.879 120.441 121.503 120.53 121.061 120.53C120.227 120.53 119.584 120.282 119.133 119.785C118.682 119.284 118.456 118.628 118.456 117.816C118.456 117.188 118.59 116.634 118.859 116.155C119.128 115.672 119.511 115.294 120.008 115.021C120.505 114.747 121.09 114.61 121.765 114.61C122.207 114.61 122.66 114.651 123.125 114.733C123.594 114.811 123.961 114.895 124.226 114.986L124.089 117.857C124.08 117.953 124.073 118.049 124.068 118.145C124.068 118.24 124.068 118.302 124.068 118.329C124.068 118.716 124.121 118.974 124.226 119.102C124.335 119.225 124.456 119.286 124.588 119.286C124.798 119.286 124.973 119.181 125.114 118.972C125.256 118.762 125.363 118.482 125.436 118.131C125.508 117.78 125.545 117.395 125.545 116.976C125.545 116.196 125.385 115.533 125.066 114.986C124.752 114.435 124.319 114.016 123.768 113.729C123.221 113.437 122.599 113.291 121.901 113.291C121.168 113.291 120.521 113.407 119.96 113.64C119.399 113.872 118.928 114.198 118.545 114.617C118.167 115.036 117.88 115.531 117.684 116.101C117.492 116.67 117.396 117.292 117.396 117.967C117.396 118.805 117.547 119.516 117.848 120.1C118.148 120.683 118.59 121.125 119.174 121.426C119.762 121.727 120.479 121.877 121.327 121.877C121.869 121.877 122.432 121.818 123.016 121.699C123.604 121.576 124.141 121.424 124.629 121.241V122.561C124.182 122.747 123.683 122.896 123.132 123.005C122.58 123.119 121.997 123.176 121.382 123.176C120.224 123.176 119.235 122.971 118.415 122.561C117.595 122.15 116.966 121.56 116.528 120.79C116.095 120.015 115.879 119.088 115.879 118.008C115.879 117.16 116.018 116.374 116.296 115.649C116.578 114.92 116.982 114.285 117.506 113.742C118.03 113.195 118.661 112.769 119.399 112.464C120.142 112.159 120.972 112.006 121.888 112.006C122.886 112.006 123.772 112.209 124.547 112.614C125.326 113.015 125.937 113.587 126.379 114.33C126.821 115.073 127.042 115.959 127.042 116.989ZM120.042 117.844C120.042 118.354 120.147 118.723 120.356 118.951C120.571 119.174 120.858 119.286 121.218 119.286C121.687 119.286 122.018 119.115 122.209 118.773C122.4 118.432 122.512 117.985 122.544 117.434L122.633 115.923C122.528 115.9 122.41 115.884 122.277 115.875C122.145 115.861 122.002 115.854 121.847 115.854C121.405 115.854 121.051 115.952 120.787 116.148C120.523 116.34 120.331 116.588 120.213 116.894C120.099 117.194 120.042 117.511 120.042 117.844ZM132.798 116.388H136.763V121.569C136.239 121.743 135.694 121.882 135.129 121.986C134.564 122.087 133.924 122.137 133.208 122.137C132.215 122.137 131.371 121.941 130.679 121.549C129.986 121.157 129.46 120.578 129.1 119.812C128.74 119.047 128.56 118.106 128.56 116.989C128.56 115.941 128.76 115.034 129.161 114.269C129.567 113.503 130.157 112.91 130.932 112.491C131.711 112.072 132.661 111.862 133.782 111.862C134.311 111.862 134.833 111.919 135.348 112.033C135.863 112.147 136.33 112.295 136.749 112.478L136.045 114.173C135.74 114.018 135.391 113.888 134.999 113.783C134.607 113.678 134.197 113.626 133.769 113.626C133.153 113.626 132.618 113.767 132.162 114.05C131.711 114.332 131.36 114.729 131.109 115.239C130.863 115.745 130.74 116.342 130.74 117.03C130.74 117.682 130.829 118.261 131.007 118.767C131.185 119.268 131.465 119.662 131.848 119.949C132.23 120.232 132.729 120.373 133.345 120.373C133.646 120.373 133.898 120.359 134.104 120.332C134.313 120.3 134.509 120.268 134.691 120.236V118.151H132.798V116.388ZM147.96 114.214C148.826 114.214 149.48 114.437 149.922 114.884C150.368 115.326 150.592 116.037 150.592 117.017V122H148.5V117.536C148.5 116.989 148.407 116.577 148.22 116.299C148.033 116.021 147.743 115.882 147.352 115.882C146.8 115.882 146.408 116.08 146.176 116.477C145.943 116.868 145.827 117.431 145.827 118.165V122H143.742V117.536C143.742 117.172 143.701 116.866 143.619 116.62C143.537 116.374 143.412 116.189 143.243 116.066C143.075 115.943 142.858 115.882 142.594 115.882C142.206 115.882 141.901 115.98 141.678 116.176C141.459 116.367 141.302 116.652 141.206 117.03C141.115 117.404 141.069 117.862 141.069 118.404V122H138.984V114.357H140.577L140.857 115.335H140.974C141.129 115.071 141.322 114.856 141.555 114.692C141.792 114.528 142.051 114.408 142.334 114.33C142.617 114.253 142.904 114.214 143.195 114.214C143.756 114.214 144.23 114.305 144.617 114.487C145.009 114.67 145.31 114.952 145.52 115.335H145.704C145.932 114.943 146.253 114.658 146.668 114.48C147.087 114.303 147.518 114.214 147.96 114.214ZM155.869 114.2C156.895 114.2 157.681 114.424 158.228 114.87C158.774 115.317 159.048 115.996 159.048 116.907V122H157.592L157.188 120.961H157.134C156.915 121.234 156.692 121.458 156.464 121.631C156.236 121.804 155.974 121.932 155.678 122.014C155.382 122.096 155.021 122.137 154.598 122.137C154.146 122.137 153.741 122.05 153.381 121.877C153.025 121.704 152.745 121.439 152.54 121.084C152.335 120.724 152.232 120.268 152.232 119.717C152.232 118.906 152.517 118.309 153.087 117.926C153.657 117.538 154.511 117.324 155.65 117.283L156.977 117.242V116.907C156.977 116.506 156.872 116.212 156.662 116.025C156.452 115.839 156.161 115.745 155.787 115.745C155.418 115.745 155.056 115.798 154.7 115.902C154.345 116.007 153.989 116.139 153.634 116.299L152.943 114.891C153.349 114.676 153.802 114.508 154.304 114.385C154.81 114.262 155.331 114.2 155.869 114.2ZM156.977 118.459L156.17 118.486C155.495 118.505 155.026 118.625 154.762 118.849C154.502 119.072 154.372 119.366 154.372 119.73C154.372 120.049 154.465 120.277 154.652 120.414C154.839 120.546 155.083 120.612 155.384 120.612C155.83 120.612 156.206 120.48 156.512 120.216C156.822 119.951 156.977 119.576 156.977 119.088V118.459ZM163.286 114.357V122H161.201V114.357H163.286ZM162.247 111.363C162.557 111.363 162.824 111.436 163.047 111.582C163.27 111.723 163.382 111.99 163.382 112.382C163.382 112.769 163.27 113.038 163.047 113.188C162.824 113.334 162.557 113.407 162.247 113.407C161.933 113.407 161.664 113.334 161.44 113.188C161.222 113.038 161.112 112.769 161.112 112.382C161.112 111.99 161.222 111.723 161.44 111.582C161.664 111.436 161.933 111.363 162.247 111.363ZM167.565 122H165.48V111.363H167.565V122ZM169.466 121.022C169.466 120.594 169.582 120.293 169.814 120.12C170.051 119.947 170.336 119.86 170.669 119.86C170.993 119.86 171.271 119.947 171.503 120.12C171.74 120.293 171.858 120.594 171.858 121.022C171.858 121.433 171.74 121.729 171.503 121.911C171.271 122.093 170.993 122.185 170.669 122.185C170.336 122.185 170.051 122.093 169.814 121.911C169.582 121.729 169.466 121.433 169.466 121.022ZM178.161 113.626C177.756 113.626 177.396 113.706 177.081 113.865C176.771 114.02 176.509 114.246 176.295 114.542C176.085 114.838 175.926 115.196 175.816 115.615C175.707 116.035 175.652 116.506 175.652 117.03C175.652 117.737 175.739 118.34 175.912 118.842C176.09 119.339 176.363 119.719 176.732 119.983C177.102 120.243 177.578 120.373 178.161 120.373C178.567 120.373 178.972 120.327 179.378 120.236C179.788 120.145 180.232 120.015 180.711 119.847V121.624C180.269 121.806 179.834 121.936 179.405 122.014C178.977 122.096 178.496 122.137 177.963 122.137C176.933 122.137 176.085 121.925 175.42 121.501C174.759 121.073 174.269 120.476 173.95 119.71C173.631 118.94 173.472 118.042 173.472 117.017C173.472 116.26 173.574 115.567 173.779 114.938C173.984 114.31 174.285 113.765 174.682 113.305C175.078 112.844 175.568 112.489 176.151 112.238C176.735 111.988 177.405 111.862 178.161 111.862C178.658 111.862 179.155 111.926 179.651 112.054C180.153 112.177 180.631 112.348 181.087 112.566L180.403 114.289C180.03 114.111 179.654 113.956 179.275 113.824C178.897 113.692 178.526 113.626 178.161 113.626ZM189.625 118.165C189.625 118.803 189.538 119.368 189.365 119.86C189.197 120.353 188.948 120.77 188.62 121.111C188.297 121.449 187.905 121.704 187.444 121.877C186.989 122.05 186.474 122.137 185.899 122.137C185.362 122.137 184.867 122.05 184.416 121.877C183.969 121.704 183.58 121.449 183.247 121.111C182.919 120.77 182.664 120.353 182.481 119.86C182.304 119.368 182.215 118.803 182.215 118.165C182.215 117.317 182.365 116.6 182.666 116.012C182.967 115.424 183.395 114.977 183.951 114.672C184.507 114.367 185.17 114.214 185.94 114.214C186.656 114.214 187.289 114.367 187.841 114.672C188.397 114.977 188.832 115.424 189.146 116.012C189.465 116.6 189.625 117.317 189.625 118.165ZM184.341 118.165C184.341 118.666 184.396 119.088 184.505 119.43C184.614 119.771 184.785 120.029 185.018 120.202C185.25 120.375 185.553 120.462 185.927 120.462C186.296 120.462 186.594 120.375 186.822 120.202C187.055 120.029 187.223 119.771 187.328 119.43C187.438 119.088 187.492 118.666 187.492 118.165C187.492 117.659 187.438 117.24 187.328 116.907C187.223 116.57 187.055 116.317 186.822 116.148C186.59 115.98 186.287 115.896 185.913 115.896C185.362 115.896 184.961 116.085 184.71 116.463C184.464 116.841 184.341 117.409 184.341 118.165ZM200.323 114.214C201.189 114.214 201.843 114.437 202.285 114.884C202.732 115.326 202.955 116.037 202.955 117.017V122H200.863V117.536C200.863 116.989 200.77 116.577 200.583 116.299C200.396 116.021 200.107 115.882 199.715 115.882C199.163 115.882 198.771 116.08 198.539 116.477C198.307 116.868 198.19 117.431 198.19 118.165V122H196.105V117.536C196.105 117.172 196.064 116.866 195.982 116.62C195.9 116.374 195.775 116.189 195.606 116.066C195.438 115.943 195.221 115.882 194.957 115.882C194.57 115.882 194.264 115.98 194.041 116.176C193.822 116.367 193.665 116.652 193.569 117.03C193.478 117.404 193.433 117.862 193.433 118.404V122H191.348V114.357H192.94L193.221 115.335H193.337C193.492 115.071 193.686 114.856 193.918 114.692C194.155 114.528 194.415 114.408 194.697 114.33C194.98 114.253 195.267 114.214 195.559 114.214C196.119 114.214 196.593 114.305 196.98 114.487C197.372 114.67 197.673 114.952 197.883 115.335H198.067C198.295 114.943 198.617 114.658 199.031 114.48C199.451 114.303 199.881 114.214 200.323 114.214Z" fill="#0A0A0B"/>
<path d="M19.2857 111H0.714299C0.319796 111 0 111.32 0 111.714V124.571C0 124.966 0.319796 125.286 0.714299 125.286H19.2857C19.6802 125.286 20 124.966 20 124.571V111.714C20 111.32 19.6802 111 19.2857 111ZM18.1143 112.429L9.99998 118.67L1.88571 112.429H18.1143ZM18.5714 123.857H1.42856V113.879L9.565 120.138C9.82156 120.335 10.1784 120.335 10.435 120.138L18.5714 113.879V123.857Z" fill="#FE8C12"/>
<path d="M44.7441 71.3193H47.3896V72.8164H44.7441V75.4482H43.2471V72.8164H40.6016V71.3193H43.2471V68.6533H44.7441V71.3193ZM48.5723 73.165C48.5723 72.404 48.6452 71.6611 48.791 70.9365C48.9368 70.2074 49.1624 69.5124 49.4678 68.8516C49.7731 68.1862 50.1605 67.571 50.6299 67.0059H52.3389C51.7008 67.8809 51.2155 68.847 50.8828 69.9043C50.5547 70.9616 50.3906 72.0439 50.3906 73.1514C50.3906 73.8714 50.4635 74.5892 50.6094 75.3047C50.7552 76.0156 50.9717 76.7015 51.2588 77.3623C51.5505 78.0231 51.9059 78.6406 52.3252 79.2148H50.6299C50.1605 78.668 49.7731 78.0687 49.4678 77.417C49.1624 76.7699 48.9368 76.0885 48.791 75.373C48.6452 74.653 48.5723 73.917 48.5723 73.165ZM58.5391 77H56.4268V71.2168C56.4268 71.0573 56.429 70.8613 56.4336 70.6289C56.4382 70.3919 56.445 70.1504 56.4541 69.9043C56.4632 69.6536 56.4723 69.4281 56.4814 69.2275C56.4313 69.2868 56.3288 69.3893 56.1738 69.5352C56.0234 69.6764 55.8822 69.804 55.75 69.918L54.6016 70.8408L53.583 69.5693L56.8027 67.0059H58.5391V77ZM68.54 74.9287H67.3369V77H65.2725V74.9287H61.0068V73.459L65.3887 67.0059H67.3369V73.2881H68.54V74.9287ZM65.2725 73.2881V71.5928C65.2725 71.4333 65.2747 71.2441 65.2793 71.0254C65.2884 70.8066 65.2975 70.5879 65.3066 70.3691C65.3158 70.1504 65.3249 69.9567 65.334 69.7881C65.3477 69.6149 65.3568 69.4941 65.3613 69.4258H65.3066C65.2201 69.6126 65.1289 69.7949 65.0332 69.9727C64.9375 70.1458 64.8258 70.3281 64.6982 70.5195L62.8662 73.2881H65.2725ZM74.5625 77H72.4502V71.2168C72.4502 71.0573 72.4525 70.8613 72.457 70.6289C72.4616 70.3919 72.4684 70.1504 72.4775 69.9043C72.4867 69.6536 72.4958 69.4281 72.5049 69.2275C72.4548 69.2868 72.3522 69.3893 72.1973 69.5352C72.0469 69.6764 71.9056 69.804 71.7734 69.918L70.625 70.8408L69.6064 69.5693L72.8262 67.0059H74.5625V77ZM80.8447 74.1016V72.3926H84.5156V74.1016H80.8447ZM92.7734 70.6152C93.3841 70.6152 93.9264 70.7314 94.4004 70.9639C94.8789 71.1963 95.2549 71.5381 95.5283 71.9893C95.8018 72.4404 95.9385 72.9964 95.9385 73.6572C95.9385 74.3773 95.7881 74.9993 95.4873 75.5234C95.1911 76.043 94.7467 76.4417 94.1543 76.7197C93.5664 76.9977 92.8327 77.1367 91.9531 77.1367C91.429 77.1367 90.9346 77.0911 90.4697 77C90.0094 76.9134 89.6061 76.779 89.2598 76.5967V74.7715C89.6061 74.9538 90.0208 75.1087 90.5039 75.2363C90.9915 75.3594 91.4495 75.4209 91.8779 75.4209C92.2972 75.4209 92.6504 75.3662 92.9375 75.2568C93.2246 75.1429 93.4411 74.9697 93.5869 74.7373C93.7373 74.5003 93.8125 74.1995 93.8125 73.835C93.8125 73.3473 93.6484 72.9736 93.3203 72.7139C92.9922 72.4541 92.4886 72.3242 91.8096 72.3242C91.5498 72.3242 91.2786 72.3493 90.9961 72.3994C90.7181 72.4495 90.4857 72.4997 90.2988 72.5498L89.458 72.0986L89.834 67.0059H95.2549V68.7969H91.6865L91.502 70.7588C91.6569 70.7269 91.8255 70.695 92.0078 70.6631C92.1901 70.6312 92.4453 70.6152 92.7734 70.6152ZM100.594 66.876C101.168 66.876 101.697 66.9648 102.18 67.1426C102.667 67.3203 103.057 67.5892 103.349 67.9492C103.64 68.3047 103.786 68.7513 103.786 69.2891C103.786 69.6901 103.706 70.041 103.547 70.3418C103.392 70.6426 103.18 70.9069 102.911 71.1348C102.642 71.3581 102.337 71.554 101.995 71.7227C102.351 71.9095 102.688 72.1283 103.007 72.3789C103.326 72.625 103.586 72.9144 103.786 73.2471C103.991 73.5798 104.094 73.9671 104.094 74.4092C104.094 74.9652 103.946 75.4482 103.649 75.8584C103.353 76.264 102.943 76.5785 102.419 76.8018C101.895 77.0251 101.286 77.1367 100.594 77.1367C99.8464 77.1367 99.2106 77.0296 98.6865 76.8154C98.1624 76.6012 97.7637 76.2959 97.4902 75.8994C97.2168 75.4984 97.0801 75.0199 97.0801 74.4639C97.0801 74.0081 97.1644 73.6117 97.333 73.2744C97.5062 72.9372 97.7386 72.6478 98.0303 72.4062C98.3219 72.1602 98.6432 71.9505 98.9941 71.7773C98.6979 71.5905 98.4268 71.3786 98.1807 71.1416C97.9391 70.9046 97.7454 70.6335 97.5996 70.3281C97.4583 70.0228 97.3877 69.6719 97.3877 69.2754C97.3877 68.7467 97.5358 68.3047 97.832 67.9492C98.1328 67.5938 98.527 67.3271 99.0146 67.1494C99.5023 66.9671 100.029 66.876 100.594 66.876ZM99.0352 74.3408C99.0352 74.7008 99.1628 74.9993 99.418 75.2363C99.6777 75.4688 100.061 75.585 100.566 75.585C101.09 75.585 101.482 75.4733 101.742 75.25C102.002 75.0221 102.132 74.7236 102.132 74.3545C102.132 74.0993 102.057 73.876 101.906 73.6846C101.76 73.4932 101.576 73.3223 101.353 73.1719C101.129 73.0169 100.904 72.8734 100.676 72.7412L100.491 72.6455C100.2 72.7777 99.9443 72.9258 99.7256 73.0898C99.5114 73.2539 99.3428 73.4385 99.2197 73.6436C99.0967 73.8486 99.0352 74.0811 99.0352 74.3408ZM100.58 68.4209C100.234 68.4209 99.9466 68.5098 99.7188 68.6875C99.4909 68.8652 99.377 69.1159 99.377 69.4395C99.377 69.6673 99.4316 69.8678 99.541 70.041C99.6549 70.2096 99.8031 70.3577 99.9854 70.4854C100.172 70.613 100.375 70.7314 100.594 70.8408C100.803 70.7406 100.999 70.6289 101.182 70.5059C101.364 70.3828 101.512 70.2347 101.626 70.0615C101.74 69.8883 101.797 69.681 101.797 69.4395C101.797 69.1159 101.681 68.8652 101.448 68.6875C101.22 68.5098 100.931 68.4209 100.58 68.4209ZM112.105 71.2715C112.105 71.8457 112.062 72.4154 111.976 72.9805C111.894 73.5456 111.748 74.0788 111.538 74.5801C111.328 75.0768 111.035 75.5189 110.656 75.9062C110.278 76.2891 109.797 76.5898 109.214 76.8086C108.631 77.0273 107.924 77.1367 107.095 77.1367C106.899 77.1367 106.669 77.1276 106.404 77.1094C106.14 77.0957 105.921 77.0729 105.748 77.041V75.3457C105.93 75.3913 106.124 75.4277 106.329 75.4551C106.534 75.4779 106.742 75.4893 106.951 75.4893C107.785 75.4893 108.428 75.3571 108.879 75.0928C109.335 74.8285 109.654 74.4616 109.836 73.9922C110.023 73.5228 110.13 72.9805 110.157 72.3652H110.075C109.943 72.584 109.786 72.7822 109.604 72.96C109.426 73.1331 109.198 73.2721 108.92 73.377C108.642 73.4772 108.289 73.5273 107.86 73.5273C107.291 73.5273 106.794 73.4043 106.37 73.1582C105.951 72.9076 105.625 72.5475 105.393 72.0781C105.165 71.6042 105.051 71.0322 105.051 70.3623C105.051 69.6377 105.188 69.0179 105.461 68.5029C105.739 67.9834 106.133 67.5846 106.644 67.3066C107.154 67.0286 107.756 66.8896 108.448 66.8896C108.959 66.8896 109.435 66.9785 109.877 67.1562C110.319 67.3294 110.706 67.596 111.039 67.9561C111.376 68.3161 111.638 68.7718 111.825 69.3232C112.012 69.8747 112.105 70.5241 112.105 71.2715ZM108.489 68.585C108.079 68.585 107.744 68.7262 107.484 69.0088C107.225 69.2913 107.095 69.7334 107.095 70.335C107.095 70.818 107.206 71.2008 107.43 71.4834C107.653 71.766 107.993 71.9072 108.448 71.9072C108.763 71.9072 109.036 71.8389 109.269 71.7021C109.501 71.5609 109.681 71.3854 109.809 71.1758C109.941 70.9616 110.007 70.7428 110.007 70.5195C110.007 70.2871 109.975 70.057 109.911 69.8291C109.847 69.6012 109.752 69.3939 109.624 69.207C109.496 69.0202 109.337 68.8698 109.146 68.7559C108.959 68.6419 108.74 68.585 108.489 68.585ZM116.665 74.1016V72.3926H120.336V74.1016H116.665ZM128.594 70.6152C129.204 70.6152 129.747 70.7314 130.221 70.9639C130.699 71.1963 131.075 71.5381 131.349 71.9893C131.622 72.4404 131.759 72.9964 131.759 73.6572C131.759 74.3773 131.608 74.9993 131.308 75.5234C131.011 76.043 130.567 76.4417 129.975 76.7197C129.387 76.9977 128.653 77.1367 127.773 77.1367C127.249 77.1367 126.755 77.0911 126.29 77C125.83 76.9134 125.426 76.779 125.08 76.5967V74.7715C125.426 74.9538 125.841 75.1087 126.324 75.2363C126.812 75.3594 127.27 75.4209 127.698 75.4209C128.118 75.4209 128.471 75.3662 128.758 75.2568C129.045 75.1429 129.261 74.9697 129.407 74.7373C129.558 74.5003 129.633 74.1995 129.633 73.835C129.633 73.3473 129.469 72.9736 129.141 72.7139C128.812 72.4541 128.309 72.3242 127.63 72.3242C127.37 72.3242 127.099 72.3493 126.816 72.3994C126.538 72.4495 126.306 72.4997 126.119 72.5498L125.278 72.0986L125.654 67.0059H131.075V68.7969H127.507L127.322 70.7588C127.477 70.7269 127.646 70.695 127.828 70.6631C128.01 70.6312 128.266 70.6152 128.594 70.6152ZM140.181 74.9287H138.978V77H136.913V74.9287H132.647V73.459L137.029 67.0059H138.978V73.2881H140.181V74.9287ZM136.913 73.2881V71.5928C136.913 71.4333 136.915 71.2441 136.92 71.0254C136.929 70.8066 136.938 70.5879 136.947 70.3691C136.956 70.1504 136.965 69.9567 136.975 69.7881C136.988 69.6149 136.997 69.4941 137.002 69.4258H136.947C136.861 69.6126 136.77 69.7949 136.674 69.9727C136.578 70.1458 136.466 70.3281 136.339 70.5195L134.507 73.2881H136.913ZM144.426 66.876C145 66.876 145.529 66.9648 146.012 67.1426C146.499 67.3203 146.889 67.5892 147.181 67.9492C147.472 68.3047 147.618 68.7513 147.618 69.2891C147.618 69.6901 147.538 70.041 147.379 70.3418C147.224 70.6426 147.012 70.9069 146.743 71.1348C146.474 71.3581 146.169 71.554 145.827 71.7227C146.183 71.9095 146.52 72.1283 146.839 72.3789C147.158 72.625 147.418 72.9144 147.618 73.2471C147.823 73.5798 147.926 73.9671 147.926 74.4092C147.926 74.9652 147.778 75.4482 147.481 75.8584C147.185 76.264 146.775 76.5785 146.251 76.8018C145.727 77.0251 145.118 77.1367 144.426 77.1367C143.678 77.1367 143.043 77.0296 142.519 76.8154C141.994 76.6012 141.596 76.2959 141.322 75.8994C141.049 75.4984 140.912 75.0199 140.912 74.4639C140.912 74.0081 140.996 73.6117 141.165 73.2744C141.338 72.9372 141.571 72.6478 141.862 72.4062C142.154 72.1602 142.475 71.9505 142.826 71.7773C142.53 71.5905 142.259 71.3786 142.013 71.1416C141.771 70.9046 141.577 70.6335 141.432 70.3281C141.29 70.0228 141.22 69.6719 141.22 69.2754C141.22 68.7467 141.368 68.3047 141.664 67.9492C141.965 67.5938 142.359 67.3271 142.847 67.1494C143.334 66.9671 143.861 66.876 144.426 66.876ZM142.867 74.3408C142.867 74.7008 142.995 74.9993 143.25 75.2363C143.51 75.4688 143.893 75.585 144.398 75.585C144.923 75.585 145.314 75.4733 145.574 75.25C145.834 75.0221 145.964 74.7236 145.964 74.3545C145.964 74.0993 145.889 73.876 145.738 73.6846C145.592 73.4932 145.408 73.3223 145.185 73.1719C144.961 73.0169 144.736 72.8734 144.508 72.7412L144.323 72.6455C144.032 72.7777 143.776 72.9258 143.558 73.0898C143.343 73.2539 143.175 73.4385 143.052 73.6436C142.929 73.8486 142.867 74.0811 142.867 74.3408ZM144.412 68.4209C144.066 68.4209 143.779 68.5098 143.551 68.6875C143.323 68.8652 143.209 69.1159 143.209 69.4395C143.209 69.6673 143.264 69.8678 143.373 70.041C143.487 70.2096 143.635 70.3577 143.817 70.4854C144.004 70.613 144.207 70.7314 144.426 70.8408C144.635 70.7406 144.831 70.6289 145.014 70.5059C145.196 70.3828 145.344 70.2347 145.458 70.0615C145.572 69.8883 145.629 69.681 145.629 69.4395C145.629 69.1159 145.513 68.8652 145.28 68.6875C145.052 68.5098 144.763 68.4209 144.412 68.4209ZM152.485 74.1016V72.3926H156.156V74.1016H152.485ZM160.709 72.7549C160.709 72.1807 160.75 71.6133 160.832 71.0527C160.919 70.4876 161.067 69.9567 161.276 69.46C161.486 68.9587 161.78 68.5166 162.158 68.1338C162.536 67.7464 163.017 67.4434 163.601 67.2246C164.184 67.0013 164.89 66.8896 165.72 66.8896C165.916 66.8896 166.144 66.8988 166.403 66.917C166.668 66.9307 166.886 66.9557 167.06 66.9922V68.6807C166.877 68.6396 166.681 68.6077 166.472 68.585C166.267 68.5576 166.062 68.5439 165.856 68.5439C165.027 68.5439 164.384 68.6761 163.929 68.9404C163.478 69.2048 163.159 69.5716 162.972 70.041C162.789 70.5059 162.682 71.0482 162.65 71.668H162.739C162.867 71.4447 163.026 71.2464 163.218 71.0732C163.414 70.9001 163.651 70.7633 163.929 70.6631C164.207 70.5583 164.533 70.5059 164.906 70.5059C165.49 70.5059 165.995 70.6312 166.424 70.8818C166.852 71.1279 167.183 71.4857 167.415 71.9551C167.647 72.4245 167.764 72.9964 167.764 73.6709C167.764 74.391 167.625 75.0107 167.347 75.5303C167.069 76.0498 166.674 76.4486 166.164 76.7266C165.658 77 165.057 77.1367 164.359 77.1367C163.849 77.1367 163.373 77.0501 162.931 76.877C162.489 76.6992 162.101 76.4303 161.769 76.0703C161.436 75.7103 161.176 75.2568 160.989 74.71C160.802 74.1585 160.709 73.5068 160.709 72.7549ZM164.318 75.4482C164.733 75.4482 165.07 75.307 165.33 75.0244C165.59 74.7419 165.72 74.2998 165.72 73.6982C165.72 73.2106 165.606 72.8278 165.378 72.5498C165.155 72.2673 164.815 72.126 164.359 72.126C164.049 72.126 163.776 72.1966 163.539 72.3379C163.307 72.4746 163.127 72.6501 162.999 72.8643C162.871 73.0739 162.808 73.2904 162.808 73.5137C162.808 73.7461 162.84 73.9762 162.903 74.2041C162.967 74.432 163.063 74.6393 163.19 74.8262C163.318 75.013 163.475 75.1634 163.662 75.2773C163.854 75.3913 164.072 75.4482 164.318 75.4482ZM172.426 70.6152C173.036 70.6152 173.579 70.7314 174.053 70.9639C174.531 71.1963 174.907 71.5381 175.181 71.9893C175.454 72.4404 175.591 72.9964 175.591 73.6572C175.591 74.3773 175.44 74.9993 175.14 75.5234C174.843 76.043 174.399 76.4417 173.807 76.7197C173.219 76.9977 172.485 77.1367 171.605 77.1367C171.081 77.1367 170.587 77.0911 170.122 77C169.662 76.9134 169.258 76.779 168.912 76.5967V74.7715C169.258 74.9538 169.673 75.1087 170.156 75.2363C170.644 75.3594 171.102 75.4209 171.53 75.4209C171.95 75.4209 172.303 75.3662 172.59 75.2568C172.877 75.1429 173.093 74.9697 173.239 74.7373C173.39 74.5003 173.465 74.1995 173.465 73.835C173.465 73.3473 173.301 72.9736 172.973 72.7139C172.645 72.4541 172.141 72.3242 171.462 72.3242C171.202 72.3242 170.931 72.3493 170.648 72.3994C170.37 72.4495 170.138 72.4997 169.951 72.5498L169.11 72.0986L169.486 67.0059H174.907V68.7969H171.339L171.154 70.7588C171.309 70.7269 171.478 70.695 171.66 70.6631C171.842 70.6312 172.098 70.6152 172.426 70.6152ZM176.732 72.7549C176.732 72.1807 176.773 71.6133 176.855 71.0527C176.942 70.4876 177.09 69.9567 177.3 69.46C177.509 68.9587 177.803 68.5166 178.182 68.1338C178.56 67.7464 179.041 67.4434 179.624 67.2246C180.207 67.0013 180.914 66.8896 181.743 66.8896C181.939 66.8896 182.167 66.8988 182.427 66.917C182.691 66.9307 182.91 66.9557 183.083 66.9922V68.6807C182.901 68.6396 182.705 68.6077 182.495 68.585C182.29 68.5576 182.085 68.5439 181.88 68.5439C181.05 68.5439 180.408 68.6761 179.952 68.9404C179.501 69.2048 179.182 69.5716 178.995 70.041C178.813 70.5059 178.706 71.0482 178.674 71.668H178.763C178.89 71.4447 179.05 71.2464 179.241 71.0732C179.437 70.9001 179.674 70.7633 179.952 70.6631C180.23 70.5583 180.556 70.5059 180.93 70.5059C181.513 70.5059 182.019 70.6312 182.447 70.8818C182.876 71.1279 183.206 71.4857 183.438 71.9551C183.671 72.4245 183.787 72.9964 183.787 73.6709C183.787 74.391 183.648 75.0107 183.37 75.5303C183.092 76.0498 182.698 76.4486 182.188 76.7266C181.682 77 181.08 77.1367 180.383 77.1367C179.872 77.1367 179.396 77.0501 178.954 76.877C178.512 76.6992 178.125 76.4303 177.792 76.0703C177.459 75.7103 177.2 75.2568 177.013 74.71C176.826 74.1585 176.732 73.5068 176.732 72.7549ZM180.342 75.4482C180.757 75.4482 181.094 75.307 181.354 75.0244C181.613 74.7419 181.743 74.2998 181.743 73.6982C181.743 73.2106 181.629 72.8278 181.401 72.5498C181.178 72.2673 180.839 72.126 180.383 72.126C180.073 72.126 179.799 72.1966 179.562 72.3379C179.33 72.4746 179.15 72.6501 179.022 72.8643C178.895 73.0739 178.831 73.2904 178.831 73.5137C178.831 73.7461 178.863 73.9762 178.927 74.2041C178.991 74.432 179.086 74.6393 179.214 74.8262C179.341 75.013 179.499 75.1634 179.686 75.2773C179.877 75.3913 180.096 75.4482 180.342 75.4482Z" fill="#0A0A0B"/>
<path d="M8.28241 74.7176C6.37356 72.8088 5.94255 70.8999 5.84531 70.1351C5.81814 69.9237 5.89091 69.7116 6.0422 69.5614L7.58693 68.0173C7.81417 67.7902 7.85449 67.4363 7.68417 67.1639L5.22466 63.3448C5.03623 63.0432 4.64932 62.9344 4.33126 63.0935L0.382872 64.953C0.125666 65.0797 -0.0256186 65.3529 0.00358427 65.6381C0.210469 67.6035 1.06731 72.435 5.81531 77.1833C10.5633 81.9317 15.3941 82.7882 17.3605 82.9951C17.6457 83.0243 17.919 82.873 18.0456 82.6158L19.9052 78.6674C20.0637 78.35 19.9556 77.9641 19.6552 77.7754L15.8361 75.3165C15.5639 75.146 15.21 75.1861 14.9827 75.4131L13.4387 76.9578C13.2884 77.1091 13.0764 77.1819 12.8649 77.1547C12.1001 77.0575 10.1913 76.6265 8.28241 74.7176Z" fill="#FE8C12"/>
<path d="M15.8624 73.6892C15.4815 73.6892 15.1728 73.3804 15.1728 72.9996C15.1695 70.1444 12.8558 67.8307 10.0006 67.8275C9.61979 67.8275 9.31104 67.5187 9.31104 67.1379C9.31104 66.757 9.61979 66.4482 10.0006 66.4482C13.6172 66.4522 16.548 69.383 16.552 72.9996C16.552 73.3804 16.2432 73.6892 15.8624 73.6892Z" fill="#FE8C12"/>
<path d="M19.3104 73.689C18.9296 73.689 18.6208 73.3803 18.6208 72.9994C18.6155 68.2408 14.7592 64.3846 10.0006 64.3792C9.61979 64.3792 9.31104 64.0705 9.31104 63.6896C9.31104 63.3088 9.61979 63 10.0006 63C15.5207 63.0061 19.994 67.4794 20.0001 72.9994C20.0001 73.1823 19.9274 73.3577 19.7981 73.487C19.6688 73.6164 19.4933 73.689 19.3104 73.689Z" fill="#FE8C12"/>
<path d="M1.54297 22.999V8.72168H5.41992V22.999H1.54297ZM22.1094 22.999H17.0508L11.8359 12.9404H11.748C11.7806 13.2464 11.8099 13.6143 11.8359 14.0439C11.862 14.4736 11.8848 14.9131 11.9043 15.3623C11.9238 15.805 11.9336 16.2054 11.9336 16.5635V22.999H8.51562V8.72168H13.5547L18.75 18.6436H18.8086C18.7891 18.3311 18.7695 17.9697 18.75 17.5596C18.7305 17.1429 18.7109 16.723 18.6914 16.2998C18.6784 15.8766 18.6719 15.5023 18.6719 15.1768V8.72168H22.1094V22.999ZM28.9941 22.999H25.1953V8.72168H33.6328V11.8174H28.9941V14.542H33.2715V17.6377H28.9941V22.999ZM49.3359 15.8408C49.3359 16.9411 49.2025 17.9437 48.9355 18.8486C48.6751 19.7471 48.265 20.5218 47.7051 21.1729C47.1452 21.8239 46.4258 22.3252 45.5469 22.6768C44.668 23.0218 43.6165 23.1943 42.3926 23.1943C41.1947 23.1943 40.1562 23.0218 39.2773 22.6768C38.4049 22.3252 37.6855 21.8271 37.1191 21.1826C36.5527 20.5316 36.1328 19.7536 35.8594 18.8486C35.5859 17.9437 35.4492 16.9346 35.4492 15.8213C35.4492 14.3369 35.6934 13.0479 36.1816 11.9541C36.6764 10.8538 37.4382 10.0042 38.4668 9.40527C39.4954 8.7998 40.8105 8.49707 42.4121 8.49707C44.0397 8.49707 45.3613 8.7998 46.377 9.40527C47.3991 10.0107 48.1478 10.8636 48.623 11.9639C49.0983 13.0641 49.3359 14.3564 49.3359 15.8408ZM39.5117 15.8408C39.5117 16.7002 39.6094 17.4391 39.8047 18.0576C40 18.6761 40.3092 19.1514 40.7324 19.4834C41.1556 19.8154 41.709 19.9814 42.3926 19.9814C43.1022 19.9814 43.6654 19.8154 44.082 19.4834C44.5052 19.1514 44.8079 18.6761 44.9902 18.0576C45.179 17.4391 45.2734 16.7002 45.2734 15.8408C45.2734 14.5518 45.0586 13.5329 44.6289 12.7842C44.1992 12.0355 43.4603 11.6611 42.4121 11.6611C41.7155 11.6611 41.1523 11.8304 40.7227 12.1689C40.2995 12.5075 39.9902 12.9893 39.7949 13.6143C39.6061 14.2393 39.5117 14.9814 39.5117 15.8408ZM56.5918 8.72168C57.8874 8.72168 58.9648 8.88118 59.8242 9.2002C60.6836 9.5127 61.3281 9.98145 61.7578 10.6064C62.194 11.2314 62.4121 12.0094 62.4121 12.9404C62.4121 13.5199 62.3145 14.0472 62.1191 14.5225C61.9238 14.9977 61.6439 15.4242 61.2793 15.8018C60.9212 16.1729 60.4915 16.4984 59.9902 16.7783L64.1504 22.999H59.7754L56.748 17.8037H55.7715V22.999H51.9141V8.72168H56.5918ZM56.5332 11.6416H55.7715V14.9033H56.4941C57.0866 14.9033 57.5716 14.7731 57.9492 14.5127C58.3268 14.2523 58.5156 13.7868 58.5156 13.1162C58.5156 12.654 58.3594 12.2926 58.0469 12.0322C57.7344 11.7718 57.2298 11.6416 56.5332 11.6416ZM71.6699 22.999L68.75 12.7158H68.6621C68.6882 12.9827 68.7142 13.3441 68.7402 13.7998C68.7728 14.2555 68.8021 14.7471 68.8281 15.2744C68.8542 15.8018 68.8672 16.3096 68.8672 16.7979V22.999H65.4492V8.72168H70.5859L73.5645 18.8584H73.6426L76.5625 8.72168H81.709V22.999H78.1641V16.7393C78.1641 16.29 78.1706 15.8083 78.1836 15.2939C78.2031 14.7731 78.2227 14.2848 78.2422 13.8291C78.2682 13.3669 78.291 13.0023 78.3105 12.7354H78.2227L75.3418 22.999H71.6699ZM93.5449 22.999L92.8418 20.3232H88.2031L87.4805 22.999H83.2422L87.9004 8.66309H93.0469L97.7637 22.999H93.5449ZM92.041 17.1592L91.4258 14.8154C91.3607 14.5615 91.2663 14.2002 91.1426 13.7314C91.0189 13.2562 90.8952 12.7679 90.7715 12.2666C90.6543 11.7588 90.5632 11.3421 90.498 11.0166C90.4395 11.3421 90.3548 11.7458 90.2441 12.2275C90.14 12.7028 90.0293 13.1748 89.9121 13.6436C89.8014 14.1123 89.7038 14.5029 89.6191 14.8154L89.0039 17.1592H92.041ZM105.615 22.999H101.758V11.876H98.2715V8.72168H109.092V11.876H105.615V22.999ZM111.133 22.999V8.72168H115.01V22.999H111.133ZM131.465 15.8408C131.465 16.9411 131.331 17.9437 131.064 18.8486C130.804 19.7471 130.394 20.5218 129.834 21.1729C129.274 21.8239 128.555 22.3252 127.676 22.6768C126.797 23.0218 125.745 23.1943 124.521 23.1943C123.324 23.1943 122.285 23.0218 121.406 22.6768C120.534 22.3252 119.814 21.8271 119.248 21.1826C118.682 20.5316 118.262 19.7536 117.988 18.8486C117.715 17.9437 117.578 16.9346 117.578 15.8213C117.578 14.3369 117.822 13.0479 118.311 11.9541C118.805 10.8538 119.567 10.0042 120.596 9.40527C121.624 8.7998 122.939 8.49707 124.541 8.49707C126.169 8.49707 127.49 8.7998 128.506 9.40527C129.528 10.0107 130.277 10.8636 130.752 11.9639C131.227 13.0641 131.465 14.3564 131.465 15.8408ZM121.641 15.8408C121.641 16.7002 121.738 17.4391 121.934 18.0576C122.129 18.6761 122.438 19.1514 122.861 19.4834C123.285 19.8154 123.838 19.9814 124.521 19.9814C125.231 19.9814 125.794 19.8154 126.211 19.4834C126.634 19.1514 126.937 18.6761 127.119 18.0576C127.308 17.4391 127.402 16.7002 127.402 15.8408C127.402 14.5518 127.188 13.5329 126.758 12.7842C126.328 12.0355 125.589 11.6611 124.541 11.6611C123.844 11.6611 123.281 11.8304 122.852 12.1689C122.428 12.5075 122.119 12.9893 121.924 13.6143C121.735 14.2393 121.641 14.9814 121.641 15.8408ZM147.637 22.999H142.578L137.363 12.9404H137.275C137.308 13.2464 137.337 13.6143 137.363 14.0439C137.389 14.4736 137.412 14.9131 137.432 15.3623C137.451 15.805 137.461 16.2054 137.461 16.5635V22.999H134.043V8.72168H139.082L144.277 18.6436H144.336C144.316 18.3311 144.297 17.9697 144.277 17.5596C144.258 17.1429 144.238 16.723 144.219 16.2998C144.206 15.8766 144.199 15.5023 144.199 15.1768V8.72168H147.637V22.999Z" fill="#0A0A0B"/>
</svg>
