<svg width="163" height="46" viewBox="0 0 163 46" fill="none" xmlns="http://www.w3.org/2000/svg">
<path d="M64.7051 12.207V17.3633C64.7051 17.9492 64.6855 18.5107 64.6465 19.0479C64.6074 19.5752 64.5586 20.0732 64.5 20.542H64.7051C65.1348 19.8682 65.6963 19.2969 66.3896 18.8281C67.083 18.3496 67.9912 18.1104 69.1143 18.1104C70.8428 18.1104 72.2539 18.8428 73.3477 20.3076C74.4512 21.7725 75.0029 23.8916 75.0029 26.665C75.0029 28.5498 74.749 30.1367 74.2412 31.4258C73.7334 32.7051 73.0205 33.6719 72.1025 34.3262C71.1943 34.9707 70.1396 35.293 68.9385 35.293C67.7666 35.293 66.873 35.0928 66.2578 34.6924C65.6523 34.2822 65.1348 33.8428 64.7051 33.374H64.3535L63.4453 35H58.9775V12.207H64.7051ZM67.0195 22.6074C66.4922 22.6074 66.0576 22.7295 65.7158 22.9736C65.374 23.2178 65.1201 23.5986 64.9541 24.1162C64.7881 24.624 64.7051 25.2734 64.7051 26.0645V26.8701C64.7051 28.1592 64.876 29.1162 65.2178 29.7412C65.5693 30.3662 66.1895 30.6787 67.0781 30.6787C67.752 30.6787 68.2695 30.332 68.6309 29.6387C68.9922 28.9453 69.1729 27.9346 69.1729 26.6064C69.1729 25.2783 68.9971 24.2822 68.6455 23.6182C68.2939 22.9443 67.752 22.6074 67.0195 22.6074ZM84.041 18.4033V35H78.3135V18.4033H84.041ZM81.1992 11.7236C82.0195 11.7236 82.7324 11.8945 83.3379 12.2363C83.9531 12.5781 84.2607 13.2568 84.2607 14.2725C84.2607 15.2588 83.9531 15.9277 83.3379 16.2793C82.7324 16.6211 82.0195 16.792 81.1992 16.792C80.3594 16.792 79.6416 16.6211 79.0459 16.2793C78.46 15.9277 78.167 15.2588 78.167 14.2725C78.167 13.2568 78.46 12.5781 79.0459 12.2363C79.6416 11.8945 80.3594 11.7236 81.1992 11.7236ZM103.89 26.665C103.89 28.0518 103.699 29.2822 103.318 30.3564C102.938 31.4307 102.386 32.334 101.663 33.0664C100.94 33.7988 100.066 34.3555 99.041 34.7363C98.0156 35.1074 96.8584 35.293 95.5693 35.293C94.3682 35.293 93.2646 35.1074 92.2588 34.7363C91.2627 34.3555 90.3936 33.7988 89.6514 33.0664C88.9092 32.334 88.333 31.4307 87.9229 30.3564C87.5225 29.2822 87.3223 28.0518 87.3223 26.665C87.3223 24.8291 87.6543 23.2764 88.3184 22.0068C88.9922 20.7373 89.9492 19.7705 91.1895 19.1064C92.4395 18.4424 93.9287 18.1104 95.6572 18.1104C97.249 18.1104 98.665 18.4424 99.9053 19.1064C101.146 19.7705 102.117 20.7373 102.82 22.0068C103.533 23.2764 103.89 24.8291 103.89 26.665ZM93.1377 26.665C93.1377 27.6123 93.2207 28.4131 93.3867 29.0674C93.5527 29.7119 93.8164 30.2051 94.1777 30.5469C94.5488 30.8789 95.0322 31.0449 95.6279 31.0449C96.2236 31.0449 96.6973 30.8789 97.0488 30.5469C97.4004 30.2051 97.6543 29.7119 97.8105 29.0674C97.9766 28.4131 98.0596 27.6123 98.0596 26.665C98.0596 25.7178 97.9766 24.9268 97.8105 24.292C97.6543 23.6572 97.3955 23.1787 97.0342 22.8564C96.6826 22.5342 96.2041 22.373 95.5986 22.373C94.7295 22.373 94.0996 22.7344 93.709 23.457C93.3281 24.1797 93.1377 25.249 93.1377 26.665ZM111.521 35L105.193 18.4033H111.17L113.982 28.2178C114.012 28.3057 114.061 28.5303 114.129 28.8916C114.207 29.2529 114.246 29.5898 114.246 29.9023H114.349C114.349 29.5703 114.383 29.2529 114.451 28.9502C114.52 28.6475 114.573 28.4131 114.612 28.2471L117.557 18.4033H123.519L117.19 35H111.521ZM132.981 18.1104C134.593 18.1104 135.984 18.3936 137.156 18.96C138.328 19.5166 139.231 20.3564 139.866 21.4795C140.501 22.6025 140.818 24.0088 140.818 25.6982V28.2471H130.579C130.628 29.1162 130.95 29.8291 131.546 30.3857C132.151 30.9424 133.04 31.2207 134.212 31.2207C135.247 31.2207 136.194 31.1182 137.054 30.9131C137.923 30.708 138.816 30.3906 139.734 29.9609V34.0771C138.934 34.4971 138.06 34.8047 137.112 35C136.165 35.1953 134.969 35.293 133.523 35.293C131.854 35.293 130.359 34.9951 129.041 34.3994C127.723 33.8037 126.683 32.8809 125.921 31.6309C125.169 30.3809 124.793 28.7744 124.793 26.8115C124.793 24.8193 125.135 23.1836 125.818 21.9043C126.502 20.6152 127.459 19.6631 128.689 19.0479C129.92 18.4229 131.351 18.1104 132.981 18.1104ZM133.187 22.0068C132.513 22.0068 131.946 22.2217 131.487 22.6514C131.038 23.0713 130.774 23.7354 130.696 24.6436H135.618C135.608 24.1553 135.511 23.7109 135.325 23.3105C135.14 22.9102 134.866 22.5928 134.505 22.3584C134.153 22.124 133.714 22.0068 133.187 22.0068ZM154.441 18.1104C156.15 18.1104 157.547 18.5938 158.631 19.5605C159.715 20.5273 160.257 22.0752 160.257 24.2041V35H154.529V25.9473C154.529 24.8438 154.368 24.0137 154.046 23.457C153.733 22.8906 153.226 22.6074 152.522 22.6074C151.438 22.6074 150.711 23.0518 150.34 23.9404C149.969 24.8193 149.783 26.084 149.783 27.7344V35H144.056V18.4033H148.377L149.153 20.6006H149.373C149.725 20.0732 150.145 19.624 150.633 19.2529C151.121 18.8818 151.683 18.5986 152.317 18.4033C152.952 18.208 153.66 18.1104 154.441 18.1104Z" fill="#0A0A0B"/>
<path d="M22.7654 1.00105C20.354 0.977976 18.0465 1.33564 15.8543 2.00482L15.6697 17.1883H15.7851C17.5388 14.2231 20.6655 12.3194 24.9806 12.3656C31.6262 12.4464 36.2644 18.0421 36.1144 26.1761C35.999 35.7523 29.9071 40.4481 23.9307 40.3789C20.054 40.3327 16.9735 38.7982 15.0236 35.2331H14.8621L14.5852 39.6636L10.374 39.6174C10.5009 37.7945 10.6509 35.0831 10.674 32.6948L11.0085 4.18543C4.50134 8.06207 0.0939733 15.1115 0.00167253 23.234C-0.148316 35.66 9.80864 45.8477 22.2346 45.9977C34.6606 46.1477 44.8483 36.1907 44.9983 23.7647C45.1483 11.3387 35.1914 1.15104 22.7654 1.00105Z" fill="#FE8C12"/>
<path d="M22.9845 36.4906C28.0841 36.5483 31.1762 32.4293 31.2454 26.2798C31.3147 20.9033 28.5918 16.2767 23.3883 16.219C20.0655 16.1844 16.9388 18.4111 15.9004 22.1147C15.785 22.6685 15.612 23.3262 15.6004 24.1107L15.5428 28.9334C15.5312 29.5449 15.635 30.1564 15.7389 30.7102C16.6388 34.0907 19.4425 36.456 22.9845 36.4906Z" fill="#FE8C12"/>
<path d="M10.3743 39.6058L14.5855 39.6519L14.8624 35.2215H15.0239C16.9738 38.7866 20.0543 40.3211 23.9309 40.3673C29.9074 40.4365 35.9993 35.7522 36.1146 26.1645C36.2646 18.0305 31.6265 12.4347 24.9809 12.354C20.6658 12.3078 17.5391 14.2 15.7854 17.1767H15.67L15.8546 1.99319C14.1355 2.52392 12.5203 3.26233 11.0088 4.16226L10.6742 32.6717C10.6512 35.0715 10.5012 37.7828 10.3743 39.6058ZM15.6008 24.1108C15.6123 23.3377 15.7854 22.6686 15.9008 22.1148C16.9392 18.4112 20.0659 16.1844 23.3887 16.219C28.5921 16.2767 31.3035 20.9149 31.2458 26.2798C31.1766 32.4294 28.0729 36.5483 22.9849 36.4906C19.4428 36.4445 16.6392 34.0908 15.7392 30.6987C15.6354 30.1449 15.5316 29.5335 15.5431 28.922L15.6008 24.1108Z" fill="white"/>
</svg>
