<svg width="218" height="229" viewBox="0 0 218 229" fill="none" xmlns="http://www.w3.org/2000/svg">
<path d="M4.8877 67.3721L1.91406 75.999H0.116211L3.8623 66.0459H5.01074L4.8877 67.3721ZM7.37598 75.999L4.39551 67.3721L4.26562 66.0459H5.4209L9.18066 75.999H7.37598ZM7.23242 72.3076V73.668H1.81836V72.3076H7.23242ZM14.0273 71.501H11.4912L11.4775 70.25H13.6924C14.0661 70.25 14.3828 70.1953 14.6426 70.0859C14.9069 69.972 15.1074 69.8102 15.2441 69.6006C15.3809 69.3864 15.4492 69.1289 15.4492 68.8281C15.4492 68.4954 15.3854 68.2243 15.2578 68.0146C15.1302 67.805 14.9342 67.6523 14.6699 67.5566C14.4102 67.4609 14.0775 67.4131 13.6719 67.4131H12.0107V75.999H10.2949V66.0459H13.6719C14.2188 66.0459 14.7064 66.0983 15.1348 66.2031C15.5677 66.3079 15.9346 66.472 16.2354 66.6953C16.5407 66.9141 16.7708 67.1921 16.9258 67.5293C17.0853 67.8665 17.165 68.2676 17.165 68.7324C17.165 69.1426 17.0671 69.5186 16.8711 69.8604C16.6751 70.1976 16.3857 70.4733 16.0029 70.6875C15.6201 70.9017 15.1439 71.0293 14.5742 71.0703L14.0273 71.501ZM13.9521 75.999H10.9512L11.7236 74.6387H13.9521C14.3395 74.6387 14.6631 74.5749 14.9229 74.4473C15.1826 74.3151 15.3763 74.1351 15.5039 73.9072C15.6361 73.6748 15.7021 73.4036 15.7021 73.0938C15.7021 72.7702 15.6452 72.4899 15.5312 72.2529C15.4173 72.0114 15.2373 71.8268 14.9912 71.6992C14.7451 71.5671 14.4238 71.501 14.0273 71.501H12.0996L12.1133 70.25H14.6221L15.0117 70.7217C15.5586 70.7399 16.0075 70.8607 16.3584 71.084C16.7139 71.3073 16.9782 71.5967 17.1514 71.9521C17.3245 72.3076 17.4111 72.6904 17.4111 73.1006C17.4111 73.734 17.2721 74.265 16.9941 74.6934C16.7207 75.1217 16.3265 75.4476 15.8115 75.6709C15.2965 75.8896 14.6768 75.999 13.9521 75.999ZM27.0771 70.749V71.2959C27.0771 72.0479 26.9792 72.7223 26.7832 73.3193C26.5872 73.9163 26.307 74.4245 25.9424 74.8438C25.5824 75.263 25.1494 75.5843 24.6436 75.8076C24.1377 76.0264 23.5771 76.1357 22.9619 76.1357C22.3512 76.1357 21.793 76.0264 21.2871 75.8076C20.7858 75.5843 20.3506 75.263 19.9814 74.8438C19.6123 74.4245 19.3252 73.9163 19.1201 73.3193C18.9196 72.7223 18.8193 72.0479 18.8193 71.2959V70.749C18.8193 69.9971 18.9196 69.3249 19.1201 68.7324C19.3206 68.1354 19.6032 67.6273 19.9678 67.208C20.3369 66.7842 20.7721 66.4629 21.2734 66.2441C21.7793 66.0208 22.3376 65.9092 22.9482 65.9092C23.5635 65.9092 24.124 66.0208 24.6299 66.2441C25.1357 66.4629 25.571 66.7842 25.9355 67.208C26.3001 67.6273 26.5804 68.1354 26.7764 68.7324C26.9769 69.3249 27.0771 69.9971 27.0771 70.749ZM25.3613 71.2959V70.7354C25.3613 70.1794 25.3066 69.6895 25.1973 69.2656C25.0924 68.8372 24.9352 68.4795 24.7256 68.1924C24.5205 67.9007 24.2676 67.682 23.9668 67.5361C23.666 67.3857 23.3265 67.3105 22.9482 67.3105C22.57 67.3105 22.2327 67.3857 21.9365 67.5361C21.6403 67.682 21.3874 67.9007 21.1777 68.1924C20.9727 68.4795 20.8154 68.8372 20.7061 69.2656C20.5967 69.6895 20.542 70.1794 20.542 70.7354V71.2959C20.542 71.8519 20.5967 72.3441 20.7061 72.7725C20.8154 73.2008 20.9749 73.5632 21.1846 73.8594C21.3988 74.151 21.654 74.3721 21.9502 74.5225C22.2464 74.6683 22.5837 74.7412 22.9619 74.7412C23.3447 74.7412 23.6842 74.6683 23.9805 74.5225C24.2767 74.3721 24.5273 74.151 24.7324 73.8594C24.9375 73.5632 25.0924 73.2008 25.1973 72.7725C25.3066 72.3441 25.3613 71.8519 25.3613 71.2959ZM34.3779 66.0459H36.0869V72.6973C36.0869 73.4538 35.9229 74.0872 35.5947 74.5977C35.2666 75.1081 34.82 75.4932 34.2549 75.7529C33.6943 76.0081 33.0677 76.1357 32.375 76.1357C31.6595 76.1357 31.0215 76.0081 30.4609 75.7529C29.9004 75.4932 29.4583 75.1081 29.1348 74.5977C28.8158 74.0872 28.6562 73.4538 28.6562 72.6973V66.0459H30.3652V72.6973C30.3652 73.1758 30.4473 73.57 30.6113 73.8799C30.7754 74.1852 31.0078 74.4108 31.3086 74.5566C31.6094 74.7025 31.9648 74.7754 32.375 74.7754C32.7852 74.7754 33.1383 74.7025 33.4346 74.5566C33.7354 74.4108 33.9678 74.1852 34.1318 73.8799C34.2959 73.57 34.3779 73.1758 34.3779 72.6973V66.0459ZM42.0479 66.0459V75.999H40.3457V66.0459H42.0479ZM45.1719 66.0459V67.4131H37.249V66.0459H45.1719ZM55.2275 66.0459H56.9365V72.6973C56.9365 73.4538 56.7725 74.0872 56.4443 74.5977C56.1162 75.1081 55.6696 75.4932 55.1045 75.7529C54.5439 76.0081 53.9173 76.1357 53.2246 76.1357C52.5091 76.1357 51.8711 76.0081 51.3105 75.7529C50.75 75.4932 50.3079 75.1081 49.9844 74.5977C49.6654 74.0872 49.5059 73.4538 49.5059 72.6973V66.0459H51.2148V72.6973C51.2148 73.1758 51.2969 73.57 51.4609 73.8799C51.625 74.1852 51.8574 74.4108 52.1582 74.5566C52.459 74.7025 52.8145 74.7754 53.2246 74.7754C53.6348 74.7754 53.988 74.7025 54.2842 74.5566C54.585 74.4108 54.8174 74.1852 54.9814 73.8799C55.1455 73.57 55.2275 73.1758 55.2275 72.6973V66.0459ZM64.0391 73.4355C64.0391 73.2305 64.0072 73.0482 63.9434 72.8887C63.8841 72.7292 63.777 72.5833 63.6221 72.4512C63.4671 72.319 63.2484 72.1914 62.9658 72.0684C62.6878 71.9408 62.3324 71.8109 61.8994 71.6787C61.4255 71.5329 60.988 71.3711 60.5869 71.1934C60.1904 71.0111 59.8441 70.8014 59.5479 70.5645C59.2516 70.3229 59.0215 70.0472 58.8574 69.7373C58.6934 69.4229 58.6113 69.0605 58.6113 68.6504C58.6113 68.2448 58.6956 67.8757 58.8643 67.543C59.0374 67.2103 59.2812 66.9232 59.5957 66.6816C59.9147 66.4355 60.2907 66.2464 60.7236 66.1143C61.1566 65.9775 61.6351 65.9092 62.1592 65.9092C62.8975 65.9092 63.5332 66.0459 64.0664 66.3193C64.6042 66.5928 65.0166 66.9596 65.3037 67.4199C65.5954 67.8802 65.7412 68.3883 65.7412 68.9443H64.0391C64.0391 68.6162 63.9684 68.3268 63.8271 68.0762C63.6904 67.821 63.4808 67.6204 63.1982 67.4746C62.9202 67.3288 62.5671 67.2559 62.1387 67.2559C61.7331 67.2559 61.3958 67.3174 61.127 67.4404C60.8581 67.5635 60.6576 67.7298 60.5254 67.9395C60.3932 68.1491 60.3271 68.3861 60.3271 68.6504C60.3271 68.8372 60.3704 69.0081 60.457 69.1631C60.5436 69.3135 60.6758 69.4548 60.8535 69.5869C61.0312 69.7145 61.2546 69.8353 61.5234 69.9492C61.7923 70.0632 62.109 70.1725 62.4736 70.2773C63.0251 70.4414 63.5059 70.6237 63.916 70.8242C64.3262 71.0202 64.668 71.2435 64.9414 71.4941C65.2148 71.7448 65.4199 72.0296 65.5566 72.3486C65.6934 72.6631 65.7617 73.0208 65.7617 73.4219C65.7617 73.8411 65.6774 74.2194 65.5088 74.5566C65.3402 74.8893 65.0986 75.1742 64.7842 75.4111C64.4743 75.6436 64.1006 75.8236 63.6631 75.9512C63.2301 76.0742 62.7471 76.1357 62.2139 76.1357C61.7354 76.1357 61.2637 76.0719 60.7988 75.9443C60.3385 75.8167 59.9193 75.623 59.541 75.3633C59.1628 75.099 58.862 74.7708 58.6387 74.3789C58.4154 73.9824 58.3037 73.5199 58.3037 72.9912H60.0195C60.0195 73.3148 60.0742 73.5905 60.1836 73.8184C60.2975 74.0462 60.4548 74.2331 60.6553 74.3789C60.8558 74.5202 61.0882 74.625 61.3525 74.6934C61.6214 74.7617 61.9085 74.7959 62.2139 74.7959C62.6149 74.7959 62.9499 74.7389 63.2188 74.625C63.4922 74.5111 63.6973 74.3516 63.834 74.1465C63.9707 73.9414 64.0391 73.7044 64.0391 73.4355ZM6.24805 118.436C6.24805 118.23 6.21615 118.048 6.15234 117.889C6.0931 117.729 5.986 117.583 5.83105 117.451C5.67611 117.319 5.45736 117.191 5.1748 117.068C4.89681 116.941 4.54134 116.811 4.1084 116.679C3.63444 116.533 3.19694 116.371 2.7959 116.193C2.39941 116.011 2.05306 115.801 1.75684 115.564C1.46061 115.323 1.23047 115.047 1.06641 114.737C0.902344 114.423 0.820312 114.061 0.820312 113.65C0.820312 113.245 0.904622 112.876 1.07324 112.543C1.24642 112.21 1.49023 111.923 1.80469 111.682C2.1237 111.436 2.49967 111.246 2.93262 111.114C3.36556 110.978 3.84408 110.909 4.36816 110.909C5.10645 110.909 5.74219 111.046 6.27539 111.319C6.81315 111.593 7.22559 111.96 7.5127 112.42C7.80436 112.88 7.9502 113.388 7.9502 113.944H6.24805C6.24805 113.616 6.17741 113.327 6.03613 113.076C5.89941 112.821 5.68978 112.62 5.40723 112.475C5.12923 112.329 4.77604 112.256 4.34766 112.256C3.94206 112.256 3.60482 112.317 3.33594 112.44C3.06706 112.563 2.86654 112.73 2.73438 112.939C2.60221 113.149 2.53613 113.386 2.53613 113.65C2.53613 113.837 2.57943 114.008 2.66602 114.163C2.7526 114.313 2.88477 114.455 3.0625 114.587C3.24023 114.715 3.46354 114.835 3.73242 114.949C4.0013 115.063 4.31803 115.173 4.68262 115.277C5.23405 115.441 5.71484 115.624 6.125 115.824C6.53516 116.02 6.87695 116.243 7.15039 116.494C7.42383 116.745 7.62891 117.03 7.76562 117.349C7.90234 117.663 7.9707 118.021 7.9707 118.422C7.9707 118.841 7.88639 119.219 7.71777 119.557C7.54915 119.889 7.30762 120.174 6.99316 120.411C6.68327 120.644 6.30957 120.824 5.87207 120.951C5.43913 121.074 4.95605 121.136 4.42285 121.136C3.94434 121.136 3.47266 121.072 3.00781 120.944C2.54753 120.817 2.12826 120.623 1.75 120.363C1.37174 120.099 1.07096 119.771 0.847656 119.379C0.624349 118.982 0.512695 118.52 0.512695 117.991H2.22852C2.22852 118.315 2.2832 118.59 2.39258 118.818C2.50651 119.046 2.66374 119.233 2.86426 119.379C3.06478 119.52 3.2972 119.625 3.56152 119.693C3.8304 119.762 4.11751 119.796 4.42285 119.796C4.82389 119.796 5.15885 119.739 5.42773 119.625C5.70117 119.511 5.90625 119.352 6.04297 119.146C6.17969 118.941 6.24805 118.704 6.24805 118.436ZM16.0029 119.639V120.999H10.7188V119.639H16.0029ZM11.2041 111.046V120.999H9.48828V111.046H11.2041ZM15.3125 115.202V116.542H10.7188V115.202H15.3125ZM15.9688 111.046V112.413H10.7188V111.046H15.9688ZM17.4043 111.046H20.9248C21.6813 111.046 22.3262 111.16 22.8594 111.388C23.3926 111.616 23.8005 111.953 24.083 112.399C24.3701 112.841 24.5137 113.388 24.5137 114.04C24.5137 114.537 24.4225 114.974 24.2402 115.353C24.0579 115.731 23.8005 116.05 23.4678 116.31C23.1351 116.565 22.7386 116.763 22.2783 116.904L21.7588 117.157H18.5938L18.5801 115.797H20.9521C21.3623 115.797 21.7041 115.724 21.9775 115.578C22.251 115.432 22.4561 115.234 22.5928 114.983C22.734 114.728 22.8047 114.441 22.8047 114.122C22.8047 113.776 22.7363 113.475 22.5996 113.22C22.4674 112.96 22.2624 112.762 21.9844 112.625C21.7064 112.484 21.3532 112.413 20.9248 112.413H19.1201V120.999H17.4043V111.046ZM23.085 120.999L20.7471 116.528L22.5449 116.521L24.917 120.91V120.999H23.085ZM29.4971 119.181L32.1152 111.046H34.0088L30.4404 120.999H29.1621L29.4971 119.181ZM27.0771 111.046L29.6748 119.181L30.0303 120.999H28.7451L25.1904 111.046H27.0771ZM36.9551 111.046V120.999H35.2393V111.046H36.9551ZM44.9668 117.759H46.6758C46.6211 118.41 46.4388 118.992 46.1289 119.502C45.819 120.008 45.3838 120.407 44.8232 120.698C44.2627 120.99 43.5814 121.136 42.7793 121.136C42.1641 121.136 41.6104 121.026 41.1182 120.808C40.626 120.584 40.2044 120.27 39.8535 119.864C39.5026 119.454 39.2337 118.96 39.0469 118.381C38.8646 117.802 38.7734 117.155 38.7734 116.439V115.612C38.7734 114.897 38.8669 114.25 39.0537 113.671C39.2451 113.092 39.5186 112.598 39.874 112.188C40.2295 111.773 40.6556 111.456 41.1523 111.237C41.6536 111.019 42.2165 110.909 42.8408 110.909C43.6338 110.909 44.3037 111.055 44.8506 111.347C45.3975 111.638 45.8213 112.042 46.1221 112.557C46.4274 113.072 46.6143 113.662 46.6826 114.327H44.9736C44.9281 113.899 44.8278 113.532 44.6729 113.227C44.5225 112.921 44.2992 112.689 44.0029 112.529C43.7067 112.365 43.3193 112.283 42.8408 112.283C42.4489 112.283 42.1071 112.356 41.8154 112.502C41.5238 112.648 41.2799 112.862 41.084 113.145C40.888 113.427 40.7399 113.776 40.6396 114.19C40.5439 114.601 40.4961 115.07 40.4961 115.599V116.439C40.4961 116.941 40.5394 117.396 40.626 117.807C40.7171 118.212 40.8538 118.561 41.0361 118.853C41.223 119.144 41.46 119.37 41.7471 119.529C42.0342 119.689 42.3783 119.769 42.7793 119.769C43.2669 119.769 43.6611 119.691 43.9619 119.536C44.2673 119.381 44.4974 119.156 44.6523 118.859C44.8118 118.559 44.9167 118.192 44.9668 117.759ZM54.749 119.639V120.999H49.4648V119.639H54.749ZM49.9502 111.046V120.999H48.2344V111.046H49.9502ZM54.0586 115.202V116.542H49.4648V115.202H54.0586ZM54.7148 111.046V112.413H49.4648V111.046H54.7148ZM61.3867 118.436C61.3867 118.23 61.3548 118.048 61.291 117.889C61.2318 117.729 61.1247 117.583 60.9697 117.451C60.8148 117.319 60.596 117.191 60.3135 117.068C60.0355 116.941 59.68 116.811 59.2471 116.679C58.7731 116.533 58.3356 116.371 57.9346 116.193C57.5381 116.011 57.1917 115.801 56.8955 115.564C56.5993 115.323 56.3691 115.047 56.2051 114.737C56.041 114.423 55.959 114.061 55.959 113.65C55.959 113.245 56.0433 112.876 56.2119 112.543C56.3851 112.21 56.6289 111.923 56.9434 111.682C57.2624 111.436 57.6383 111.246 58.0713 111.114C58.5042 110.978 58.9827 110.909 59.5068 110.909C60.2451 110.909 60.8809 111.046 61.4141 111.319C61.9518 111.593 62.3643 111.96 62.6514 112.42C62.943 112.88 63.0889 113.388 63.0889 113.944H61.3867C61.3867 113.616 61.3161 113.327 61.1748 113.076C61.0381 112.821 60.8285 112.62 60.5459 112.475C60.2679 112.329 59.9147 112.256 59.4863 112.256C59.0807 112.256 58.7435 112.317 58.4746 112.44C58.2057 112.563 58.0052 112.73 57.873 112.939C57.7409 113.149 57.6748 113.386 57.6748 113.65C57.6748 113.837 57.7181 114.008 57.8047 114.163C57.8913 114.313 58.0234 114.455 58.2012 114.587C58.3789 114.715 58.6022 114.835 58.8711 114.949C59.14 115.063 59.4567 115.173 59.8213 115.277C60.3727 115.441 60.8535 115.624 61.2637 115.824C61.6738 116.02 62.0156 116.243 62.2891 116.494C62.5625 116.745 62.7676 117.03 62.9043 117.349C63.041 117.663 63.1094 118.021 63.1094 118.422C63.1094 118.841 63.0251 119.219 62.8564 119.557C62.6878 119.889 62.4463 120.174 62.1318 120.411C61.8219 120.644 61.4482 120.824 61.0107 120.951C60.5778 121.074 60.0947 121.136 59.5615 121.136C59.083 121.136 58.6113 121.072 58.1465 120.944C57.6862 120.817 57.2669 120.623 56.8887 120.363C56.5104 120.099 56.2096 119.771 55.9863 119.379C55.763 118.982 55.6514 118.52 55.6514 117.991H57.3672C57.3672 118.315 57.4219 118.59 57.5312 118.818C57.6452 119.046 57.8024 119.233 58.0029 119.379C58.2035 119.52 58.4359 119.625 58.7002 119.693C58.9691 119.762 59.2562 119.796 59.5615 119.796C59.9626 119.796 60.2975 119.739 60.5664 119.625C60.8398 119.511 61.0449 119.352 61.1816 119.146C61.3184 118.941 61.3867 118.704 61.3867 118.436ZM4.79199 162.287H2.20117V160.927H4.79199C5.24316 160.927 5.60775 160.854 5.88574 160.708C6.16374 160.562 6.36654 160.362 6.49414 160.106C6.6263 159.847 6.69238 159.55 6.69238 159.218C6.69238 158.903 6.6263 158.609 6.49414 158.336C6.36654 158.058 6.16374 157.835 5.88574 157.666C5.60775 157.497 5.24316 157.413 4.79199 157.413H2.72754V165.999H1.01172V156.046H4.79199C5.56217 156.046 6.21615 156.183 6.75391 156.456C7.29622 156.725 7.70866 157.099 7.99121 157.577C8.27376 158.051 8.41504 158.593 8.41504 159.204C8.41504 159.847 8.27376 160.398 7.99121 160.858C7.70866 161.319 7.29622 161.672 6.75391 161.918C6.21615 162.164 5.56217 162.287 4.79199 162.287ZM17.8896 160.749V161.296C17.8896 162.048 17.7917 162.722 17.5957 163.319C17.3997 163.916 17.1195 164.424 16.7549 164.844C16.3949 165.263 15.9619 165.584 15.4561 165.808C14.9502 166.026 14.3896 166.136 13.7744 166.136C13.1637 166.136 12.6055 166.026 12.0996 165.808C11.5983 165.584 11.1631 165.263 10.7939 164.844C10.4248 164.424 10.1377 163.916 9.93262 163.319C9.7321 162.722 9.63184 162.048 9.63184 161.296V160.749C9.63184 159.997 9.7321 159.325 9.93262 158.732C10.1331 158.135 10.4157 157.627 10.7803 157.208C11.1494 156.784 11.5846 156.463 12.0859 156.244C12.5918 156.021 13.1501 155.909 13.7607 155.909C14.376 155.909 14.9365 156.021 15.4424 156.244C15.9482 156.463 16.3835 156.784 16.748 157.208C17.1126 157.627 17.3929 158.135 17.5889 158.732C17.7894 159.325 17.8896 159.997 17.8896 160.749ZM16.1738 161.296V160.735C16.1738 160.179 16.1191 159.689 16.0098 159.266C15.9049 158.837 15.7477 158.479 15.5381 158.192C15.333 157.901 15.0801 157.682 14.7793 157.536C14.4785 157.386 14.139 157.311 13.7607 157.311C13.3825 157.311 13.0452 157.386 12.749 157.536C12.4528 157.682 12.1999 157.901 11.9902 158.192C11.7852 158.479 11.6279 158.837 11.5186 159.266C11.4092 159.689 11.3545 160.179 11.3545 160.735V161.296C11.3545 161.852 11.4092 162.344 11.5186 162.772C11.6279 163.201 11.7874 163.563 11.9971 163.859C12.2113 164.151 12.4665 164.372 12.7627 164.522C13.0589 164.668 13.3962 164.741 13.7744 164.741C14.1572 164.741 14.4967 164.668 14.793 164.522C15.0892 164.372 15.3398 164.151 15.5449 163.859C15.75 163.563 15.9049 163.201 16.0098 162.772C16.1191 162.344 16.1738 161.852 16.1738 161.296ZM19.6055 156.046H23.126C23.8825 156.046 24.5273 156.16 25.0605 156.388C25.5938 156.616 26.0016 156.953 26.2842 157.399C26.5713 157.841 26.7148 158.388 26.7148 159.04C26.7148 159.537 26.6237 159.974 26.4414 160.353C26.2591 160.731 26.0016 161.05 25.6689 161.31C25.3363 161.565 24.9398 161.763 24.4795 161.904L23.96 162.157H20.7949L20.7812 160.797H23.1533C23.5635 160.797 23.9053 160.724 24.1787 160.578C24.4521 160.432 24.6572 160.234 24.7939 159.983C24.9352 159.728 25.0059 159.441 25.0059 159.122C25.0059 158.776 24.9375 158.475 24.8008 158.22C24.6686 157.96 24.4635 157.762 24.1855 157.625C23.9076 157.484 23.5544 157.413 23.126 157.413H21.3213V165.999H19.6055V156.046ZM25.2861 165.999L22.9482 161.528L24.7461 161.521L27.1182 165.91V165.999H25.2861ZM32.0537 156.046V165.999H30.3516V156.046H32.0537ZM35.1777 156.046V157.413H27.2549V156.046H35.1777ZM38.2061 156.046V165.999H36.4902V156.046H38.2061ZM42.2666 160.4V161.761H37.7686V160.4H42.2666ZM42.834 156.046V157.413H37.7686V156.046H42.834ZM52.1377 160.749V161.296C52.1377 162.048 52.0397 162.722 51.8438 163.319C51.6478 163.916 51.3675 164.424 51.0029 164.844C50.6429 165.263 50.21 165.584 49.7041 165.808C49.1982 166.026 48.6377 166.136 48.0225 166.136C47.4118 166.136 46.8535 166.026 46.3477 165.808C45.8464 165.584 45.4111 165.263 45.042 164.844C44.6729 164.424 44.3857 163.916 44.1807 163.319C43.9801 162.722 43.8799 162.048 43.8799 161.296V160.749C43.8799 159.997 43.9801 159.325 44.1807 158.732C44.3812 158.135 44.6637 157.627 45.0283 157.208C45.3975 156.784 45.8327 156.463 46.334 156.244C46.8398 156.021 47.3981 155.909 48.0088 155.909C48.624 155.909 49.1846 156.021 49.6904 156.244C50.1963 156.463 50.6315 156.784 50.9961 157.208C51.3607 157.627 51.641 158.135 51.8369 158.732C52.0374 159.325 52.1377 159.997 52.1377 160.749ZM50.4219 161.296V160.735C50.4219 160.179 50.3672 159.689 50.2578 159.266C50.153 158.837 49.9958 158.479 49.7861 158.192C49.5811 157.901 49.3281 157.682 49.0273 157.536C48.7266 157.386 48.387 157.311 48.0088 157.311C47.6305 157.311 47.2933 157.386 46.9971 157.536C46.7008 157.682 46.4479 157.901 46.2383 158.192C46.0332 158.479 45.876 158.837 45.7666 159.266C45.6572 159.689 45.6025 160.179 45.6025 160.735V161.296C45.6025 161.852 45.6572 162.344 45.7666 162.772C45.876 163.201 46.0355 163.563 46.2451 163.859C46.4593 164.151 46.7145 164.372 47.0107 164.522C47.307 164.668 47.6442 164.741 48.0225 164.741C48.4053 164.741 48.7448 164.668 49.041 164.522C49.3372 164.372 49.5879 164.151 49.793 163.859C49.998 163.563 50.153 163.201 50.2578 162.772C50.3672 162.344 50.4219 161.852 50.4219 161.296ZM60.0879 164.639V165.999H55.0908V164.639H60.0879ZM55.5693 156.046V165.999H53.8535V156.046H55.5693ZM63.2461 156.046V165.999H61.5303V156.046H63.2461ZM73.3154 160.749V161.296C73.3154 162.048 73.2174 162.722 73.0215 163.319C72.8255 163.916 72.5452 164.424 72.1807 164.844C71.8206 165.263 71.3877 165.584 70.8818 165.808C70.376 166.026 69.8154 166.136 69.2002 166.136C68.5895 166.136 68.0312 166.026 67.5254 165.808C67.0241 165.584 66.5889 165.263 66.2197 164.844C65.8506 164.424 65.5635 163.916 65.3584 163.319C65.1579 162.722 65.0576 162.048 65.0576 161.296V160.749C65.0576 159.997 65.1579 159.325 65.3584 158.732C65.5589 158.135 65.8415 157.627 66.2061 157.208C66.5752 156.784 67.0104 156.463 67.5117 156.244C68.0176 156.021 68.5758 155.909 69.1865 155.909C69.8018 155.909 70.3623 156.021 70.8682 156.244C71.374 156.463 71.8092 156.784 72.1738 157.208C72.5384 157.627 72.8187 158.135 73.0146 158.732C73.2152 159.325 73.3154 159.997 73.3154 160.749ZM71.5996 161.296V160.735C71.5996 160.179 71.5449 159.689 71.4355 159.266C71.3307 158.837 71.1735 158.479 70.9639 158.192C70.7588 157.901 70.5059 157.682 70.2051 157.536C69.9043 157.386 69.5648 157.311 69.1865 157.311C68.8083 157.311 68.471 157.386 68.1748 157.536C67.8786 157.682 67.6257 157.901 67.416 158.192C67.2109 158.479 67.0537 158.837 66.9443 159.266C66.835 159.689 66.7803 160.179 66.7803 160.735V161.296C66.7803 161.852 66.835 162.344 66.9443 162.772C67.0537 163.201 67.2132 163.563 67.4229 163.859C67.637 164.151 67.8923 164.372 68.1885 164.522C68.4847 164.668 68.8219 164.741 69.2002 164.741C69.583 164.741 69.9225 164.668 70.2188 164.522C70.515 164.372 70.7656 164.151 70.9707 163.859C71.1758 163.563 71.3307 163.201 71.4355 162.772C71.5449 162.344 71.5996 161.852 71.5996 161.296ZM5.10645 201.046V210.999H3.4043V201.046H5.10645ZM8.23047 201.046V202.413H0.307617V201.046H8.23047ZM16.0576 209.639V210.999H10.7734V209.639H16.0576ZM11.2588 201.046V210.999H9.54297V201.046H11.2588ZM15.3672 205.202V206.542H10.7734V205.202H15.3672ZM16.0234 201.046V202.413H10.7734V201.046H16.0234ZM22.6953 208.436C22.6953 208.23 22.6634 208.048 22.5996 207.889C22.5404 207.729 22.4333 207.583 22.2783 207.451C22.1234 207.319 21.9046 207.191 21.6221 207.068C21.3441 206.941 20.9886 206.811 20.5557 206.679C20.0817 206.533 19.6442 206.371 19.2432 206.193C18.8467 206.011 18.5003 205.801 18.2041 205.564C17.9079 205.323 17.6777 205.047 17.5137 204.737C17.3496 204.423 17.2676 204.061 17.2676 203.65C17.2676 203.245 17.3519 202.876 17.5205 202.543C17.6937 202.21 17.9375 201.923 18.252 201.682C18.571 201.436 18.9469 201.246 19.3799 201.114C19.8128 200.978 20.2913 200.909 20.8154 200.909C21.5537 200.909 22.1895 201.046 22.7227 201.319C23.2604 201.593 23.6729 201.96 23.96 202.42C24.2516 202.88 24.3975 203.388 24.3975 203.944H22.6953C22.6953 203.616 22.6247 203.327 22.4834 203.076C22.3467 202.821 22.137 202.62 21.8545 202.475C21.5765 202.329 21.2233 202.256 20.7949 202.256C20.3893 202.256 20.0521 202.317 19.7832 202.44C19.5143 202.563 19.3138 202.73 19.1816 202.939C19.0495 203.149 18.9834 203.386 18.9834 203.65C18.9834 203.837 19.0267 204.008 19.1133 204.163C19.1999 204.313 19.332 204.455 19.5098 204.587C19.6875 204.715 19.9108 204.835 20.1797 204.949C20.4486 205.063 20.7653 205.173 21.1299 205.277C21.6813 205.441 22.1621 205.624 22.5723 205.824C22.9824 206.02 23.3242 206.243 23.5977 206.494C23.8711 206.745 24.0762 207.03 24.2129 207.349C24.3496 207.663 24.418 208.021 24.418 208.422C24.418 208.841 24.3337 209.219 24.165 209.557C23.9964 209.889 23.7549 210.174 23.4404 210.411C23.1305 210.644 22.7568 210.824 22.3193 210.951C21.8864 211.074 21.4033 211.136 20.8701 211.136C20.3916 211.136 19.9199 211.072 19.4551 210.944C18.9948 210.817 18.5755 210.623 18.1973 210.363C17.819 210.099 17.5182 209.771 17.2949 209.379C17.0716 208.982 16.96 208.52 16.96 207.991H18.6758C18.6758 208.315 18.7305 208.59 18.8398 208.818C18.9538 209.046 19.111 209.233 19.3115 209.379C19.512 209.52 19.7445 209.625 20.0088 209.693C20.2777 209.762 20.5648 209.796 20.8701 209.796C21.2712 209.796 21.6061 209.739 21.875 209.625C22.1484 209.511 22.3535 209.352 22.4902 209.146C22.627 208.941 22.6953 208.704 22.6953 208.436ZM30.0303 201.046V210.999H28.3281V201.046H30.0303ZM33.1543 201.046V202.413H25.2314V201.046H33.1543ZM36.2988 201.046V210.999H34.583V201.046H36.2988ZM39.1289 201.046H40.6602L43.5381 208.723L46.4092 201.046H47.9404L44.1396 210.999H42.9229L39.1289 201.046ZM38.4316 201.046H39.8877L40.1406 207.69V210.999H38.4316V201.046ZM47.1816 201.046H48.6445V210.999H46.9287V207.69L47.1816 201.046ZM58.6182 205.749V206.296C58.6182 207.048 58.5202 207.722 58.3242 208.319C58.1283 208.916 57.848 209.424 57.4834 209.844C57.1234 210.263 56.6904 210.584 56.1846 210.808C55.6787 211.026 55.1182 211.136 54.5029 211.136C53.8923 211.136 53.334 211.026 52.8281 210.808C52.3268 210.584 51.8916 210.263 51.5225 209.844C51.1533 209.424 50.8662 208.916 50.6611 208.319C50.4606 207.722 50.3604 207.048 50.3604 206.296V205.749C50.3604 204.997 50.4606 204.325 50.6611 203.732C50.8617 203.135 51.1442 202.627 51.5088 202.208C51.8779 201.784 52.3132 201.463 52.8145 201.244C53.3203 201.021 53.8786 200.909 54.4893 200.909C55.1045 200.909 55.665 201.021 56.1709 201.244C56.6768 201.463 57.112 201.784 57.4766 202.208C57.8411 202.627 58.1214 203.135 58.3174 203.732C58.5179 204.325 58.6182 204.997 58.6182 205.749ZM56.9023 206.296V205.735C56.9023 205.179 56.8477 204.689 56.7383 204.266C56.6335 203.837 56.4762 203.479 56.2666 203.192C56.0615 202.901 55.8086 202.682 55.5078 202.536C55.207 202.386 54.8675 202.311 54.4893 202.311C54.111 202.311 53.7738 202.386 53.4775 202.536C53.1813 202.682 52.9284 202.901 52.7188 203.192C52.5137 203.479 52.3564 203.837 52.2471 204.266C52.1377 204.689 52.083 205.179 52.083 205.735V206.296C52.083 206.852 52.1377 207.344 52.2471 207.772C52.3564 208.201 52.516 208.563 52.7256 208.859C52.9398 209.151 53.195 209.372 53.4912 209.522C53.7874 209.668 54.1247 209.741 54.5029 209.741C54.8857 209.741 55.2253 209.668 55.5215 209.522C55.8177 209.372 56.0684 209.151 56.2734 208.859C56.4785 208.563 56.6335 208.201 56.7383 207.772C56.8477 207.344 56.9023 206.852 56.9023 206.296ZM68.2295 201.046V210.999H66.5137L62.0498 203.869V210.999H60.334V201.046H62.0498L66.5273 208.189V201.046H68.2295ZM72.1055 201.046V210.999H70.3896V201.046H72.1055ZM78.2373 202.372L75.2637 210.999H73.4658L77.2119 201.046H78.3604L78.2373 202.372ZM80.7256 210.999L77.7451 202.372L77.6152 201.046H78.7705L82.5303 210.999H80.7256ZM80.582 207.308V208.668H75.168V207.308H80.582ZM89.8789 209.639V210.999H84.8818V209.639H89.8789ZM85.3604 201.046V210.999H83.6445V201.046H85.3604Z" fill="#0A0A0B"/>
<path d="M129.741 72.3018V76H128.012V66.0469H131.819C132.931 66.0469 133.813 66.3363 134.465 66.915C135.121 67.4938 135.449 68.2594 135.449 69.2119C135.449 70.1872 135.128 70.946 134.485 71.4883C133.847 72.0306 132.952 72.3018 131.799 72.3018H129.741ZM129.741 70.9141H131.819C132.435 70.9141 132.904 70.7705 133.228 70.4834C133.551 70.1917 133.713 69.7725 133.713 69.2256C133.713 68.6878 133.549 68.2594 133.221 67.9404C132.893 67.6169 132.441 67.4505 131.867 67.4414H129.741V70.9141ZM141.321 73.6826H137.466L136.659 76H134.861L138.621 66.0469H140.173L143.939 76H142.135L141.321 73.6826ZM137.951 72.2881H140.836L139.394 68.1592L137.951 72.2881ZM152.553 74.708C152.193 75.1774 151.694 75.5329 151.056 75.7744C150.418 76.016 149.693 76.1367 148.882 76.1367C148.048 76.1367 147.31 75.9476 146.667 75.5693C146.024 75.1911 145.528 74.651 145.177 73.9492C144.83 73.2428 144.65 72.4202 144.637 71.4814V70.7021C144.637 69.1982 144.997 68.0247 145.717 67.1816C146.437 66.334 147.442 65.9102 148.731 65.9102C149.839 65.9102 150.718 66.1836 151.37 66.7305C152.022 67.2773 152.414 68.0658 152.546 69.0957H150.851C150.659 67.8971 149.964 67.2979 148.766 67.2979C147.991 67.2979 147.401 67.5781 146.995 68.1387C146.594 68.6947 146.387 69.5127 146.373 70.5928V71.3584C146.373 72.4339 146.599 73.2702 147.05 73.8672C147.506 74.4596 148.137 74.7559 148.943 74.7559C149.827 74.7559 150.456 74.5553 150.83 74.1543V72.2061H148.779V70.8936H152.553V74.708ZM160.271 71.5566H156.183V74.6191H160.961V76H154.453V66.0469H160.913V67.4414H156.183V70.1895H160.271V71.5566ZM167.571 73.4365C167.571 72.999 167.416 72.6618 167.106 72.4248C166.801 72.1878 166.247 71.9486 165.445 71.707C164.643 71.4655 164.005 71.1966 163.531 70.9004C162.624 70.3307 162.171 69.5879 162.171 68.6719C162.171 67.8698 162.497 67.209 163.148 66.6895C163.805 66.1699 164.655 65.9102 165.698 65.9102C166.391 65.9102 167.008 66.0378 167.551 66.293C168.093 66.5482 168.519 66.9128 168.829 67.3867C169.139 67.8561 169.294 68.3779 169.294 68.9521H167.571C167.571 68.4326 167.407 68.027 167.079 67.7354C166.756 67.4391 166.291 67.291 165.685 67.291C165.119 67.291 164.68 67.4118 164.365 67.6533C164.055 67.8949 163.9 68.2321 163.9 68.665C163.9 69.0296 164.069 69.335 164.406 69.5811C164.743 69.8226 165.299 70.0596 166.074 70.292C166.849 70.5199 167.471 70.7819 167.94 71.0781C168.41 71.3698 168.754 71.707 168.973 72.0898C169.191 72.4681 169.301 72.9124 169.301 73.4229C169.301 74.2523 168.982 74.9131 168.344 75.4053C167.71 75.8929 166.849 76.1367 165.76 76.1367C165.04 76.1367 164.377 76.0046 163.771 75.7402C163.169 75.4714 162.7 75.1022 162.362 74.6328C162.03 74.1634 161.863 73.6165 161.863 72.9922H163.593C163.593 73.5573 163.78 73.9948 164.153 74.3047C164.527 74.6146 165.062 74.7695 165.76 74.7695C166.361 74.7695 166.812 74.6488 167.113 74.4072C167.419 74.1611 167.571 73.8376 167.571 73.4365ZM133.747 116.782H129.741V121H128.012V111.047H134.335V112.441H129.741V115.401H133.747V116.782ZM139.968 118.683H136.112L135.306 121H133.508L137.268 111.047H138.819L142.586 121H140.781L139.968 118.683ZM136.598 117.288H139.482L138.04 113.159L136.598 117.288ZM151.479 116.283C151.479 117.227 151.329 118.045 151.028 118.737C150.732 119.425 150.315 119.972 149.777 120.378L151.486 121.711L150.365 122.723L148.246 121.048C147.968 121.107 147.67 121.137 147.351 121.137C146.549 121.137 145.831 120.941 145.197 120.549C144.568 120.152 144.081 119.59 143.734 118.86C143.393 118.131 143.219 117.29 143.215 116.338V115.777C143.215 114.807 143.386 113.95 143.728 113.207C144.074 112.464 144.559 111.897 145.184 111.505C145.812 111.108 146.53 110.91 147.337 110.91C148.157 110.91 148.88 111.106 149.504 111.498C150.133 111.885 150.618 112.446 150.96 113.18C151.302 113.909 151.475 114.759 151.479 115.729V116.283ZM149.743 115.764C149.743 114.643 149.534 113.793 149.114 113.214C148.695 112.635 148.103 112.346 147.337 112.346C146.594 112.346 146.011 112.64 145.587 113.228C145.168 113.811 144.953 114.636 144.944 115.702V116.283C144.944 117.359 145.154 118.2 145.573 118.806C145.997 119.412 146.59 119.715 147.351 119.715C148.121 119.715 148.711 119.423 149.121 118.84C149.536 118.257 149.743 117.404 149.743 116.283V115.764ZM135.606 162.76C135.506 163.822 135.114 164.651 134.431 165.248C133.747 165.84 132.838 166.137 131.703 166.137C130.91 166.137 130.211 165.95 129.604 165.576C129.003 165.198 128.538 164.662 128.21 163.97C127.882 163.277 127.711 162.473 127.697 161.557V160.627C127.697 159.688 127.864 158.861 128.196 158.146C128.529 157.43 129.005 156.879 129.625 156.491C130.249 156.104 130.969 155.91 131.785 155.91C132.883 155.91 133.768 156.209 134.438 156.806C135.107 157.403 135.497 158.246 135.606 159.335H133.884C133.802 158.619 133.592 158.104 133.255 157.79C132.922 157.471 132.432 157.312 131.785 157.312C131.033 157.312 130.454 157.587 130.049 158.139C129.648 158.686 129.443 159.49 129.434 160.552V161.434C129.434 162.509 129.625 163.329 130.008 163.895C130.395 164.46 130.96 164.742 131.703 164.742C132.382 164.742 132.893 164.59 133.234 164.284C133.576 163.979 133.793 163.471 133.884 162.76H135.606ZM145.102 161.283C145.102 162.258 144.933 163.115 144.596 163.854C144.258 164.587 143.775 165.152 143.146 165.549C142.522 165.941 141.802 166.137 140.986 166.137C140.18 166.137 139.46 165.941 138.826 165.549C138.197 165.152 137.71 164.59 137.363 163.86C137.021 163.131 136.848 162.29 136.844 161.338V160.777C136.844 159.807 137.015 158.95 137.356 158.207C137.703 157.464 138.188 156.897 138.812 156.505C139.441 156.108 140.161 155.91 140.973 155.91C141.784 155.91 142.502 156.106 143.126 156.498C143.755 156.885 144.24 157.446 144.582 158.18C144.924 158.909 145.097 159.759 145.102 160.729V161.283ZM143.372 160.764C143.372 159.661 143.162 158.815 142.743 158.228C142.328 157.64 141.738 157.346 140.973 157.346C140.225 157.346 139.64 157.64 139.216 158.228C138.797 158.811 138.582 159.638 138.573 160.709V161.283C138.573 162.377 138.785 163.222 139.209 163.819C139.637 164.416 140.23 164.715 140.986 164.715C141.752 164.715 142.34 164.423 142.75 163.84C143.165 163.257 143.372 162.404 143.372 161.283V160.764ZM154.72 166H152.99L148.554 158.938V166H146.824V156.047H148.554L153.004 163.136V156.047H154.72V166ZM163.75 157.441H160.646V166H158.931V157.441H155.854V156.047H163.75V157.441ZM169.813 163.683H165.958L165.151 166H163.354L167.113 156.047H168.665L172.432 166H170.627L169.813 163.683ZM166.443 162.288H169.328L167.886 158.159L166.443 162.288ZM181.011 162.76C180.91 163.822 180.519 164.651 179.835 165.248C179.151 165.84 178.242 166.137 177.107 166.137C176.314 166.137 175.615 165.95 175.009 165.576C174.407 165.198 173.942 164.662 173.614 163.97C173.286 163.277 173.115 162.473 173.102 161.557V160.627C173.102 159.688 173.268 158.861 173.601 158.146C173.933 157.43 174.41 156.879 175.029 156.491C175.654 156.104 176.374 155.91 177.189 155.91C178.288 155.91 179.172 156.209 179.842 156.806C180.512 157.403 180.901 158.246 181.011 159.335H179.288C179.206 158.619 178.996 158.104 178.659 157.79C178.326 157.471 177.837 157.312 177.189 157.312C176.438 157.312 175.859 157.587 175.453 158.139C175.052 158.686 174.847 159.49 174.838 160.552V161.434C174.838 162.509 175.029 163.329 175.412 163.895C175.799 164.46 176.365 164.742 177.107 164.742C177.786 164.742 178.297 164.59 178.639 164.284C178.98 163.979 179.197 163.471 179.288 162.76H181.011ZM189.549 157.441H186.445V166H184.729V157.441H181.653V156.047H189.549V157.441ZM201.218 156.047V162.698C201.218 163.756 200.878 164.594 200.199 165.214C199.525 165.829 198.625 166.137 197.499 166.137C196.36 166.137 195.455 165.834 194.785 165.228C194.115 164.617 193.78 163.771 193.78 162.691V156.047H195.503V162.705C195.503 163.37 195.672 163.879 196.009 164.229C196.346 164.58 196.843 164.756 197.499 164.756C198.83 164.756 199.495 164.054 199.495 162.65V156.047H201.218ZM208.272 163.437C208.272 162.999 208.118 162.662 207.808 162.425C207.502 162.188 206.949 161.949 206.146 161.707C205.344 161.465 204.706 161.197 204.232 160.9C203.326 160.331 202.872 159.588 202.872 158.672C202.872 157.87 203.198 157.209 203.85 156.689C204.506 156.17 205.356 155.91 206.399 155.91C207.092 155.91 207.71 156.038 208.252 156.293C208.794 156.548 209.22 156.913 209.53 157.387C209.84 157.856 209.995 158.378 209.995 158.952H208.272C208.272 158.433 208.108 158.027 207.78 157.735C207.457 157.439 206.992 157.291 206.386 157.291C205.821 157.291 205.381 157.412 205.066 157.653C204.757 157.895 204.602 158.232 204.602 158.665C204.602 159.03 204.77 159.335 205.107 159.581C205.445 159.823 206.001 160.06 206.775 160.292C207.55 160.52 208.172 160.782 208.642 161.078C209.111 161.37 209.455 161.707 209.674 162.09C209.893 162.468 210.002 162.912 210.002 163.423C210.002 164.252 209.683 164.913 209.045 165.405C208.411 165.893 207.55 166.137 206.461 166.137C205.741 166.137 205.078 166.005 204.472 165.74C203.87 165.471 203.401 165.102 203.063 164.633C202.731 164.163 202.564 163.617 202.564 162.992H204.294C204.294 163.557 204.481 163.995 204.854 164.305C205.228 164.615 205.764 164.77 206.461 164.77C207.062 164.77 207.514 164.649 207.814 164.407C208.12 164.161 208.272 163.838 208.272 163.437Z" fill="#0A0A0B"/>
<path d="M6.48438 8.72168C8.29427 8.72168 9.64844 9.11556 10.5469 9.90332C11.4518 10.6911 11.9043 11.8109 11.9043 13.2627C11.9043 13.9137 11.8099 14.5387 11.6211 15.1377C11.4388 15.7367 11.1361 16.2705 10.7129 16.7393C10.2962 17.208 9.73958 17.5791 9.04297 17.8525C8.35286 18.126 7.5 18.2627 6.48438 18.2627H5.40039V22.999H1.54297V8.72168H6.48438ZM6.39648 11.8369H5.40039V15.1182H6.16211C6.49414 15.1182 6.80339 15.0628 7.08984 14.9521C7.3763 14.835 7.60417 14.6494 7.77344 14.3955C7.94922 14.1351 8.03711 13.79 8.03711 13.3604C8.03711 12.9111 7.90365 12.5465 7.63672 12.2666C7.36979 11.9801 6.95638 11.8369 6.39648 11.8369ZM22.9395 22.999L22.2363 20.3232H17.5977L16.875 22.999H12.6367L17.2949 8.66309H22.4414L27.1582 22.999H22.9395ZM21.4355 17.1592L20.8203 14.8154C20.7552 14.5615 20.6608 14.2002 20.5371 13.7314C20.4134 13.2562 20.2897 12.7679 20.166 12.2666C20.0488 11.7588 19.9577 11.3421 19.8926 11.0166C19.834 11.3421 19.7493 11.7458 19.6387 12.2275C19.5345 12.7028 19.4238 13.1748 19.3066 13.6436C19.196 14.1123 19.0983 14.5029 19.0137 14.8154L18.3984 17.1592H21.4355ZM34.4434 14.6396H40.6055V22.335C39.8698 22.5889 39.0267 22.7972 38.0762 22.96C37.1257 23.1162 36.1296 23.1943 35.0879 23.1943C33.7142 23.1943 32.5098 22.9274 31.4746 22.3936C30.4395 21.8597 29.6322 21.0492 29.0527 19.9619C28.4733 18.8682 28.1836 17.488 28.1836 15.8213C28.1836 14.3239 28.4701 13.0316 29.043 11.9443C29.6159 10.8506 30.459 10.0075 31.5723 9.41504C32.6921 8.81608 34.0625 8.5166 35.6836 8.5166C36.5755 8.5166 37.4219 8.60124 38.2227 8.77051C39.0234 8.93978 39.7201 9.15462 40.3125 9.41504L39.0918 12.4424C38.5775 12.1885 38.0436 11.9997 37.4902 11.876C36.9368 11.7458 36.3411 11.6807 35.7031 11.6807C34.8503 11.6807 34.1634 11.8727 33.6426 12.2568C33.1283 12.641 32.7539 13.1553 32.5195 13.7998C32.2852 14.4378 32.168 15.1442 32.168 15.9189C32.168 16.8044 32.2917 17.5531 32.5391 18.165C32.793 18.7705 33.1608 19.2327 33.6426 19.5518C34.1309 19.8643 34.7201 20.0205 35.4102 20.0205C35.638 20.0205 35.9147 20.0042 36.2402 19.9717C36.5723 19.9391 36.8229 19.9001 36.9922 19.8545V17.6182H34.4434V14.6396ZM51.9922 22.999H43.5156V8.72168H51.9922V11.8174H47.373V14.0635H51.6504V17.1592H47.373V19.8545H51.9922V22.999ZM63.8281 18.6631C63.8281 19.4378 63.6328 20.1735 63.2422 20.8701C62.8516 21.5602 62.2428 22.1201 61.416 22.5498C60.5957 22.9795 59.5345 23.1943 58.2324 23.1943C57.5814 23.1943 57.0085 23.165 56.5137 23.1064C56.0254 23.0479 55.5697 22.9535 55.1465 22.8232C54.7233 22.6865 54.2839 22.5107 53.8281 22.2959V18.8584C54.6029 19.249 55.3841 19.5485 56.1719 19.7568C56.9596 19.9587 57.6725 20.0596 58.3105 20.0596C58.6947 20.0596 59.0072 20.014 59.248 19.9229C59.4954 19.8317 59.6777 19.708 59.7949 19.5518C59.9121 19.389 59.9707 19.2035 59.9707 18.9951C59.9707 18.7477 59.8828 18.5394 59.707 18.3701C59.5378 18.1943 59.2643 18.012 58.8867 17.8232C58.5091 17.6344 58.0111 17.4001 57.3926 17.1201C56.8652 16.8727 56.3867 16.6188 55.957 16.3584C55.5339 16.098 55.1693 15.8018 54.8633 15.4697C54.5638 15.1312 54.3327 14.7373 54.1699 14.2881C54.0072 13.8389 53.9258 13.3083 53.9258 12.6963C53.9258 11.7783 54.1504 11.0101 54.5996 10.3916C55.0553 9.7666 55.6868 9.29785 56.4941 8.98535C57.3079 8.67285 58.2454 8.5166 59.3066 8.5166C60.2376 8.5166 61.0742 8.62077 61.8164 8.8291C62.5651 9.03743 63.2357 9.27507 63.8281 9.54199L62.6465 12.5205C62.0345 12.2406 61.4323 12.0192 60.8398 11.8564C60.2474 11.6872 59.6973 11.6025 59.1895 11.6025C58.8574 11.6025 58.584 11.6449 58.3691 11.7295C58.1608 11.8076 58.0046 11.915 57.9004 12.0518C57.8027 12.1885 57.7539 12.3447 57.7539 12.5205C57.7539 12.7419 57.8385 12.9404 58.0078 13.1162C58.1836 13.292 58.4733 13.484 58.877 13.6924C59.2871 13.8942 59.8438 14.1579 60.5469 14.4834C61.2435 14.7959 61.8359 15.1344 62.3242 15.499C62.8125 15.8571 63.1836 16.29 63.4375 16.7979C63.6979 17.2992 63.8281 17.9209 63.8281 18.6631ZM71.2305 22.999V8.72168H75.0879V19.8838H80.5859V22.999H71.2305ZM82.8711 22.999V8.72168H86.748V22.999H82.8711ZM103.438 22.999H98.3789L93.1641 12.9404H93.0762C93.1087 13.2464 93.138 13.6143 93.1641 14.0439C93.1901 14.4736 93.2129 14.9131 93.2324 15.3623C93.252 15.805 93.2617 16.2054 93.2617 16.5635V22.999H89.8438V8.72168H94.8828L100.078 18.6436H100.137C100.117 18.3311 100.098 17.9697 100.078 17.5596C100.059 17.1429 100.039 16.723 100.02 16.2998C100.007 15.8766 100 15.5023 100 15.1768V8.72168H103.438V22.999ZM118.721 22.999H114.365L111.543 17.54L110.4 18.2236V22.999H106.523V8.72168H110.4V14.9229C110.563 14.6104 110.749 14.2979 110.957 13.9854C111.172 13.6729 111.38 13.3766 111.582 13.0967L114.58 8.72168H118.799L114.297 15.1182L118.721 22.999ZM129.609 18.6631C129.609 19.4378 129.414 20.1735 129.023 20.8701C128.633 21.5602 128.024 22.1201 127.197 22.5498C126.377 22.9795 125.316 23.1943 124.014 23.1943C123.363 23.1943 122.79 23.165 122.295 23.1064C121.807 23.0479 121.351 22.9535 120.928 22.8232C120.505 22.6865 120.065 22.5107 119.609 22.2959V18.8584C120.384 19.249 121.165 19.5485 121.953 19.7568C122.741 19.9587 123.454 20.0596 124.092 20.0596C124.476 20.0596 124.788 20.014 125.029 19.9229C125.277 19.8317 125.459 19.708 125.576 19.5518C125.693 19.389 125.752 19.2035 125.752 18.9951C125.752 18.7477 125.664 18.5394 125.488 18.3701C125.319 18.1943 125.046 18.012 124.668 17.8232C124.29 17.6344 123.792 17.4001 123.174 17.1201C122.646 16.8727 122.168 16.6188 121.738 16.3584C121.315 16.098 120.951 15.8018 120.645 15.4697C120.345 15.1312 120.114 14.7373 119.951 14.2881C119.788 13.8389 119.707 13.3083 119.707 12.6963C119.707 11.7783 119.932 11.0101 120.381 10.3916C120.837 9.7666 121.468 9.29785 122.275 8.98535C123.089 8.67285 124.027 8.5166 125.088 8.5166C126.019 8.5166 126.855 8.62077 127.598 8.8291C128.346 9.03743 129.017 9.27507 129.609 9.54199L128.428 12.5205C127.816 12.2406 127.214 12.0192 126.621 11.8564C126.029 11.6872 125.479 11.6025 124.971 11.6025C124.639 11.6025 124.365 11.6449 124.15 11.7295C123.942 11.8076 123.786 11.915 123.682 12.0518C123.584 12.1885 123.535 12.3447 123.535 12.5205C123.535 12.7419 123.62 12.9404 123.789 13.1162C123.965 13.292 124.255 13.484 124.658 13.6924C125.068 13.8942 125.625 14.1579 126.328 14.4834C127.025 14.7959 127.617 15.1344 128.105 15.499C128.594 15.8571 128.965 16.29 129.219 16.7979C129.479 17.2992 129.609 17.9209 129.609 18.6631Z" fill="#0A0A0B"/>
</svg>
