<svg width="100" height="100" viewBox="0 0 100 100" fill="none" xmlns="http://www.w3.org/2000/svg">
<circle cx="50" cy="50" r="50" fill="white"/>
<path fill-rule="evenodd" clip-rule="evenodd" d="M40.7158 39.0582C40.4584 39.1535 40.2403 39.3527 40.1126 39.609L40 39.8351V50.1253V60.4155L40.1126 60.6416C40.2483 60.9139 40.4662 61.1031 40.7546 61.1989C41.0693 61.3034 41.3681 61.2592 41.7515 61.0513C41.924 60.9577 45.988 58.6744 50.7826 55.9773C56.2155 52.9211 59.5617 51.0141 59.6638 50.916C59.9016 50.6874 60 50.456 60 50.1253C60 49.7946 59.9016 49.5632 59.6638 49.3346C59.5617 49.2365 56.2155 47.3295 50.7826 44.2733C45.988 41.5762 41.9222 39.2919 41.7473 39.1971C41.376 38.9957 41.0155 38.9472 40.7158 39.0582Z" fill="#0A0A0B"/>
</svg>
