<svg width="170" height="35" viewBox="0 0 170 35" fill="none" xmlns="http://www.w3.org/2000/svg">
<circle cx="152.5" cy="17.5" r="17.5" fill="#353B44"/>
<path d="M150.451 11.0625C149.795 11.0625 149.186 11.2266 148.623 11.5547C148.072 11.8828 147.633 12.3281 147.305 12.8906C146.977 13.4414 146.812 14.0449 146.812 14.7012V19.7988C146.812 20.4551 146.977 21.0645 147.305 21.627C147.633 22.1777 148.072 22.6172 148.623 22.9453C149.186 23.2734 149.795 23.4375 150.451 23.4375H155.549C156.205 23.4375 156.809 23.2734 157.359 22.9453C157.922 22.6172 158.367 22.1777 158.695 21.627C159.023 21.0645 159.188 20.4551 159.188 19.7988V14.7012C159.188 14.0449 159.023 13.4414 158.695 12.8906C158.367 12.3281 157.922 11.8828 157.359 11.5547C156.809 11.2266 156.205 11.0625 155.549 11.0625H150.451ZM150.451 12.1875H155.549C156.006 12.1875 156.428 12.2988 156.814 12.5215C157.201 12.7441 157.506 13.0488 157.729 13.4355C157.951 13.8223 158.062 14.2441 158.062 14.7012V19.7988C158.062 20.2559 157.951 20.6777 157.729 21.0645C157.506 21.4512 157.201 21.7559 156.814 21.9785C156.428 22.2012 156.006 22.3125 155.549 22.3125H150.451C149.994 22.3125 149.572 22.2012 149.186 21.9785C148.799 21.7559 148.494 21.4512 148.271 21.0645C148.049 20.6777 147.938 20.2559 147.938 19.7988V14.7012C147.938 14.2441 148.049 13.8223 148.271 13.4355C148.494 13.0488 148.799 12.7441 149.186 12.5215C149.572 12.2988 149.994 12.1875 150.451 12.1875ZM156.322 13.418C156.182 13.418 156.059 13.4707 155.953 13.5762C155.859 13.6699 155.812 13.7871 155.812 13.9277C155.812 14.0684 155.859 14.1914 155.953 14.2969C156.059 14.3906 156.182 14.4375 156.322 14.4375C156.463 14.4375 156.58 14.3906 156.674 14.2969C156.779 14.1914 156.832 14.0684 156.832 13.9277C156.832 13.7871 156.779 13.6699 156.674 13.5762C156.58 13.4707 156.463 13.418 156.322 13.418ZM153 13.875C152.391 13.875 151.828 14.0273 151.312 14.332C150.797 14.6367 150.387 15.0469 150.082 15.5625C149.777 16.0781 149.625 16.6406 149.625 17.25C149.625 17.8594 149.777 18.4219 150.082 18.9375C150.387 19.4531 150.797 19.8633 151.312 20.168C151.828 20.4727 152.391 20.625 153 20.625C153.609 20.625 154.172 20.4727 154.688 20.168C155.203 19.8633 155.613 19.4531 155.918 18.9375C156.223 18.4219 156.375 17.8594 156.375 17.25C156.375 16.6406 156.223 16.0781 155.918 15.5625C155.613 15.0469 155.203 14.6367 154.688 14.332C154.172 14.0273 153.609 13.875 153 13.875ZM153 15C153.41 15 153.785 15.0996 154.125 15.2988C154.477 15.498 154.752 15.7734 154.951 16.125C155.15 16.4648 155.25 16.8398 155.25 17.25C155.25 17.6602 155.15 18.041 154.951 18.3926C154.752 18.7324 154.477 19.002 154.125 19.2012C153.785 19.4004 153.41 19.5 153 19.5C152.59 19.5 152.209 19.4004 151.857 19.2012C151.518 19.002 151.248 18.7324 151.049 18.3926C150.85 18.041 150.75 17.6602 150.75 17.25C150.75 16.8398 150.85 16.4648 151.049 16.125C151.248 15.7734 151.518 15.498 151.857 15.2988C152.209 15.0996 152.59 15 153 15Z" fill="white"/>
<circle cx="107.5" cy="17.5" r="17.5" fill="#353B44"/>
<path d="M103.869 10.5C103.459 10.5 103.107 10.6465 102.814 10.9395C102.521 11.2207 102.375 11.5723 102.375 11.9941C102.375 12.4043 102.521 12.7559 102.814 13.0488C103.107 13.3418 103.453 13.4883 103.852 13.4883C104.262 13.4883 104.613 13.3418 104.906 13.0488C105.199 12.7559 105.346 12.4043 105.346 11.9941C105.346 11.584 105.199 11.2324 104.906 10.9395C104.625 10.6465 104.279 10.5 103.869 10.5ZM111.111 14.4375C110.537 14.4375 110.039 14.5723 109.617 14.8418C109.277 15.0645 109.008 15.3633 108.809 15.7383H108.773V14.6133H106.312V22.875H108.879V18.7793C108.879 18.334 108.902 17.9941 108.949 17.7598C109.02 17.4082 109.148 17.1445 109.336 16.9688C109.559 16.7695 109.875 16.6699 110.285 16.6699C110.695 16.6699 111.006 16.7871 111.217 17.0215C111.393 17.209 111.51 17.4902 111.568 17.8652C111.604 18.0879 111.621 18.416 111.621 18.8496V22.875H114.188V18.3398C114.188 17.5078 114.111 16.8398 113.959 16.3359C113.783 15.7266 113.484 15.2637 113.062 14.9473C112.594 14.6074 111.943 14.4375 111.111 14.4375ZM102.586 14.6133V22.875H105.152V14.6133H102.586Z" fill="white"/>
<circle cx="62.5" cy="17.5" r="17.5" fill="#353B44"/>
<path d="M69.75 13.0664C69.2461 13.2891 68.7188 13.4355 68.168 13.5059C68.4492 13.3301 68.6953 13.1133 68.9062 12.8555C69.1172 12.5859 69.2754 12.2871 69.3809 11.959C68.8301 12.2871 68.2441 12.5156 67.623 12.6445C67.3652 12.3633 67.0605 12.1465 66.709 11.9941C66.3574 11.8418 65.9883 11.7656 65.6016 11.7656C65.0977 11.7656 64.6348 11.8887 64.2129 12.1348C63.791 12.3809 63.4512 12.7207 63.1934 13.1543C62.9473 13.5762 62.8242 14.0332 62.8242 14.5254C62.8242 14.748 62.8477 14.959 62.8945 15.1582C61.7695 15.1113 60.7031 14.8242 59.6953 14.2969C58.7227 13.8047 57.8848 13.1309 57.1816 12.2754C56.9355 12.6973 56.8125 13.1602 56.8125 13.6641C56.8125 14.1328 56.9238 14.5723 57.1465 14.9824C57.3691 15.3926 57.668 15.7207 58.043 15.9668C57.5977 15.9551 57.1816 15.8379 56.7949 15.6152V15.6504C56.7949 16.3184 57.0059 16.9102 57.4277 17.4258C57.8496 17.9297 58.377 18.2461 59.0098 18.375C58.7754 18.4336 58.5352 18.4629 58.2891 18.4629C58.1133 18.4629 57.9375 18.4512 57.7617 18.4277C57.9375 18.9785 58.2598 19.4355 58.7285 19.7988C59.209 20.1504 59.748 20.332 60.3457 20.3438C59.8652 20.7188 59.332 21.0117 58.7461 21.2227C58.1602 21.4336 57.5508 21.5391 56.918 21.5391C56.6953 21.5273 56.4727 21.5098 56.25 21.4863C56.8711 21.8848 57.5391 22.1895 58.2539 22.4004C58.9805 22.623 59.7246 22.7344 60.4863 22.7344C61.7168 22.7344 62.8477 22.4941 63.8789 22.0137C64.8164 21.5801 65.6367 20.9648 66.3398 20.168C66.9961 19.4297 67.5059 18.5859 67.8691 17.6367C68.209 16.7109 68.3789 15.7852 68.3789 14.8594L68.3613 14.4902C68.9121 14.1035 69.375 13.6289 69.75 13.0664Z" fill="white"/>
<circle cx="17.5" cy="17.5" r="17.5" fill="#FE8C12"/>
<path d="M19.8281 9.375C18.6914 9.375 17.8301 9.67969 17.2441 10.2891C16.623 10.9336 16.3125 11.9062 16.3125 13.207V15.5625H13.5V18.375H16.3125V25.125H19.125V18.375H21.375L21.9375 15.5625H19.125V13.6816C19.125 13.166 19.2188 12.791 19.4062 12.5566C19.6055 12.3105 19.9336 12.1875 20.3906 12.1875H21.9375V9.49805C21.3633 9.41602 20.6602 9.375 19.8281 9.375Z" fill="white"/>
</svg>
